{"glyphs":{"0":{"ha":515,"x_min":0,"x_max":0,"o":"m 254 -12 b 429 128 351 -12 390 49 b 446 178 438 143 438 163 l 453 288 l 453 794 b 446 829 453 799 450 822 b 336 974 429 883 399 957 b 265 978 313 978 285 978 l 224 978 b 183 961 207 978 196 969 b 67 665 82 907 74 767 b 63 353 67 619 63 400 l 63 342 b 86 124 67 264 71 197 b 160 11 99 76 125 42 b 224 -12 175 -6 203 -12 z m 207 154 l 207 665 b 211 810 207 689 211 786 b 215 822 211 814 215 822 b 239 844 219 826 235 844 b 265 853 239 844 258 853 l 269 853 b 317 803 297 853 317 826 l 317 579 b 313 283 317 533 313 326 b 308 178 313 268 308 194 b 261 113 308 150 297 113 b 207 154 239 113 211 128 z m 224 -40 b 139 -8 196 -40 160 -31 l 142 -10 b 58 117 101 25 72 64 b 35 340 44 188 39 258 l 35 353 b 38 511 35 376 36 444 b 39 665 39 578 39 643 b 65 847 42 721 46 788 b 11 610 22 781 15 685 b 7 297 11 564 7 344 l 7 286 b 31 68 11 208 15 142 b 104 -44 43 21 69 -14 b 168 -68 119 -61 147 -68 l 199 -68 b 297 -36 240 -68 272 -56 b 254 -40 283 -39 269 -40 z m 261 747 l 261 524 b 257 228 261 478 257 271 b 253 140 257 215 254 169 l 261 140 b 281 178 276 140 281 163 b 283 233 281 186 282 211 b 285 283 285 256 285 276 b 286 428 285 304 285 365 b 289 579 288 486 289 557 l 289 803 b 265 825 289 814 281 825 b 243 817 263 825 243 817 b 242 810 244 817 244 813 l 239 807 l 239 789 b 261 747 253 779 261 763 z "},"1":{"ha":532,"x_min":0,"x_max":0,"o":"m 74 6 b 96 -10 74 0 82 -6 b 179 -6 110 -14 157 -3 l 217 -8 b 283 -12 257 -11 268 -12 l 496 -12 b 504 -1 500 -10 501 -3 l 504 100 l 496 107 l 407 111 l 365 113 l 360 131 b 357 233 361 133 357 203 b 365 603 357 357 365 481 l 365 951 b 350 965 361 958 357 965 l 261 969 b 217 960 258 969 218 965 b 171 897 203 947 201 925 l 136 840 b 46 717 110 804 46 717 l 28 688 l 64 650 b 86 631 64 650 76 639 b 143 628 104 619 126 589 b 207 731 150 642 197 704 b 232 731 213 746 232 744 b 224 204 232 536 224 401 l 224 135 b 182 115 224 124 211 115 l 75 115 l 68 111 z m 18 -50 b 40 -65 18 -56 26 -61 b 124 -61 54 -69 101 -58 l 161 -64 b 228 -68 201 -67 213 -68 l 440 -68 b 449 -57 444 -65 446 -58 l 449 -40 l 283 -40 b 244 -39 274 -40 258 -40 b 217 -36 235 -39 226 -37 b 176 -33 206 -36 188 -33 b 138 -36 169 -33 153 -35 b 86 -36 117 -37 100 -43 l 88 -36 b 46 4 61 -28 46 -14 l 43 60 l 19 60 l 13 56 z m 168 149 l 168 143 l 182 143 b 196 135 192 143 196 139 l 196 204 b 200 471 196 303 197 388 l 204 671 l 185 642 l 176 628 b 168 149 175 458 168 329 z m -10 661 l -28 632 l 8 594 b 31 575 8 594 21 583 b 88 572 49 564 71 533 b 97 588 89 575 92 581 b 79 601 90 592 85 596 l 67 611 l 68 610 b 44 631 58 618 44 631 l 1 676 b -10 661 -4 668 -10 661 z "},"2":{"ha":515,"x_min":0,"x_max":0,"o":"m 69 49 b 97 -8 69 32 69 -8 b 117 -4 101 -8 113 -4 l 258 -4 l 360 -1 l 367 -1 l 381 -8 l 408 -8 b 433 -11 413 -8 429 -11 b 450 18 447 -11 450 10 b 454 39 450 25 454 39 l 450 118 l 418 136 l 239 136 b 215 138 236 136 225 138 b 211 181 214 154 211 175 l 211 188 b 288 389 211 244 239 342 b 383 507 321 422 351 471 b 460 664 417 543 451 615 l 460 761 b 351 972 460 854 443 929 b 319 985 343 976 319 985 l 226 985 b 178 969 226 985 190 972 b 118 940 158 961 135 957 b 69 819 86 908 78 864 l 69 656 l 78 649 l 203 649 l 203 807 b 214 840 203 807 210 832 b 258 864 222 860 243 864 b 315 819 279 864 315 844 l 319 729 b 315 675 319 729 315 679 b 226 521 299 615 263 569 b 67 121 104 354 67 319 l 69 121 z m 39 121 b 60 307 39 204 44 260 b 11 65 24 243 11 183 l 14 65 l 14 -7 b 42 -64 14 -24 14 -64 b 61 -60 46 -64 57 -60 l 203 -60 l 304 -57 l 311 -57 l 325 -64 l 353 -64 b 378 -67 357 -64 374 -67 b 394 -37 392 -67 394 -46 l 394 -36 l 376 -36 l 361 -29 l 360 -29 l 258 -32 l 118 -32 l 115 -33 b 97 -36 107 -36 100 -36 b 42 49 42 -36 42 24 z m 14 764 l 14 600 l 22 593 l 147 593 l 147 621 l 71 621 l 42 638 l 42 825 b 51 871 44 840 47 856 b 14 764 28 840 21 803 z m 260 764 l 264 674 b 260 619 264 674 260 624 b 258 617 260 618 258 618 b 288 678 271 638 282 657 b 292 731 288 688 292 731 l 288 818 b 258 836 288 828 269 836 b 239 829 251 836 242 835 l 239 828 b 231 806 236 821 231 806 l 231 800 b 260 764 246 793 260 779 z "},"3":{"ha":536,"x_min":0,"x_max":0,"o":"m 356 -10 b 392 7 361 -12 379 7 b 472 247 461 53 472 172 b 444 453 472 314 482 394 b 382 514 444 472 382 486 b 425 565 382 519 413 550 b 446 701 449 611 446 646 b 431 888 446 763 442 825 l 422 899 b 324 981 422 925 357 968 b 256 989 324 981 319 983 b 94 808 182 989 86 931 l 94 733 b 101 715 101 726 101 722 b 97 689 101 703 97 696 b 122 674 97 675 110 674 l 158 674 b 181 681 161 674 176 681 l 200 674 l 211 681 l 211 790 b 242 863 211 819 208 856 l 281 851 b 308 818 293 844 304 833 b 313 697 308 799 313 717 l 313 611 b 243 567 313 588 283 569 b 165 564 224 565 171 568 l 168 472 b 178 460 169 474 176 460 l 263 460 b 335 364 297 460 335 426 l 335 161 b 268 114 321 126 308 114 l 257 107 b 192 158 222 107 197 142 l 192 347 l 188 350 l 124 350 b 71 347 108 350 71 347 l 64 343 l 64 204 b 94 76 64 156 75 121 b 257 -10 121 14 192 -10 z m 257 -37 b 69 65 185 -37 104 -4 b 36 204 50 113 36 153 l 36 293 b 15 292 25 292 15 292 l 8 288 l 8 149 b 39 21 8 100 19 65 b 201 -65 65 -42 136 -65 l 300 -65 b 336 -49 306 -68 324 -49 l 350 -37 z m 110 508 l 113 417 b 122 404 114 418 121 404 l 207 404 b 279 308 242 404 279 371 l 279 143 b 307 168 294 146 300 153 l 307 364 b 263 432 307 408 283 432 l 168 436 b 151 447 168 436 154 444 b 140 447 153 433 140 447 l 139 511 b 110 508 125 511 113 510 z m 39 753 l 39 678 b 46 660 46 671 46 667 b 42 633 46 647 42 640 b 67 618 42 619 54 618 l 103 618 b 125 625 106 618 121 625 l 144 618 l 156 625 l 156 646 l 122 646 b 69 689 96 646 69 650 b 74 711 69 693 71 704 l 74 715 l 67 722 l 67 807 b 71 869 65 829 67 850 b 39 753 49 840 35 801 z m 253 763 b 257 642 253 743 257 661 l 257 596 b 285 611 274 599 285 604 l 285 697 b 282 756 285 707 283 731 b 281 814 281 781 281 804 b 268 826 278 818 272 824 l 244 833 b 239 797 240 828 239 811 l 239 786 b 253 763 244 779 250 771 z "},"4":{"ha":531,"x_min":0,"x_max":0,"o":"m 424 174 l 465 175 b 486 211 494 175 486 182 l 489 268 b 444 289 489 297 474 289 b 418 310 444 289 418 281 l 418 340 b 414 967 414 558 421 749 l 408 975 l 282 975 b 258 932 271 975 261 950 b 74 386 207 764 129 560 b 50 285 60 344 57 308 b 57 175 50 229 46 175 b 272 172 75 175 192 172 b 285 54 296 172 286 86 b 290 0 281 24 290 0 b 421 6 314 0 419 -6 b 419 29 424 7 418 15 b 419 168 418 75 419 122 z m 190 292 b 199 367 175 297 194 356 b 282 658 221 464 258 563 l 289 667 b 283 432 300 638 285 494 b 282 307 278 394 288 353 b 269 292 282 303 276 292 z m 193 875 b 10 331 142 707 65 504 b -6 229 -4 289 1 253 b 1 119 -6 174 -10 119 b 217 117 19 119 136 117 b 229 -1 240 117 231 31 b 235 -56 225 -32 235 -56 b 365 -50 258 -56 364 -61 b 364 -29 368 -49 363 -40 b 313 -28 346 -29 328 -28 l 278 -19 b 257 58 278 -19 253 28 b 258 74 257 63 258 68 b 257 147 260 93 253 144 b 99 147 203 147 143 146 l 57 147 b 22 247 15 147 22 192 l 22 288 b 29 324 25 297 26 311 b 47 394 33 343 39 369 b 132 646 72 472 101 561 b 225 919 165 739 199 833 b 193 875 214 918 196 893 z m 226 319 l 256 319 b 254 372 257 338 256 356 b 256 436 253 394 253 418 b 257 478 256 447 256 463 b 226 367 246 440 235 401 b 226 319 225 351 226 335 z "},"5":{"ha":536,"x_min":0,"x_max":0,"o":"m 201 826 b 213 838 201 831 208 838 l 438 838 b 449 853 442 838 449 849 l 449 931 b 433 972 449 960 463 972 l 107 969 l 83 953 l 79 747 l 82 546 l 79 481 b 94 469 79 474 88 469 l 207 474 l 219 485 l 219 500 b 268 546 219 524 238 546 b 331 450 303 546 331 513 l 331 161 b 257 107 317 126 308 114 b 213 158 222 107 218 142 l 213 347 l 208 350 l 128 350 b 75 347 113 350 75 347 l 68 343 l 68 204 b 99 76 68 156 79 121 b 257 -10 125 14 192 -10 b 468 247 450 -10 468 113 b 453 579 468 314 486 507 b 296 672 413 650 368 674 b 203 618 263 669 218 643 z m 19 292 l 13 288 l 13 149 b 43 21 13 100 24 65 b 201 -65 69 -42 136 -65 b 342 -28 265 -65 311 -51 b 257 -37 318 -33 289 -37 b 74 65 185 -37 107 -4 b 40 204 54 113 40 153 l 40 293 b 19 292 29 292 19 292 z m 28 897 l 24 692 l 26 490 l 24 425 b 39 414 24 418 32 414 l 151 418 l 164 429 l 164 443 l 94 442 b 51 481 75 442 51 456 l 54 546 l 51 747 l 54 914 l 51 914 z m 275 394 l 275 140 b 303 168 289 146 296 154 l 303 450 b 268 518 303 494 288 518 b 247 500 256 518 247 510 l 247 476 b 275 394 264 461 275 433 z m 229 810 l 229 782 l 382 782 b 393 797 386 782 393 793 l 393 810 z "},"6":{"ha":496,"x_min":0,"x_max":0,"o":"m 135 19 l 139 15 b 231 -10 163 -1 193 -10 l 329 -10 b 365 7 335 -12 353 7 b 446 247 435 53 446 172 b 444 415 446 314 444 385 b 374 554 444 474 392 549 b 246 567 310 574 278 579 b 192 538 219 567 201 538 l 192 760 b 247 865 192 804 188 865 b 296 790 293 865 296 824 l 296 681 l 304 674 l 307 674 b 418 689 379 674 418 669 l 424 808 b 421 835 424 808 421 828 b 413 879 417 846 413 879 b 390 925 410 888 394 921 b 339 967 386 932 347 958 b 247 989 313 985 278 989 b 124 940 183 989 168 978 l 119 936 b 64 756 82 883 64 819 l 64 189 b 67 158 64 189 67 167 b 135 19 75 99 90 61 z m 235 110 b 194 174 208 118 197 143 b 193 432 194 215 193 311 b 236 460 193 432 203 460 b 308 378 271 460 308 440 l 308 161 b 242 114 294 126 282 114 z m 115 -1 b 39 154 65 44 49 86 b 36 186 39 164 36 186 l 36 756 b 53 864 36 792 42 829 b 8 700 22 814 8 757 l 8 133 b 11 103 8 133 11 111 b 79 -36 19 43 35 6 l 83 -40 b 175 -65 107 -57 138 -65 l 274 -65 b 310 -49 279 -68 297 -49 l 324 -37 l 231 -37 b 122 -7 188 -37 151 -28 l 115 0 z m 240 735 l 240 625 l 249 618 l 251 618 b 363 633 324 618 363 614 l 363 646 l 339 646 l 297 646 l 268 663 l 268 790 b 247 838 268 811 267 838 b 221 801 229 838 222 821 b 240 735 239 788 240 758 z m 253 322 l 253 143 b 281 168 268 146 274 153 l 281 378 b 236 432 281 419 257 432 b 221 425 228 432 221 425 l 221 393 b 253 322 239 381 253 360 z "},"7":{"ha":424,"x_min":0,"x_max":0,"o":"m 201 3 l 218 17 l 260 263 l 332 610 l 383 838 b 389 858 376 851 386 858 l 379 964 l 372 971 b 306 975 372 971 326 975 b 78 972 246 979 142 972 l 49 972 l 42 968 l 42 872 b 72 842 42 850 51 840 l 221 850 b 240 807 250 851 247 835 l 217 671 l 160 426 l 129 268 l 79 49 b 79 1 76 32 51 1 b 126 -4 83 1 122 -4 z m 126 -32 b 100 -29 118 -32 111 -31 b 79 -26 89 -28 78 -26 b 49 43 17 -26 32 8 b 53 57 49 43 51 53 l 53 54 l 103 274 l 101 274 l 132 432 l 189 676 b 211 804 196 721 204 760 b 218 822 213 814 215 819 l 74 814 b 14 872 40 815 14 833 l 14 917 l -7 917 l -14 913 l -14 817 b 17 786 -14 794 -4 785 l 165 794 b 185 751 194 796 192 779 l 161 615 l 104 371 l 74 213 l 17 -7 b 24 -54 14 -24 -4 -54 b 71 -60 28 -54 67 -60 l 146 -53 l 163 -39 l 164 -29 z "},"8":{"ha":544,"x_min":0,"x_max":0,"o":"m 440 899 b 425 926 440 903 429 922 b 390 961 421 931 397 953 b 347 981 378 972 358 976 b 200 981 274 992 225 985 b 157 961 189 976 169 972 b 83 701 78 910 83 785 b 119 565 83 646 96 611 b 128 553 119 565 128 557 b 143 533 132 550 143 533 b 163 514 151 526 163 526 b 128 481 163 499 136 488 b 100 453 119 472 100 457 b 74 386 89 436 78 406 b 63 247 63 340 63 293 b 143 14 63 172 74 60 b 167 1 147 14 163 6 b 381 1 239 -31 319 -24 b 404 14 386 4 400 14 b 485 247 474 60 485 172 b 474 386 485 293 485 340 b 447 453 469 406 458 436 b 419 481 447 457 428 472 b 385 514 411 488 385 499 b 428 565 385 521 419 557 b 464 701 451 611 464 646 b 449 888 464 763 460 825 z m 336 625 b 332 614 336 621 332 614 b 274 579 318 594 310 579 b 211 697 203 579 211 646 b 215 818 211 717 215 799 b 249 851 219 833 236 846 b 299 851 272 863 299 851 b 336 697 344 824 336 742 z m 194 161 l 194 350 b 197 399 194 361 197 396 b 208 426 197 403 206 419 b 271 446 219 444 251 446 l 278 446 b 353 350 351 438 353 408 l 353 161 b 275 114 339 126 315 114 l 272 114 b 194 161 232 114 194 124 z m 44 397 b 18 331 33 381 22 350 b 7 192 7 285 7 238 b 88 -42 7 117 18 4 b 111 -54 92 -42 107 -50 b 325 -54 183 -86 264 -79 b 349 -42 331 -51 344 -42 l 357 -35 b 271 -47 329 -43 300 -47 b 150 -21 233 -47 192 -40 b 135 -14 147 -18 138 -14 b 35 247 49 43 35 167 b 47 393 35 293 35 342 l 46 392 b 49 403 46 394 47 399 b 44 397 46 400 44 399 z m 28 646 b 64 510 28 590 40 556 b 72 497 64 510 72 501 l 86 479 l 99 492 l 122 510 b 125 511 122 510 124 511 l 119 518 b 96 549 121 517 96 540 l 96 550 b 56 701 69 601 56 640 l 56 717 b 71 878 56 771 56 828 b 28 646 24 818 28 717 z m 222 390 b 297 294 296 382 297 353 l 297 143 b 325 168 310 147 319 156 l 325 350 b 275 418 325 392 324 413 l 271 418 b 221 390 236 418 224 406 z m 304 621 b 308 625 304 621 307 625 l 308 715 b 272 829 308 746 314 829 b 243 814 263 829 247 822 l 243 796 b 281 642 289 768 281 686 l 281 607 b 304 619 293 608 299 613 z "},"9":{"ha":496,"x_min":0,"x_max":0,"o":"m 390 40 b 446 221 428 93 446 157 l 446 788 b 443 818 446 788 443 810 b 375 957 435 878 419 915 l 371 961 b 279 986 347 978 317 986 b 68 729 89 992 68 889 l 68 550 b 263 399 68 417 183 375 b 317 428 289 399 307 428 l 318 247 l 318 217 b 247 111 318 172 307 111 b 199 186 201 111 199 153 l 199 296 l 190 303 l 188 303 b 76 288 115 303 76 307 l 71 168 l 82 97 b 104 51 85 89 100 56 b 156 10 108 44 147 18 b 247 -12 182 -8 217 -12 b 386 36 311 -12 342 -1 z m 201 815 b 268 863 215 850 228 863 l 275 867 b 315 803 301 858 313 833 l 315 533 b 272 506 315 533 306 506 b 200 588 238 506 200 525 z m 13 674 l 13 494 b 207 343 13 361 128 319 b 251 367 226 343 240 358 b 218 364 240 364 228 364 b 40 550 132 364 40 421 l 40 729 b 51 871 40 782 42 831 b 13 674 18 825 13 757 z m 21 232 l 15 113 b 18 86 15 113 18 93 b 26 42 22 75 26 42 b 49 -4 29 33 44 0 b 100 -46 53 -11 92 -37 b 192 -68 126 -64 161 -68 b 311 -35 246 -68 276 -60 b 247 -40 293 -39 272 -40 b 140 -14 213 -40 172 -36 b 117 6 135 -8 126 -1 b 82 33 101 15 89 21 b 54 92 74 44 58 82 b 46 136 54 92 50 125 b 43 165 46 146 43 165 l 46 247 b 21 232 29 246 21 240 z m 260 747 l 260 535 b 272 533 264 533 268 533 b 288 540 281 533 288 540 l 288 800 b 275 835 286 814 283 826 b 229 808 246 833 238 826 l 229 807 b 260 747 249 796 257 774 z m 263 192 l 263 161 b 261 142 263 154 263 149 b 290 217 285 151 290 188 l 290 247 l 289 375 b 268 371 283 372 276 371 b 261 368 265 369 263 369 z "}," ":{"ha":264,"x_min":0,"x_max":0,"o":""},"!":{"ha":296,"x_min":0,"x_max":0,"o":"m 118 276 l 194 276 l 203 283 b 228 547 203 283 228 519 b 231 785 228 624 231 693 l 231 951 b 215 965 226 958 222 965 l 104 969 b 93 954 100 969 93 958 b 89 532 93 700 89 786 b 107 325 89 486 107 332 l 111 283 z m 88 7 l 97 -1 l 221 -1 l 232 7 b 233 147 232 7 232 67 l 219 156 l 88 156 l 83 140 l 83 57 z m 85 271 l 79 322 b 76 357 79 324 78 340 b 61 532 71 407 61 497 b 63 744 61 658 61 703 b 65 913 64 781 65 821 l 49 914 b 38 899 44 914 38 903 b 33 476 38 644 33 731 b 51 269 33 431 51 276 l 56 228 l 63 221 l 139 221 l 147 228 b 150 249 147 228 149 236 l 107 249 z m 56 54 l 56 100 l 32 100 l 28 85 l 28 1 l 32 -49 l 42 -57 l 165 -57 l 176 -49 l 176 -29 l 86 -29 l 61 -6 z "},"\"":{"ha":457,"x_min":0,"x_max":0,"o":"m 275 650 l 351 657 l 360 664 b 385 926 360 664 385 899 l 388 958 b 372 972 383 965 379 972 l 261 969 b 250 954 257 969 250 958 l 251 911 b 264 699 251 865 264 706 l 268 657 z m 97 656 l 174 656 l 182 663 b 207 926 182 663 207 899 l 210 951 b 194 965 206 958 201 965 l 83 969 b 72 954 79 969 72 958 l 68 911 b 86 704 68 865 86 711 l 90 663 z m 64 650 l 58 701 b 56 736 58 703 57 719 b 40 913 50 786 40 875 l 28 914 b 17 899 24 914 17 903 l 13 856 b 31 649 13 810 31 656 l 35 607 l 42 600 l 118 600 l 126 607 b 129 628 126 607 128 615 l 86 628 z m 219 594 l 296 601 l 304 608 b 306 625 304 608 306 615 l 264 622 l 242 644 l 236 696 b 233 732 236 694 235 715 b 226 825 231 757 229 792 b 208 644 219 743 208 644 l 208 643 l 213 601 z "},"#":{"ha":919,"x_min":0,"x_max":0,"o":"m 721 436 b 840 513 788 436 813 469 b 851 540 847 522 847 532 l 857 600 l 857 878 b 851 896 857 881 856 892 b 776 975 840 925 819 965 b 728 978 761 978 740 978 l 699 978 b 672 968 688 978 681 974 b 592 807 601 939 596 863 b 588 635 592 781 588 663 l 588 631 b 604 511 592 588 594 551 b 656 450 613 485 632 465 b 699 436 665 440 685 436 z m 69 13 b 172 0 101 -4 138 -4 b 199 28 183 0 199 15 b 194 513 197 164 193 375 l 199 517 l 201 517 b 328 26 219 500 318 113 b 336 7 328 22 332 11 b 349 -4 339 3 349 -4 l 497 -1 l 504 6 b 514 675 504 6 514 474 b 514 922 513 758 515 839 l 514 956 b 494 971 510 963 506 971 l 388 969 l 381 961 b 386 613 382 908 386 665 b 390 456 386 597 389 471 b 392 353 390 440 392 368 b 383 349 392 349 388 349 b 372 363 376 347 372 356 b 368 386 372 367 368 382 b 356 431 368 393 360 424 b 258 742 324 538 288 636 b 221 886 247 790 235 836 b 81 971 219 989 153 974 b 65 940 68 971 65 949 b 68 71 67 651 71 358 b 69 43 68 71 69 47 z m 692 589 l 692 779 b 713 850 693 779 688 833 b 728 853 713 850 722 853 l 731 853 b 758 789 758 846 758 815 l 758 744 b 757 629 758 726 757 646 b 756 588 757 624 756 594 b 725 561 756 575 746 561 b 692 589 713 561 694 565 z m 608 274 b 621 260 608 268 614 264 b 667 264 629 256 654 265 l 683 263 b 721 258 706 260 713 258 l 838 258 b 843 268 840 261 840 267 l 843 361 l 838 368 l 789 372 l 765 374 b 668 374 688 383 685 374 l 610 374 l 606 371 z m 42 43 b 40 69 42 47 40 69 l 40 253 b 38 915 40 472 38 696 l 25 915 b 10 885 13 915 10 893 b 13 15 11 596 15 303 b 14 -12 13 15 14 -8 l 14 -43 b 117 -56 46 -60 82 -60 b 143 -29 126 -56 142 -42 b 42 -4 111 -28 78 -22 z m 272 -29 b 281 -49 272 -33 276 -44 b 293 -60 283 -53 293 -60 l 442 -57 l 449 -50 l 449 -29 l 340 -29 b 313 -8 340 -29 315 -12 b 222 369 304 1 264 208 b 224 196 222 313 222 253 b 272 -29 247 101 268 7 z m 699 408 b 560 635 574 408 560 572 b 563 724 560 649 561 688 b 569 875 564 764 558 822 b 542 804 554 854 546 829 l 542 675 b 540 494 542 626 540 564 b 549 456 542 482 544 469 b 592 400 556 432 571 414 l 610 401 l 672 401 b 711 406 679 404 693 406 b 740 403 719 406 729 404 l 749 410 b 721 408 740 408 731 408 z m 325 906 l 331 599 l 339 572 l 360 506 b 354 914 357 567 357 760 l 332 914 z m 553 218 b 565 204 553 213 558 208 b 611 208 574 200 599 210 l 628 207 b 665 203 650 204 657 203 l 782 203 b 788 213 785 206 785 211 l 788 231 l 721 231 b 667 236 700 231 678 236 b 625 229 663 236 638 229 b 606 236 619 229 613 231 l 607 236 b 581 272 592 244 581 254 l 579 318 l 554 318 l 550 315 z m 719 590 b 728 588 719 588 726 590 b 729 610 728 592 729 600 l 729 685 b 731 744 729 710 731 735 l 731 789 b 725 824 731 803 731 818 b 719 785 719 815 719 793 z "},"$":{"ha":514,"x_min":0,"x_max":0,"o":"m 233 1 l 233 -61 b 261 -69 232 -78 250 -71 b 268 -49 268 -68 267 -60 l 268 1 l 306 1 b 447 146 382 11 426 69 b 451 160 447 150 451 160 l 451 306 b 436 347 451 306 440 338 b 267 586 404 440 332 518 b 268 839 267 692 267 800 b 289 801 279 833 283 821 b 292 674 292 760 292 715 b 299 663 292 674 294 663 l 407 663 b 411 671 407 663 411 667 b 414 685 411 674 414 682 l 414 729 b 379 914 414 785 417 868 b 349 944 376 917 357 938 b 325 958 346 949 329 958 b 267 969 306 965 286 968 l 267 1011 l 264 1018 l 239 1018 b 233 1006 235 1015 235 1015 l 233 969 b 164 956 208 968 188 964 b 72 840 119 935 86 889 b 69 817 72 838 69 819 b 63 715 63 782 63 750 b 232 404 63 592 151 490 l 232 288 b 233 157 232 281 233 189 l 233 124 b 214 136 225 126 218 131 l 197 160 b 194 206 197 167 194 199 l 194 344 l 190 347 l 69 347 l 67 344 l 67 240 b 69 185 67 233 69 194 b 150 21 76 118 83 49 b 214 1 171 14 194 1 z m 232 624 b 194 747 203 663 194 699 b 233 842 194 792 189 835 b 232 624 233 774 232 704 z m 268 118 l 268 135 b 267 367 268 165 267 258 b 269 365 268 367 268 365 b 319 213 308 324 319 272 b 276 118 319 178 317 129 z m 17 785 b 14 761 17 782 14 764 b 7 660 7 726 7 694 b 151 375 7 549 79 456 l 190 375 l 204 374 l 204 392 b 35 715 125 479 35 588 b 42 822 35 751 35 789 b 43 831 42 824 42 826 b 44 842 43 836 44 840 b 46 846 44 843 44 844 b 17 785 32 826 22 806 z m 206 -26 b 158 -12 188 -25 172 -17 b 140 -6 151 -10 146 -6 b 42 182 57 29 49 107 b 40 214 42 188 42 201 b 39 240 40 225 39 238 l 40 292 l 14 292 l 11 289 l 11 185 b 14 129 11 178 14 139 b 94 -35 21 63 28 -7 b 158 -54 115 -42 139 -54 l 178 -54 l 178 -117 b 206 -125 176 -133 194 -126 b 213 -104 213 -124 211 -115 l 213 -94 b 206 -58 207 -89 204 -78 z m 351 607 b 356 615 351 607 356 611 b 358 629 356 618 358 626 l 358 635 l 294 635 l 294 607 z m 322 -24 l 310 -26 l 296 -26 l 296 -40 b 322 -24 306 -36 314 -31 z "},"%":{"ha":844,"x_min":0,"x_max":0,"o":"m 213 390 b 350 474 289 390 319 426 b 363 503 356 482 356 494 l 368 568 l 368 869 b 363 890 368 871 365 886 b 276 975 350 922 325 965 b 221 978 258 978 236 978 l 189 978 b 157 968 175 978 167 972 b 65 793 78 936 71 853 b 63 607 65 765 63 635 l 63 600 b 81 471 65 554 69 515 b 139 404 90 443 111 422 b 189 390 150 394 172 390 z m 281 17 b 304 -17 274 -12 278 -17 b 329 4 319 -17 324 -8 b 364 129 336 21 361 113 b 536 808 388 215 515 724 b 578 969 542 833 572 946 l 572 976 l 542 976 b 525 964 532 974 531 974 b 369 371 501 872 393 464 b 315 151 354 313 324 183 z m 179 782 b 183 858 179 794 183 846 b 186 865 183 861 186 865 b 201 878 188 867 199 878 b 221 882 201 878 215 882 l 224 882 b 257 854 243 882 257 867 l 257 736 b 254 578 257 711 254 601 b 251 521 254 569 251 529 b 218 486 251 506 243 486 b 179 508 201 486 183 494 z m 478 88 b 483 67 478 86 481 71 b 569 -18 496 35 521 -8 b 625 -21 588 -21 610 -21 l 657 -21 b 689 -11 671 -21 679 -15 b 781 164 768 21 783 104 b 779 418 779 272 782 349 b 657 567 774 521 719 567 l 633 567 b 496 483 557 567 526 531 b 483 454 490 475 490 463 l 478 389 z m 589 103 l 589 221 b 592 379 589 246 592 356 b 594 436 592 388 594 428 b 628 471 594 451 603 471 b 667 449 644 471 663 463 l 667 175 b 663 99 667 163 663 111 b 660 92 663 96 660 92 b 644 79 658 90 647 79 b 625 75 644 79 631 75 l 622 75 b 589 103 603 75 589 90 z m 157 335 b 253 367 201 335 231 347 b 213 363 240 364 226 363 l 189 363 b 124 381 169 363 140 367 b 57 454 93 401 67 425 b 35 599 42 513 38 554 l 35 607 b 36 701 35 621 35 661 b 38 796 36 732 38 785 b 49 874 40 819 42 846 b 10 738 18 833 14 779 b 7 551 10 710 7 579 l 7 544 b 25 415 10 499 14 460 b 83 349 35 388 56 367 b 133 335 94 339 117 335 z m 422 32 b 428 11 422 31 425 15 b 514 -74 440 -21 465 -64 b 569 -76 532 -76 554 -76 l 601 -76 b 633 -67 615 -76 624 -71 b 665 -49 646 -61 656 -56 l 657 -49 l 625 -49 b 564 -46 607 -49 582 -49 b 460 51 504 -33 475 13 b 450 88 454 60 450 85 l 450 353 l 422 246 z m 289 158 b 308 238 293 172 300 203 l 343 378 l 358 438 b 339 415 353 429 346 422 l 314 315 b 260 96 299 257 268 128 l 225 -39 b 249 -72 218 -68 222 -72 b 274 -51 264 -72 268 -64 b 276 -43 274 -49 275 -46 b 254 24 246 -39 243 -24 z m 207 515 b 218 514 210 515 215 514 b 224 521 222 514 224 518 b 225 551 224 525 224 540 b 226 578 225 564 226 574 b 228 656 226 589 228 622 b 229 736 229 689 229 724 l 229 854 l 221 854 b 211 851 219 854 215 853 l 208 817 b 207 782 207 803 207 786 z m 636 107 b 635 104 636 107 635 106 b 636 139 635 113 635 125 b 639 175 638 154 639 171 l 639 442 b 628 443 636 442 631 443 b 622 436 624 443 622 439 b 621 404 622 432 621 417 b 619 379 619 392 619 382 b 618 300 619 368 618 333 b 617 221 617 267 617 233 l 617 103 l 625 103 b 635 104 625 103 631 103 l 640 107 b 638 108 638 107 638 108 z m 469 908 b 396 628 458 864 426 747 l 396 579 l 433 722 b 486 921 453 797 474 869 b 469 908 476 918 475 918 z "},"&":{"ha":692,"x_min":0,"x_max":0,"o":"m 404 67 b 517 -14 428 38 454 -14 b 650 211 663 -14 649 193 b 638 229 650 218 646 228 l 547 228 b 508 138 517 225 554 138 b 468 181 496 138 479 161 b 554 438 507 279 554 431 l 553 438 b 554 442 554 439 554 440 b 544 450 554 446 551 449 l 456 457 l 451 457 b 438 444 444 457 440 453 b 406 325 432 431 419 378 l 397 324 b 315 501 358 408 315 494 b 456 693 315 532 456 578 b 457 813 456 708 457 792 b 285 986 457 932 367 986 b 83 786 79 986 83 818 b 165 540 83 699 165 553 b 46 372 165 536 56 472 b 40 224 42 325 40 269 b 251 -18 40 68 110 -18 b 394 65 321 -18 344 0 z m 269 619 b 214 808 253 619 214 731 b 272 860 214 842 247 860 b 299 856 288 860 299 856 b 332 814 314 846 329 832 b 332 707 335 792 332 731 b 269 619 332 668 297 619 z m 167 222 l 167 336 b 222 432 167 375 182 413 l 340 176 b 275 114 326 142 306 114 l 272 114 b 167 222 232 114 167 110 z m -10 317 b -15 168 -14 269 -15 214 b 196 -74 -15 13 54 -74 b 292 -43 240 -74 265 -65 b 251 -46 281 -44 267 -46 b 13 224 92 -46 13 50 b 18 375 13 271 14 328 b 22 399 18 383 19 392 b -10 317 6 375 -7 347 z m 28 731 b 96 518 28 665 72 569 b 132 550 108 532 122 542 l 125 565 b 56 786 100 621 56 719 b 63 860 56 797 56 826 b 28 731 26 810 28 749 z m 310 176 l 211 390 b 194 336 197 375 194 357 l 194 315 l 275 142 b 310 176 288 142 300 157 z m 517 -42 b 399 25 454 -42 422 -6 b 364 -10 386 10 375 0 b 461 -69 385 -37 411 -69 b 539 -40 494 -69 521 -57 b 517 -42 532 -40 525 -42 z m 243 800 b 276 758 258 790 274 776 b 276 651 279 736 276 675 l 276 649 b 304 707 290 657 304 683 l 304 811 b 286 831 301 818 294 824 b 272 832 285 831 281 832 b 242 808 260 832 242 824 l 242 800 z "},"'":{"ha":275,"x_min":0,"x_max":0,"o":"m 97 656 l 174 656 l 182 663 b 207 926 182 663 207 899 l 210 951 b 194 965 206 958 201 965 l 83 969 b 72 954 79 969 72 958 l 68 911 b 86 704 68 865 86 711 l 90 663 z m 64 650 l 58 701 b 56 736 58 703 57 719 b 40 913 50 786 40 875 l 28 914 b 17 899 24 914 17 903 l 13 856 b 31 649 13 810 31 656 l 35 607 l 42 600 l 118 600 l 126 607 b 129 628 126 607 128 615 l 86 628 z "},"(":{"ha":346,"x_min":0,"x_max":0,"o":"m 176 -65 l 183 -72 l 285 -72 l 293 -65 b 193 463 251 67 193 219 b 304 1021 193 726 275 917 b 289 1035 300 1028 296 1035 l 192 1039 b 181 1024 188 1039 181 1028 b 56 468 138 928 56 726 b 176 -65 56 154 176 -65 z m 151 -79 b 28 468 151 -79 28 146 b 132 982 28 690 86 872 l 122 983 b 111 968 118 983 111 972 b 0 413 68 872 0 671 b 121 -121 0 99 121 -121 l 128 -128 l 229 -128 l 238 -121 l 231 -100 l 172 -100 z "},")":{"ha":346,"x_min":0,"x_max":0,"o":"m 53 -65 l 61 -72 l 163 -72 l 169 -65 b 290 468 169 -65 290 154 b 165 1024 290 726 208 928 b 154 1039 165 1028 158 1039 l 57 1035 b 42 1021 50 1035 46 1028 b 153 463 71 917 153 726 b 53 -65 153 219 94 67 z m 39 -15 b 125 463 79 107 125 249 b 36 944 125 672 72 835 l 25 979 l 1 979 b -14 965 -6 979 -10 972 b 97 407 15 861 97 671 b -14 -121 97 164 28 11 l -6 -128 l 107 -128 l 114 -121 b 124 -100 114 -121 118 -112 l 54 -100 l 19 -81 z "},"*":{"ha":483,"x_min":0,"x_max":0,"o":"m 185 596 l 271 594 l 278 594 b 299 607 285 594 299 594 l 288 707 b 357 653 314 689 351 657 b 368 649 357 653 364 650 b 375 646 371 647 375 646 b 383 649 376 644 383 649 l 435 756 l 333 801 b 415 838 363 819 410 832 b 425 844 415 838 422 842 b 431 849 428 846 431 849 b 432 860 433 851 432 860 l 378 964 l 288 896 l 299 981 b 297 993 299 981 297 989 b 296 1000 296 996 296 1000 b 289 1008 296 1004 289 1008 l 181 1006 l 192 894 b 106 963 160 915 114 956 l 100 958 l 56 875 l 53 869 b 51 843 49 861 42 849 l 143 801 b 46 761 111 782 56 765 l 46 754 l 86 668 l 90 663 b 110 647 94 654 100 640 l 192 708 b 179 600 192 678 181 610 z m -10 706 l -10 699 l 31 613 l 35 607 b 54 592 39 599 44 585 l 88 617 b 65 650 78 622 71 636 b 64 651 65 651 64 651 l 31 719 z m 151 589 b 153 611 151 590 153 608 l 158 649 l 135 631 b 124 544 132 597 125 551 l 129 540 l 215 539 l 222 539 b 243 551 229 539 243 539 l 240 567 l 175 568 z m -3 814 b -4 788 -7 806 -14 793 l 18 776 l 18 781 l 51 793 b 78 801 72 800 53 786 l 39 819 b 18 854 21 829 17 842 l 0 819 z m 328 593 l 344 626 b 343 628 343 626 343 628 l 329 639 b 324 643 328 639 326 640 l 326 610 b 324 590 326 601 325 596 b 328 593 325 592 328 593 z "},"+":{"ha":483,"x_min":0,"x_max":0,"o":"m 192 301 l 301 304 l 301 454 b 403 456 343 454 393 456 b 414 457 403 456 410 457 b 421 458 417 458 421 458 b 428 465 424 458 428 465 l 425 575 l 301 575 b 303 724 301 622 300 707 l 297 728 l 210 729 l 203 729 b 182 718 196 729 182 729 b 181 575 182 703 181 629 b 61 576 138 575 76 574 l 57 571 l 56 483 l 56 476 b 67 456 56 469 56 456 b 181 454 81 456 135 456 b 182 326 181 403 182 336 b 183 315 182 326 183 319 b 185 308 185 313 185 308 b 192 301 185 306 192 301 z m 178 278 b 157 307 178 278 157 290 b 156 308 157 307 156 307 b 154 321 156 314 154 321 l 154 349 b 153 428 154 375 153 392 b 67 428 115 429 78 428 b 28 476 28 428 28 460 l 28 483 l 28 519 b 6 521 19 519 10 519 l 1 515 l 0 428 l 0 421 b 11 400 0 414 0 400 b 125 399 25 400 79 400 b 126 271 125 347 126 281 b 128 260 126 271 128 264 b 129 253 129 257 129 253 b 136 246 129 250 136 246 l 246 249 l 246 275 l 192 274 z m 147 674 b 126 663 140 674 126 674 b 125 601 126 654 125 629 b 146 603 131 601 139 603 l 153 603 b 154 674 153 624 154 653 z m 347 400 b 358 401 347 400 354 401 b 365 403 361 403 365 403 b 372 410 368 403 372 410 l 371 428 b 329 426 358 426 351 426 l 329 400 z "},",":{"ha":272,"x_min":0,"x_max":0,"o":"m 65 7 l 75 -1 l 122 -1 l 125 -11 l 51 -179 l 60 -194 l 115 -193 l 142 -178 l 210 -14 b 211 147 210 -14 210 67 l 197 156 l 65 156 l 61 140 l 61 57 z m 33 54 l 33 100 l 10 100 l 6 85 l 6 1 l 10 -49 l 19 -57 l 53 -57 l 56 -67 l -18 -235 l -10 -250 l 60 -249 l 86 -233 l 90 -221 l 44 -222 l 19 -183 l 88 -29 l 64 -29 l 39 -6 z "},"-":{"ha":447,"x_min":0,"x_max":0,"o":"m 389 561 b 375 575 389 571 385 575 l 218 575 b 81 576 214 575 101 574 l 76 571 l 75 483 l 75 476 b 86 456 75 469 75 456 b 232 454 108 456 210 454 b 367 456 246 454 351 456 b 378 457 367 456 374 457 b 385 458 381 458 385 458 b 392 465 388 458 392 465 z m 25 521 l 21 515 l 19 428 l 19 421 b 31 400 19 414 19 400 b 176 399 53 400 154 399 b 311 400 190 399 296 400 b 322 401 311 400 318 401 b 329 403 325 403 329 403 b 336 410 332 403 336 410 l 335 426 l 297 426 l 158 426 b 86 428 128 426 97 428 b 47 476 47 428 47 460 l 47 483 l 47 519 b 25 521 38 519 29 519 z "},".":{"ha":272,"x_min":0,"x_max":0,"o":"m 65 7 l 75 -1 l 199 -1 l 210 7 b 211 147 210 7 210 67 l 197 156 l 65 156 l 61 140 l 61 57 z m 33 54 l 33 100 l 10 100 l 6 85 l 6 1 l 10 -49 l 19 -57 l 143 -57 l 154 -49 l 154 -29 l 64 -29 l 39 -6 z "},"/":{"ha":432,"x_min":0,"x_max":0,"o":"m 36 -57 b 110 -65 28 -74 101 -56 b 135 -44 117 -58 128 -56 b 179 129 139 -26 176 113 b 360 860 203 215 336 775 l 397 1021 l 392 1028 l 319 1028 b 303 1015 310 1025 308 1025 b 117 285 279 924 138 378 b 85 151 114 278 93 183 z m 57 157 l 75 229 l 74 228 b 89 290 78 249 85 269 b 260 958 107 369 215 785 l 263 972 l 258 972 b 242 960 249 969 247 969 b 56 229 218 868 76 322 b 24 96 53 222 32 128 l -25 -112 b 49 -121 -33 -129 40 -111 b 74 -100 56 -114 67 -111 b 75 -92 74 -99 75 -94 l 74 -92 b 11 -46 31 -94 -7 -93 z "},":":{"ha":272,"x_min":0,"x_max":0,"o":"m 69 518 l 199 518 l 210 526 b 210 642 210 526 208 561 l 197 675 l 65 675 l 61 660 l 61 576 l 60 526 z m 65 7 l 75 -1 l 199 -1 l 210 7 b 211 147 210 7 210 67 l 197 156 l 65 156 l 61 140 l 61 57 z m 33 54 l 33 100 l 10 100 l 6 85 l 6 1 l 10 -49 l 19 -57 l 143 -57 l 154 -49 l 154 -29 l 64 -29 l 39 -6 z m 32 515 l 33 576 l 33 619 l 10 619 l 6 604 l 6 521 l 4 471 l 14 463 l 143 463 l 154 471 b 153 490 154 471 153 478 l 60 490 z "},";":{"ha":272,"x_min":0,"x_max":0,"o":"m 69 518 l 199 518 l 210 526 b 210 642 210 526 208 561 l 197 675 l 65 675 l 61 660 l 61 576 l 60 526 z m 65 7 l 75 -1 l 122 -1 l 125 -11 l 51 -179 l 60 -194 l 115 -193 l 142 -178 l 210 -14 b 211 147 210 -14 210 67 l 197 156 l 65 156 l 61 140 l 61 57 z m 33 54 l 33 100 l 10 100 l 6 85 l 6 1 l 10 -49 l 19 -57 l 53 -57 l 56 -67 l -18 -235 l -10 -250 l 60 -249 l 86 -233 l 90 -221 l 44 -222 l 19 -183 l 88 -29 l 64 -29 l 39 -6 z m 32 515 l 33 576 l 33 619 l 10 619 l 6 604 l 6 521 l 4 471 l 14 463 l 143 463 l 154 471 b 153 490 154 471 153 478 l 60 490 z "},"<":{"ha":483,"x_min":0,"x_max":0,"o":"m 393 217 b 404 213 393 217 400 214 b 411 210 407 213 411 210 b 419 213 413 208 419 213 l 419 322 b 408 343 419 332 415 339 l 160 524 l 411 699 b 422 722 411 699 422 708 l 424 826 b 401 833 424 836 410 839 l 71 593 l 51 567 b 60 458 50 461 50 464 z m 43 436 b 24 501 26 446 24 447 l 24 543 l 15 538 l -4 511 b 4 403 -6 406 -6 408 l 338 161 b 349 157 338 161 344 158 b 356 154 351 157 356 154 b 364 157 357 153 364 157 l 364 203 z "},"=":{"ha":483,"x_min":0,"x_max":0,"o":"m 425 700 l 226 700 b 61 701 222 700 82 699 l 57 696 l 56 608 l 56 601 b 67 581 56 594 56 581 b 240 579 89 581 218 579 b 403 581 254 579 388 581 b 414 582 403 581 410 582 b 421 583 417 583 421 583 b 428 590 424 583 428 590 z m 425 450 l 226 450 b 61 451 222 450 82 449 l 57 446 l 56 358 l 56 351 b 67 331 56 344 56 331 b 240 329 89 331 218 329 b 403 331 254 329 388 331 b 414 332 403 331 410 332 b 421 333 417 333 421 333 b 428 340 424 333 428 340 z m 6 396 l 1 390 l 0 303 l 0 296 b 11 275 0 289 0 275 b 185 274 33 275 163 274 b 347 275 199 274 332 275 b 358 276 347 275 354 276 b 365 278 361 278 365 278 b 372 285 368 278 372 285 l 371 301 l 318 301 l 153 301 b 32 303 115 301 43 303 l 28 351 l 28 358 l 28 394 b 6 396 18 394 10 394 z m 6 646 l 1 640 l 0 553 l 0 546 b 11 525 0 539 0 525 b 185 524 33 525 163 524 b 347 525 199 524 332 525 b 358 526 347 525 354 526 b 365 528 361 528 365 528 b 372 535 368 528 372 535 l 371 551 l 318 551 l 153 551 b 29 553 115 551 40 553 l 28 601 l 28 608 l 28 644 b 6 646 18 644 10 644 z "},">":{"ha":483,"x_min":0,"x_max":0,"o":"m 72 214 l 403 454 l 422 481 b 414 589 424 586 424 583 l 81 831 b 69 835 81 831 74 833 b 63 838 67 835 63 838 b 54 835 61 839 54 835 l 54 725 b 65 704 54 715 58 708 l 314 524 l 63 349 b 51 325 63 349 51 339 l 50 221 b 72 214 50 211 64 208 z m 14 779 b 7 782 11 779 7 782 b -1 779 6 783 -1 779 l -1 669 b 10 649 -1 660 3 653 l 224 493 l 268 524 b 49 682 194 578 122 628 b 26 725 38 692 26 707 l 29 772 l 25 775 b 14 779 25 775 18 778 z m 17 158 l 53 185 b 22 221 36 189 22 201 l 24 304 l 7 293 b -4 269 7 293 -4 283 l -6 165 b 17 158 -6 156 8 153 z "},"?":{"ha":515,"x_min":0,"x_max":0,"o":"m 174 274 l 279 274 l 288 283 b 286 322 286 299 286 318 l 286 329 b 357 483 286 386 308 436 b 453 664 406 532 451 597 l 453 761 b 344 972 453 854 436 929 b 171 969 292 999 224 983 b 111 940 151 961 128 957 b 63 819 79 908 71 864 l 63 656 l 71 649 l 196 649 l 196 807 b 207 840 196 807 203 832 b 251 864 215 860 236 864 b 308 819 272 864 308 844 l 317 729 b 313 675 317 729 313 679 b 278 600 308 651 293 619 b 161 293 154 443 163 471 z m 153 7 l 163 -1 l 286 -1 l 297 7 b 299 147 297 7 297 67 l 285 156 l 153 156 l 149 140 l 149 57 z m 7 764 l 7 600 l 15 593 l 140 593 l 140 621 l 64 621 l 35 638 l 35 825 b 44 871 38 840 40 856 b 7 764 21 840 14 803 z m 121 54 l 121 100 l 97 100 l 93 85 l 93 1 l 97 -49 l 107 -57 l 231 -57 l 242 -49 l 242 -29 l 151 -29 l 126 -6 z m 133 283 l 133 324 b 139 436 133 376 133 410 b 106 238 103 383 106 357 l 118 218 l 224 218 l 232 228 b 231 246 231 233 231 239 l 158 246 z m 253 764 l 261 674 b 257 619 261 674 257 624 l 257 618 b 285 676 268 633 281 660 b 289 729 285 688 289 729 l 281 817 b 251 836 281 828 263 836 b 232 829 244 836 235 835 l 232 828 b 224 806 229 821 224 806 l 224 800 b 253 764 239 793 253 779 z "},"@":{"ha":633,"x_min":0,"x_max":0,"o":"m 44 733 b 58 818 46 761 50 790 b 17 678 32 776 18 726 l 15 188 b 267 -68 14 40 106 -68 b 393 -32 322 -68 363 -53 b 322 -40 372 -37 349 -40 b 43 243 143 -40 42 79 z m 478 331 b 478 610 481 419 478 560 l 478 633 b 475 740 478 664 475 714 b 335 894 475 813 435 894 b 226 861 286 894 251 881 b 279 867 242 864 260 867 b 388 828 325 867 361 851 b 469 651 458 794 469 706 l 468 331 z m 229 135 b 299 163 263 135 283 146 l 285 163 b 163 249 213 163 178 200 l 163 244 b 193 139 163 204 174 168 b 229 135 203 136 215 135 z m 406 140 b 438 144 417 140 428 142 b 468 161 447 158 453 164 b 475 168 471 164 472 167 l 461 168 b 379 204 428 168 400 183 b 339 172 368 192 356 181 b 406 140 354 156 378 140 z m 296 332 b 311 311 296 322 297 311 b 322 358 322 311 322 339 l 322 463 b 296 408 304 451 296 444 z m 301 675 b 315 708 301 699 304 708 b 324 693 322 708 324 701 l 324 643 b 299 593 324 613 311 600 z m 215 560 l 218 563 l 218 588 l 186 588 b 164 624 172 599 167 613 l 161 560 z m 71 243 b 322 -12 69 96 161 -12 b 514 100 438 -12 492 54 b 506 119 514 100 522 113 l 471 135 b 458 126 465 136 464 135 b 321 47 439 93 400 47 b 135 244 210 47 135 132 l 132 400 b 139 732 132 476 139 706 b 335 922 139 760 156 922 b 501 740 454 922 501 825 b 503 610 501 703 503 617 b 500 340 503 611 500 438 b 478 275 500 289 489 275 b 444 315 460 275 447 286 l 444 651 b 319 815 444 711 426 815 b 190 639 194 815 190 711 b 197 615 190 631 192 621 l 271 615 l 274 618 l 274 675 b 315 736 274 718 281 736 b 351 693 346 736 351 715 l 351 643 b 292 561 351 585 317 568 b 178 413 194 533 178 475 l 178 340 b 285 190 178 274 193 190 b 379 253 340 190 360 222 b 461 196 389 228 421 196 b 564 342 533 196 564 254 l 563 742 b 326 982 563 896 467 982 b 72 733 158 982 76 858 z m 268 408 b 314 492 268 467 283 472 b 343 519 324 497 335 507 l 350 517 l 350 358 b 311 283 350 328 350 283 b 268 332 271 283 268 310 z "},"A":{"ha":501,"x_min":0,"x_max":0,"o":"m 329 975 l 175 975 b 157 932 164 975 157 950 b 57 142 126 661 86 414 b 42 11 51 99 42 54 b 64 4 47 1 57 4 b 133 8 88 4 111 4 b 179 176 178 8 150 138 b 290 172 188 176 250 172 b 317 54 314 172 314 86 b 329 0 317 24 329 0 b 458 11 353 0 458 0 b 454 35 461 13 454 21 b 439 168 447 81 443 122 b 417 340 435 183 419 325 b 336 967 388 558 368 749 z m 321 735 b 314 746 314 735 314 738 b 325 753 314 750 317 753 b 332 750 329 753 332 753 b 321 735 332 742 329 735 z m 194 292 b 188 303 193 292 183 299 b 194 367 188 325 190 344 b 229 658 206 464 217 563 l 236 667 b 271 432 263 654 265 494 b 286 299 271 394 286 344 b 275 283 286 294 282 283 z m 101 876 b 1 86 71 606 31 358 b -14 -44 -4 43 -14 -1 b 8 -51 -8 -54 1 -51 b 78 -47 32 -51 56 -51 b 100 -24 89 -47 96 -37 l 60 -24 b 14 4 46 -24 31 -31 b 24 106 14 50 19 75 l 29 144 b 82 564 44 281 65 433 b 128 919 97 681 114 797 l 119 919 b 101 876 108 919 101 894 z m 235 117 b 261 -1 258 117 258 31 b 274 -56 261 -32 274 -56 b 403 -44 297 -56 403 -56 b 399 -24 406 -43 399 -36 b 313 -28 363 -28 326 -28 b 289 54 313 -28 289 17 b 288 74 289 60 288 65 b 289 144 285 100 282 140 b 199 147 261 144 221 146 l 196 147 b 192 117 193 139 192 129 z m 229 376 b 236 314 229 358 233 336 l 256 313 b 249 368 254 331 251 350 l 249 367 b 242 432 244 389 242 410 l 239 481 l 236 508 l 226 415 b 229 376 226 400 228 388 z "},"B":{"ha":501,"x_min":0,"x_max":0,"o":"m 46 50 b 44 118 46 54 44 81 b 39 546 43 228 39 446 l 39 933 l 14 933 l 11 925 l 11 490 b 18 -4 11 357 18 11 l 22 -58 l 274 -58 b 286 -54 274 -58 282 -54 b 310 -42 290 -50 306 -42 l 324 -31 l 51 -31 z m 278 358 b 225 426 278 421 258 426 l 225 397 b 244 385 233 394 240 390 b 256 357 247 378 256 361 b 258 308 256 354 258 319 l 258 140 b 278 163 267 144 272 151 z m 218 822 l 218 786 b 232 763 224 779 229 771 b 236 642 232 743 236 661 l 236 590 b 256 606 246 593 256 599 l 256 707 b 240 824 256 758 256 824 b 233 822 238 824 235 822 z m 78 -3 l 329 -3 b 342 1 329 -3 338 1 b 365 14 346 6 361 14 b 446 247 435 60 446 172 b 435 386 446 293 446 340 b 408 453 431 406 419 436 b 381 481 408 457 389 472 b 346 514 372 488 346 499 b 365 533 346 526 357 526 b 381 553 365 533 376 550 b 389 565 381 557 389 565 b 419 701 413 611 419 646 b 404 888 419 763 415 825 l 396 899 b 381 926 396 903 385 922 b 346 961 376 931 353 953 b 303 981 333 972 314 976 b 210 989 303 981 303 985 l 69 989 l 67 981 l 67 546 b 74 51 67 413 74 67 z m 199 840 b 236 856 199 860 225 856 b 260 851 244 856 253 860 b 288 818 272 844 283 833 b 292 697 288 799 292 717 l 292 611 b 288 600 292 607 288 600 b 221 565 272 576 253 565 b 199 581 213 565 199 569 z m 206 122 l 206 440 b 213 460 206 444 206 457 l 232 460 b 300 440 249 460 288 460 b 311 413 303 433 311 417 b 314 364 311 410 314 375 l 314 161 b 236 114 300 126 276 114 b 210 118 225 114 221 111 z "},"C":{"ha":481,"x_min":0,"x_max":0,"o":"m 135 19 l 146 13 b 243 -7 179 -3 210 -7 b 408 76 315 -7 379 6 b 439 204 428 121 439 156 l 439 343 l 432 347 b 379 350 432 347 394 350 l 326 350 l 322 347 l 322 158 b 307 132 322 158 311 140 b 256 107 296 118 274 107 b 194 174 214 107 199 136 b 192 729 194 257 192 647 l 192 760 b 247 865 192 804 188 865 b 296 790 293 865 296 824 l 296 660 l 310 646 l 374 646 b 411 661 385 646 411 642 b 407 688 411 668 407 675 b 414 706 407 694 407 699 b 403 879 413 761 417 839 b 375 925 400 888 379 921 b 333 967 371 932 342 958 b 247 989 307 985 278 989 b 124 940 183 989 168 978 l 119 936 b 64 756 82 883 64 819 l 64 189 b 67 158 64 189 67 167 b 135 19 75 99 90 61 z m 115 -1 b 39 154 65 44 49 86 b 36 186 39 164 36 186 l 36 756 b 53 864 36 792 42 829 b 8 700 22 814 8 757 l 8 133 b 11 103 8 133 11 111 b 79 -36 19 43 35 6 l 90 -43 b 188 -62 124 -58 154 -62 b 319 -26 239 -62 286 -56 b 243 -35 296 -32 269 -35 b 133 -12 206 -35 171 -29 l 122 -6 z m 240 735 l 240 604 b 254 590 240 594 244 590 l 318 590 b 356 606 329 590 356 586 b 353 618 356 608 354 613 l 310 618 b 268 660 281 618 268 631 l 268 790 b 247 838 268 811 267 838 b 221 801 229 838 222 821 b 240 735 239 788 240 758 z m 267 292 l 267 136 b 282 144 272 139 278 140 b 294 167 286 153 294 167 l 294 294 l 271 294 z "},"D":{"ha":489,"x_min":0,"x_max":0,"o":"m 78 -3 l 103 -3 b 172 1 129 -3 147 -3 l 194 -3 l 199 1 b 272 4 208 1 261 4 b 331 15 290 4 315 8 b 422 181 417 60 422 125 b 424 778 422 282 424 740 b 371 939 424 836 411 894 b 344 961 364 946 356 957 b 272 975 324 972 294 975 l 78 975 b 63 968 74 975 67 972 l 63 663 b 67 579 63 651 67 590 l 67 75 b 69 38 67 72 69 46 b 78 -3 69 26 67 6 z m 190 129 l 190 133 b 194 846 190 176 194 803 b 221 857 199 861 213 857 b 294 807 254 857 290 843 b 297 685 297 758 297 729 b 294 167 297 656 297 196 b 217 111 286 126 258 111 b 190 129 206 111 190 115 z m 160 150 b 153 161 153 150 153 154 b 164 169 153 165 156 169 b 171 165 168 169 171 169 b 160 150 171 158 168 150 z m 61 -25 b 42 32 38 -8 42 15 l 42 38 b 40 60 42 42 42 50 b 39 75 40 65 39 74 l 39 579 b 36 618 39 585 38 600 b 35 663 35 636 35 657 l 35 919 l 22 919 b 7 913 18 919 11 917 l 7 607 b 11 524 7 596 11 535 b 22 -44 13 329 4 136 b 36 -58 22 -54 26 -58 l 47 -58 b 117 -54 74 -58 92 -58 l 139 -58 l 143 -54 b 217 -51 153 -54 206 -51 b 275 -40 235 -51 260 -47 b 307 -19 288 -33 297 -26 b 272 -24 294 -22 282 -24 b 236 -25 267 -24 253 -24 b 210 -26 221 -25 214 -26 l 203 -33 l 171 -28 b 103 -31 147 -32 131 -31 l 78 -31 z m 239 751 b 242 629 242 703 242 674 b 240 142 242 603 242 247 b 267 172 253 146 263 156 l 267 169 b 269 685 269 199 269 656 b 267 806 269 729 269 757 b 222 829 264 821 244 828 l 222 783 b 239 751 231 775 238 765 z "},"E":{"ha":418,"x_min":0,"x_max":0,"o":"m 67 53 b 96 -4 67 36 67 -4 b 199 18 119 -4 192 7 b 268 0 222 18 208 -6 b 282 3 274 1 282 4 b 300 -4 282 6 293 -1 b 353 -7 319 -4 336 -7 b 375 85 382 -7 375 75 l 375 110 l 367 113 b 208 115 313 113 224 115 b 194 149 194 119 194 142 l 194 443 b 215 457 194 454 208 457 b 314 454 247 457 281 454 b 321 465 318 457 321 461 l 321 560 b 303 569 321 569 311 569 l 206 569 b 190 746 189 569 190 700 b 199 851 190 767 185 814 l 356 851 b 364 863 360 854 361 861 l 364 964 l 356 971 b 74 979 301 978 161 979 l 67 975 z m 11 -3 b 40 -60 11 -19 11 -60 b 143 -37 64 -60 136 -49 b 213 -56 167 -37 153 -61 b 226 -53 218 -54 226 -51 b 244 -60 226 -50 238 -57 b 297 -62 264 -60 281 -62 b 318 -29 310 -62 315 -47 b 199 -11 296 -22 201 -33 b 96 -32 168 -24 115 -32 b 39 53 39 -32 39 28 l 39 924 l 18 924 l 11 919 z m 300 796 b 308 807 304 799 306 806 l 308 824 l 219 824 b 217 796 218 814 217 806 z m 258 399 b 265 410 263 401 265 406 l 265 426 b 261 428 264 426 263 428 b 222 429 247 428 235 429 l 222 399 z "},"F":{"ha":429,"x_min":0,"x_max":0,"o":"m 78 7 l 85 0 l 206 0 l 206 371 b 201 425 206 378 201 418 l 201 428 b 210 439 201 432 206 436 l 231 439 b 326 436 260 439 293 436 b 344 450 333 436 344 443 l 340 535 l 333 542 l 217 542 b 201 557 210 542 206 553 l 201 789 b 199 840 201 796 199 832 b 210 854 199 847 201 854 l 271 854 b 385 858 289 854 367 858 b 388 879 385 861 388 876 l 388 964 l 381 972 b 85 979 381 972 172 975 l 78 979 b 63 957 67 979 63 972 b 67 622 63 843 63 736 b 78 7 69 439 78 7 z m 50 7 b 39 621 50 7 42 438 b 35 918 35 718 35 819 l 28 918 l 24 915 b 19 629 24 871 19 674 b 18 565 19 610 18 588 b 4 -40 21 482 4 22 b 13 -57 4 -44 8 -57 l 131 -57 b 143 -28 142 -57 143 -42 l 74 -28 l 58 -12 z m 344 800 l 351 807 l 351 829 b 329 828 343 829 335 828 b 271 826 308 826 278 826 l 226 826 b 228 815 226 822 226 819 l 228 800 z m 293 378 l 293 408 b 272 410 285 408 278 408 b 231 411 257 410 244 411 l 229 411 b 231 400 229 407 229 404 b 233 378 231 390 232 383 z "},"G":{"ha":513,"x_min":0,"x_max":0,"o":"m 346 36 l 350 36 b 382 6 367 36 375 6 l 435 6 b 446 28 446 6 446 21 b 450 351 446 76 450 303 l 450 478 l 442 486 l 438 486 b 367 482 431 486 375 482 l 258 482 b 247 469 254 482 247 478 l 247 390 l 254 382 l 294 382 l 299 378 b 307 347 303 369 307 354 l 307 175 b 247 124 307 144 279 124 b 203 156 232 124 203 136 l 203 807 b 207 819 203 807 207 815 b 271 850 219 846 243 850 b 307 835 283 850 299 846 b 322 811 310 828 322 811 l 322 636 l 331 628 l 435 628 l 435 835 b 422 882 435 839 426 871 b 243 981 393 969 326 981 b 175 967 219 981 199 978 b 64 703 72 910 64 811 l 64 200 b 81 115 64 167 72 144 b 232 6 104 36 151 6 b 335 28 275 6 299 10 z m 349 0 b 346 3 347 0 347 1 b 232 -22 306 -17 279 -22 b 54 107 140 -22 82 19 l 50 119 b 36 200 43 146 36 168 l 36 703 b 42 806 36 738 36 774 b 18 639 22 756 18 697 l 10 142 b 25 58 8 110 17 86 b 174 -61 46 -21 93 -61 b 278 -33 218 -62 240 -53 l 289 -25 l 293 -26 b 325 -57 308 -26 317 -57 l 376 -58 b 388 -35 388 -58 388 -43 l 388 -22 l 382 -22 b 349 0 349 -22 357 -11 z m 267 775 b 282 753 271 768 282 753 l 279 567 l 288 558 l 386 557 l 386 600 l 319 600 l 294 625 l 297 803 b 283 819 297 803 286 813 b 271 822 281 822 276 822 b 235 813 254 822 242 824 b 231 799 233 807 231 799 l 231 793 b 267 775 243 792 258 786 z m 231 365 l 231 321 l 243 321 l 247 317 b 256 285 251 308 256 293 l 251 151 b 279 175 267 153 279 163 l 279 346 b 276 354 279 347 276 350 l 238 354 z "},"H":{"ha":508,"x_min":0,"x_max":0,"o":"m 69 17 b 175 0 65 0 164 10 b 196 21 182 7 192 10 b 199 129 196 39 199 113 b 203 415 199 172 203 374 b 213 426 203 418 206 426 l 294 426 b 306 411 299 426 306 415 l 306 335 b 301 85 306 250 301 169 l 301 76 b 306 10 301 67 306 21 b 311 0 306 10 308 0 l 428 0 l 432 3 b 435 53 432 3 435 39 l 435 76 b 439 169 435 92 439 156 b 442 693 439 246 442 617 l 442 961 l 435 968 b 338 971 435 968 365 971 l 329 971 b 315 964 326 971 315 968 l 306 606 l 301 560 b 292 550 301 553 294 550 l 263 550 b 210 553 249 550 225 550 l 203 560 b 199 810 203 599 199 771 l 199 964 l 192 971 l 108 971 l 104 968 l 104 954 b 90 940 104 951 90 940 b 79 894 79 925 79 908 b 69 285 76 803 69 378 z m 118 888 b 111 899 111 888 111 890 b 122 906 111 903 114 906 b 129 903 126 906 129 906 b 118 888 129 894 126 888 z m 42 285 b 51 896 42 378 49 804 l 51 915 l 35 913 l 35 899 b 35 885 35 896 35 885 b 24 839 24 869 24 853 b 14 229 21 747 14 322 l 14 -39 b 119 -56 10 -56 108 -46 b 140 -35 126 -49 136 -46 l 140 -22 l 126 -22 b 42 19 82 -21 31 -28 z m 239 371 b 250 356 243 371 250 360 l 250 279 b 246 29 250 194 246 114 l 246 21 b 250 -46 246 11 250 -35 b 256 -56 250 -46 253 -56 l 372 -56 l 376 -53 b 378 -28 376 -53 378 -40 l 311 -28 b 278 7 288 -28 278 7 b 275 42 278 13 276 28 b 274 76 274 56 274 72 l 274 85 b 275 211 274 126 274 169 b 278 335 276 253 278 292 l 278 399 l 231 399 l 231 371 z m 274 915 b 260 908 271 915 260 913 l 250 578 l 275 578 l 278 608 l 278 606 l 286 915 l 282 915 z "},"I":{"ha":272,"x_min":0,"x_max":0,"o":"m 71 -1 l 78 -8 l 189 -8 l 197 -1 b 200 233 197 -1 200 163 b 208 603 200 357 208 481 l 208 951 b 193 965 204 958 200 965 l 82 969 b 71 954 78 969 71 958 b 67 204 71 700 67 458 l 67 40 z m 39 38 l 39 204 b 40 579 39 331 39 456 b 43 913 42 689 43 800 l 26 914 b 15 899 22 914 15 903 b 11 149 15 644 11 403 l 11 -15 l 15 -57 l 22 -64 l 133 -64 l 142 -57 l 142 -36 l 67 -36 l 44 -14 z "},"J":{"ha":472,"x_min":0,"x_max":0,"o":"m 342 17 b 410 156 386 58 401 96 b 413 186 410 164 413 186 l 413 692 l 410 807 l 413 896 l 406 951 b 382 976 401 972 403 976 l 357 978 l 315 979 b 285 950 282 979 283 950 l 286 875 l 286 835 b 283 713 286 799 283 757 b 282 171 282 503 282 225 b 221 104 278 133 263 104 b 169 129 203 104 181 115 b 154 344 165 138 154 156 l 143 342 b 128 347 143 342 135 347 l 97 347 b 44 344 82 347 44 344 b 49 318 42 336 42 328 b 38 288 49 318 38 303 l 38 201 b 68 74 38 153 49 118 b 233 -10 97 3 161 -10 b 331 10 267 -10 297 -6 z m 229 894 l 231 819 l 231 779 b 228 657 231 743 228 701 b 226 132 226 454 226 199 b 254 171 242 135 250 151 b 256 713 254 283 254 585 b 257 782 256 728 256 769 b 258 835 257 796 258 822 l 258 875 l 257 924 b 229 894 226 922 228 894 z m 286 -39 l 294 -31 b 233 -37 274 -36 254 -37 b 43 63 153 -37 79 -17 b 10 201 24 110 10 150 l 10 288 l 10 290 b -11 289 0 289 -11 289 b -7 263 -14 281 -14 272 b -18 232 -7 263 -18 247 l -18 146 b 13 18 -18 97 -7 63 b 178 -65 42 -53 106 -65 b 275 -46 211 -65 242 -61 z "},"K":{"ha":508,"x_min":0,"x_max":0,"o":"m 71 4 l 78 -3 l 189 -3 l 197 4 b 200 239 197 4 200 168 b 203 361 200 296 194 333 b 239 272 210 382 239 296 l 307 13 b 310 -1 307 10 310 -1 b 328 -12 314 -8 321 -12 l 447 -12 b 389 242 453 -3 404 168 b 328 497 382 278 335 461 b 333 525 329 507 333 522 b 381 679 344 567 367 633 b 469 967 411 775 433 871 l 469 971 b 460 981 469 974 467 981 l 339 981 l 332 967 b 318 928 332 964 319 931 l 265 746 b 221 629 261 728 239 654 l 208 629 l 208 961 b 193 975 204 968 200 975 l 82 979 b 71 964 78 979 71 968 b 67 210 71 711 67 464 l 67 46 z m 39 43 l 39 210 b 42 588 39 338 40 463 b 43 922 43 699 43 810 l 26 924 b 15 908 22 924 15 913 b 11 154 15 656 11 408 l 11 -10 l 15 -51 l 22 -58 l 133 -58 l 142 -51 l 142 -31 l 67 -31 l 44 -8 z m 251 -43 b 254 -57 251 -46 254 -57 b 272 -68 258 -64 265 -68 l 392 -68 b 388 -40 393 -65 392 -56 l 328 -40 b 285 -12 311 -40 294 -29 b 279 13 285 -12 279 10 l 228 204 l 225 56 z m 276 922 l 274 911 b 260 872 274 908 261 875 l 233 781 l 236 740 l 239 751 l 288 925 l 281 925 z "},"L":{"ha":425,"x_min":0,"x_max":0,"o":"m 69 14 b 85 0 71 4 75 0 l 385 0 l 385 113 b 374 128 385 117 378 128 l 210 128 b 199 139 206 128 199 135 l 199 826 b 203 931 199 840 203 915 l 203 964 l 190 975 l 78 979 b 63 968 71 979 63 975 l 63 311 b 67 35 63 236 67 42 z m 39 35 l 39 67 b 35 311 38 131 35 258 l 35 922 l 22 924 b 7 913 15 924 7 919 l 7 256 b 11 -21 7 181 11 -14 l 14 -42 b 29 -56 15 -51 19 -56 l 329 -56 l 329 -28 l 85 -28 b 42 10 58 -28 46 -17 z "},"M":{"ha":706,"x_min":0,"x_max":0,"o":"m 185 -3 b 200 6 188 -3 196 1 l 200 44 b 188 596 200 228 188 410 l 188 633 l 192 640 b 215 572 215 633 211 592 b 269 232 235 453 254 349 b 304 10 281 160 296 82 l 311 1 l 378 1 b 385 10 378 1 385 6 b 389 32 385 13 389 29 l 393 51 b 401 108 393 56 401 106 b 417 221 404 147 413 183 b 465 596 432 344 450 472 b 469 618 465 599 469 615 b 478 626 469 626 474 626 b 485 622 481 626 485 626 l 489 568 l 489 21 b 500 -3 489 13 493 1 b 613 -7 517 -3 597 -7 l 617 -7 b 636 17 624 -7 636 6 l 636 47 b 628 344 636 147 636 244 l 619 907 l 617 961 b 604 972 617 965 608 972 l 417 972 b 350 564 393 972 374 564 b 339 575 343 564 343 568 b 281 915 319 679 296 810 b 269 972 281 931 276 961 l 261 976 l 153 976 b 85 972 142 976 96 972 b 69 953 72 968 69 965 l 69 942 b 72 826 69 931 72 838 b 81 113 76 588 76 351 l 81 51 b 89 13 81 47 85 21 b 96 1 89 13 92 1 z m 94 -26 b 64 0 75 -25 64 0 b 53 51 58 13 53 46 l 53 113 b 49 469 50 226 50 356 l 44 826 b 43 882 44 832 43 856 b 42 917 42 893 42 906 l 29 917 b 14 897 17 913 14 910 l 14 886 b 17 771 14 875 17 782 b 25 57 21 532 21 296 l 25 -4 b 33 -43 25 -8 29 -35 b 40 -54 33 -43 36 -54 l 129 -58 b 144 -50 132 -58 140 -54 l 144 -28 z m 444 -58 b 557 -62 461 -58 542 -62 l 561 -62 b 581 -39 568 -62 581 -50 l 581 -35 b 557 -33 572 -35 565 -33 b 493 -31 533 -32 500 -31 b 461 21 474 -18 461 4 l 461 349 l 444 218 b 438 168 443 203 440 183 l 433 142 l 433 -35 b 444 -58 433 -43 438 -54 z m 249 -46 l 256 -54 l 322 -54 b 329 -46 322 -54 329 -50 b 333 -26 329 -43 332 -32 l 294 -26 l 276 1 b 254 150 271 49 263 101 l 242 228 l 239 247 b 232 289 233 258 232 272 l 221 369 b 222 319 221 353 221 336 l 228 92 b 249 -46 235 46 243 -1 z m 333 765 b 347 689 338 740 342 714 b 356 771 349 714 353 742 b 374 917 361 822 365 875 l 361 917 b 333 765 351 917 342 847 z "},"N":{"ha":590,"x_min":0,"x_max":0,"o":"m 65 21 l 69 10 l 74 6 l 168 6 b 194 33 179 6 194 21 b 199 447 194 169 194 310 l 201 451 l 206 451 b 260 272 217 451 251 288 l 263 264 b 324 29 286 188 304 110 b 332 10 324 25 328 14 b 343 -1 335 6 343 -1 l 503 -1 l 510 6 b 521 675 510 6 517 474 b 525 921 521 758 525 838 l 525 956 b 506 971 521 963 517 971 l 400 971 l 393 963 l 393 614 b 389 447 393 599 389 463 l 389 344 b 381 340 389 340 385 340 b 369 356 374 340 369 349 b 365 379 369 360 365 375 b 354 424 365 386 358 417 b 267 747 324 529 293 640 l 232 890 b 206 975 229 899 210 975 b 93 978 164 975 135 978 b 78 947 81 978 78 956 b 65 79 74 660 74 367 z m 38 79 b 47 657 43 271 46 464 b 50 922 47 744 49 833 l 38 922 b 22 892 25 922 22 900 b 10 24 18 604 18 311 l 10 -35 l 14 -46 l 18 -50 l 113 -50 b 139 -22 124 -50 139 -35 l 63 -22 l 46 -6 l 38 14 z m 268 -26 b 276 -46 268 -31 272 -42 b 288 -57 279 -50 288 -57 l 447 -57 l 454 -50 l 454 -28 l 333 -26 b 308 -6 333 -26 311 -10 b 296 28 301 4 297 18 b 289 51 294 32 289 47 l 290 49 b 235 260 274 119 256 192 b 222 299 232 263 228 279 b 221 160 221 251 221 206 b 268 -26 238 99 253 36 z m 338 907 l 338 581 b 361 497 344 553 353 525 b 363 532 361 508 361 519 b 365 614 364 569 365 606 l 365 915 l 344 915 z "},"O":{"ha":514,"x_min":0,"x_max":0,"o":"m 154 10 b 190 -1 165 3 179 6 b 210 -12 194 -1 206 -12 l 283 -12 b 331 3 293 -12 319 -6 b 440 193 393 43 433 121 b 449 275 444 211 449 271 b 451 510 449 297 451 458 l 451 764 b 356 969 440 833 419 925 b 286 988 338 983 304 983 b 246 990 279 988 250 990 l 232 988 b 194 981 225 988 206 983 b 99 865 146 961 114 914 l 96 851 b 78 814 96 847 78 818 b 69 771 78 814 69 782 b 67 738 69 767 67 744 b 63 693 67 726 63 693 l 63 249 b 67 211 63 246 67 219 b 117 50 74 157 81 94 b 150 14 117 50 143 24 z m 199 628 b 201 818 199 657 201 789 b 257 858 206 843 232 858 b 283 854 261 858 275 858 l 304 833 l 308 825 b 315 796 308 822 315 800 b 311 311 315 722 311 385 b 308 197 311 297 308 215 b 261 121 308 161 304 121 l 246 121 b 217 135 246 121 225 132 b 201 157 210 139 201 150 b 199 193 201 161 199 186 z m 128 -3 b 89 39 121 7 89 39 b 39 207 54 82 47 149 b 36 233 39 213 38 224 l 38 231 b 35 249 35 242 35 247 l 35 696 b 39 738 35 696 39 729 b 40 763 39 742 39 754 b 42 771 40 764 42 771 b 50 818 42 782 50 818 b 61 844 51 826 56 835 b 68 851 64 850 68 851 l 71 867 b 43 810 58 849 49 829 l 40 796 b 22 758 40 792 22 763 b 14 715 22 758 14 726 b 11 682 14 711 11 689 b 7 638 11 671 7 638 l 7 193 b 11 156 7 190 11 164 b 61 -6 18 101 25 39 b 94 -42 61 -6 88 -32 l 99 -46 b 135 -57 110 -53 124 -50 b 154 -68 139 -57 150 -68 l 228 -68 b 275 -53 238 -68 264 -61 b 293 -39 281 -49 288 -44 b 283 -40 289 -40 286 -40 l 210 -40 b 185 -31 193 -40 188 -35 b 183 -29 185 -31 182 -29 l 165 -22 l 167 -24 b 138 -12 157 -22 151 -22 z m 249 778 l 253 769 b 260 740 253 767 260 744 b 256 256 260 667 256 329 b 253 149 256 243 253 174 l 261 149 b 281 197 279 149 281 174 b 282 263 281 207 281 236 b 283 311 282 278 283 306 b 285 553 283 347 283 450 b 288 793 286 644 288 757 b 283 807 286 793 285 801 l 285 806 b 282 814 283 808 282 811 b 279 819 281 815 279 818 l 269 829 b 257 831 265 831 260 831 b 229 817 247 831 233 824 l 229 797 z "},"P":{"ha":471,"x_min":0,"x_max":0,"o":"m 82 -3 l 107 -3 b 176 1 133 -3 151 -3 b 192 13 183 1 188 8 b 199 19 192 17 199 19 l 199 414 l 203 417 b 276 421 213 417 265 421 b 335 432 294 421 319 425 b 386 476 353 439 371 461 b 389 483 386 476 389 479 b 397 501 389 486 397 501 b 419 582 404 526 415 556 b 424 615 419 586 424 613 b 426 663 424 619 426 660 b 428 778 431 700 428 740 b 375 939 428 836 415 894 b 349 961 368 946 360 957 b 276 975 328 972 299 975 l 82 975 b 67 968 78 975 71 972 l 67 663 b 71 579 67 651 71 590 l 71 75 b 74 38 71 72 74 46 b 82 -3 74 26 71 6 z m 194 549 b 199 846 194 593 199 803 b 225 857 203 861 217 857 b 299 807 258 857 294 843 b 301 685 301 758 301 729 b 299 582 301 656 301 613 b 221 526 290 542 263 526 b 194 544 210 526 194 531 z m 65 -25 b 46 18 47 -12 46 3 l 46 38 b 43 75 46 43 43 68 l 43 579 b 39 663 43 589 39 650 l 39 921 l 22 921 b 7 901 18 921 11 906 l 7 608 b 11 525 7 597 11 536 l 11 21 b 14 -17 11 18 14 -8 b 22 -57 14 -28 11 -49 l 47 -57 b 117 -53 74 -57 92 -57 b 132 -42 124 -53 128 -46 b 139 -35 132 -37 139 -35 l 139 -31 l 107 -31 l 82 -31 z m 239 753 b 242 631 242 704 242 675 b 240 556 242 610 242 582 b 271 588 256 560 267 569 l 271 585 b 274 685 274 615 274 657 b 271 806 274 729 274 757 b 226 829 268 821 249 828 l 226 781 b 239 753 233 774 238 764 z m 275 378 b 300 393 283 381 292 386 b 226 389 281 389 257 389 l 226 367 b 275 378 243 368 263 372 z "},"Q":{"ha":506,"x_min":0,"x_max":0,"o":"m 210 -10 l 219 -39 l 232 -82 l 257 -167 b 260 -181 257 -169 260 -181 b 278 -192 264 -187 271 -192 l 357 -192 b 379 -161 378 -192 386 -182 l 358 -90 l 344 -56 l 338 -26 l 329 8 b 435 196 388 49 428 125 b 442 278 439 214 442 274 b 446 513 442 300 446 461 l 446 767 b 357 972 435 836 419 928 b 196 983 299 988 247 988 b 63 774 119 954 63 897 b 60 740 63 769 60 747 b 56 696 60 729 56 696 l 56 251 b 60 214 56 249 60 222 b 111 53 67 160 74 97 b 185 1 107 57 165 -11 b 203 -10 189 1 199 -10 z m 239 124 b 192 196 214 125 183 176 l 192 631 b 199 821 192 660 199 792 b 254 861 201 846 228 861 b 281 857 258 861 272 861 l 301 836 l 306 828 b 310 767 306 825 310 769 b 306 314 310 693 306 388 b 303 200 306 300 303 218 b 254 124 303 164 299 124 z m 189 -35 b 90 35 176 -31 121 -7 b 29 236 40 94 38 174 l 31 233 b 28 251 28 244 28 250 l 28 699 b 47 861 28 763 33 817 b 7 718 22 828 7 782 b 4 685 7 714 4 692 b 0 640 4 674 0 640 l 0 196 b 4 158 0 193 4 167 b 56 -3 11 104 18 42 b 129 -54 51 1 110 -67 b 147 -65 133 -54 143 -65 l 154 -65 l 164 -94 l 176 -137 l 201 -222 b 204 -236 201 -225 204 -236 b 222 -247 208 -243 215 -247 l 301 -247 b 324 -219 321 -247 329 -237 l 278 -219 b 229 -174 258 -219 229 -200 l 193 -47 z m 254 151 b 278 314 282 151 278 235 b 282 767 278 388 282 692 b 278 819 282 767 278 806 l 267 832 b 254 833 263 833 257 833 b 226 821 243 833 231 828 l 226 800 l 246 781 l 250 772 b 254 711 250 769 254 714 b 250 258 254 638 250 332 b 247 151 250 246 247 176 z "},"R":{"ha":522,"x_min":0,"x_max":0,"o":"m 208 415 b 204 440 208 418 204 436 b 219 454 204 450 208 454 b 307 386 238 454 307 449 b 314 131 307 360 314 233 b 328 0 314 90 313 39 l 447 0 b 474 8 456 0 472 -4 b 463 56 474 25 465 40 b 451 299 451 103 451 197 b 444 400 451 301 444 397 b 392 479 438 447 413 468 b 365 501 374 490 365 479 b 413 546 365 510 401 532 b 451 746 449 589 451 696 b 372 964 451 825 444 915 b 88 982 344 982 190 983 b 64 953 68 982 61 978 b 67 14 64 783 67 349 b 86 3 68 6 78 3 b 100 4 92 3 96 4 b 179 0 107 4 172 0 b 208 4 178 1 208 -3 z m 213 556 b 208 799 213 592 208 764 b 222 858 208 807 203 858 b 310 807 264 858 300 847 b 307 596 310 701 307 667 b 231 549 296 560 264 549 b 213 556 222 549 215 549 z m 8 897 b 11 -42 8 728 11 293 b 31 -53 13 -50 22 -53 b 44 -51 36 -53 40 -51 b 124 -56 51 -51 117 -56 b 153 -51 122 -54 153 -58 l 153 -28 b 136 -26 147 -28 142 -26 b 100 -24 118 -25 103 -24 l 94 -24 b 86 -25 92 -24 89 -25 b 39 10 67 -25 43 -17 b 38 631 39 206 39 439 b 36 926 38 754 36 856 l 32 926 b 8 897 13 926 6 922 z m 251 331 b 258 75 251 304 258 178 b 272 -56 258 35 257 -17 l 392 -56 b 418 -47 400 -56 417 -60 b 415 -28 418 -40 417 -33 l 308 -28 b 286 121 286 31 286 79 l 286 131 b 281 329 286 199 282 276 b 279 386 279 351 279 379 b 235 425 279 414 254 422 b 236 415 236 421 236 417 l 236 372 b 251 331 244 363 251 349 z m 254 751 b 251 578 254 667 251 626 b 279 601 264 582 274 589 b 281 679 279 632 281 654 b 282 806 282 713 282 747 b 225 831 274 824 250 831 b 236 807 232 828 235 814 l 236 799 l 236 783 b 254 751 244 775 250 765 z "},"S":{"ha":489,"x_min":0,"x_max":0,"o":"m 292 1 b 433 146 368 11 413 69 b 438 160 433 150 438 160 l 438 306 b 422 347 438 306 426 338 b 228 624 386 453 299 549 b 181 757 190 667 181 704 b 233 853 181 806 175 853 b 275 811 263 853 268 840 b 278 683 278 769 278 725 b 285 672 278 683 281 672 l 393 672 b 397 681 393 672 397 676 b 400 694 397 683 400 692 l 400 739 b 365 924 400 794 403 878 b 335 954 363 926 343 947 b 311 968 332 958 315 968 b 228 979 285 979 258 979 b 150 965 200 979 176 975 b 58 850 106 944 72 899 b 56 826 58 847 56 829 b 49 725 49 792 49 760 b 256 365 49 582 168 460 b 306 213 294 324 306 272 b 263 118 306 178 303 129 l 256 118 b 200 136 238 118 211 122 l 183 160 b 181 206 183 167 181 199 l 181 344 l 176 347 l 56 347 l 53 344 l 53 240 b 56 185 53 233 56 194 b 136 21 63 118 69 49 b 200 1 157 14 181 1 z m 3 794 b 0 771 3 792 0 774 b -7 669 -7 736 -7 704 b 140 375 -7 557 67 458 l 176 375 l 208 372 l 208 300 b 250 157 240 260 250 211 l 250 146 l 256 146 l 260 146 b 278 213 275 157 278 189 b 235 346 278 265 268 310 b 21 725 144 443 21 569 b 28 832 21 761 21 799 b 29 840 28 833 28 836 b 31 851 29 846 31 850 b 32 856 31 853 31 854 b 3 794 18 836 8 815 z m 200 -26 b 144 -12 178 -26 161 -18 b 126 -6 138 -10 132 -6 b 28 182 43 29 35 107 b 26 214 28 188 28 201 b 25 240 26 225 25 238 l 26 292 l 0 292 l -3 289 l -3 185 b 0 129 -3 178 0 139 b 81 -35 7 63 14 -7 b 144 -54 101 -42 125 -54 l 236 -54 b 308 -24 264 -50 289 -40 l 296 -26 z m 219 756 b 222 681 221 731 222 706 b 249 642 228 667 236 654 l 249 643 l 272 617 l 338 617 b 342 625 338 617 342 621 b 344 639 342 628 344 636 l 344 644 l 285 644 b 250 682 260 644 250 682 b 247 808 250 724 250 767 b 233 825 243 822 242 825 b 208 785 213 825 208 807 b 219 756 213 778 215 768 z "},"T":{"ha":472,"x_min":0,"x_max":0,"o":"m 286 -6 l 297 4 b 304 407 297 43 304 232 b 300 832 304 453 300 814 b 311 846 304 839 304 846 b 413 842 343 846 371 842 b 424 961 428 874 422 911 l 419 965 b 56 972 365 972 203 972 b 49 961 51 968 49 965 l 49 867 b 63 850 49 864 56 850 l 171 850 b 178 821 179 836 178 836 b 168 8 178 551 168 278 b 178 -6 168 4 175 -6 z m 178 -33 b 140 8 167 -33 140 -4 b 144 414 140 143 142 278 b 150 821 147 550 150 686 l 150 822 l 32 822 l 21 867 l 21 917 l 0 917 b -7 906 -4 913 -7 910 l -7 811 b 7 794 -7 808 0 794 l 115 794 b 122 765 124 781 122 781 b 113 -47 122 496 113 222 b 122 -61 113 -51 119 -61 l 231 -61 l 242 -51 l 242 -33 z m 357 786 b 365 815 361 794 364 804 b 353 817 361 815 357 815 b 328 818 343 817 335 818 l 328 786 z "},"U":{"ha":510,"x_min":0,"x_max":0,"o":"m 436 135 l 439 146 b 443 165 439 150 443 161 b 447 326 443 189 447 304 l 447 613 b 443 676 443 638 443 650 b 451 722 443 692 451 707 b 447 919 451 792 447 851 l 443 928 b 421 954 439 931 424 950 b 394 981 408 969 417 981 b 375 974 386 981 382 981 l 329 974 l 322 969 l 318 965 l 311 135 b 303 119 311 135 307 124 b 242 97 288 101 265 97 b 207 124 226 97 215 113 b 196 161 207 124 203 131 l 196 976 l 185 981 l 150 976 b 135 965 146 969 142 965 b 119 976 128 965 124 969 l 67 976 l 63 974 b 60 851 63 974 60 885 l 60 563 b 63 543 60 558 63 547 b 60 517 63 540 60 521 l 60 497 b 63 451 60 482 63 467 l 63 447 b 60 390 63 444 60 394 l 60 239 b 67 108 60 219 67 128 b 261 -17 96 -6 165 -17 b 436 117 361 -17 410 40 z m 7 918 b 4 796 7 918 4 829 l 4 507 b 7 488 4 503 7 492 b 4 461 7 485 4 465 l 4 442 b 7 396 4 426 7 411 l 7 392 b 4 335 7 389 4 339 l 4 183 b 206 -72 4 -54 78 -72 b 314 -39 251 -72 288 -60 b 261 -44 299 -43 281 -44 b 32 239 126 -44 32 -24 l 32 390 b 35 451 32 400 35 442 b 32 497 35 461 32 476 l 32 517 b 35 543 32 517 35 536 b 32 563 35 543 32 556 l 32 851 b 33 921 32 865 32 892 l 11 921 z m 267 914 l 263 921 l 256 125 b 282 138 267 126 276 131 l 283 139 b 285 142 285 140 285 140 b 283 142 283 142 283 142 b 290 918 285 396 289 663 l 274 918 z "},"V":{"ha":469,"x_min":0,"x_max":0,"o":"m 144 7 l 151 -1 b 246 -4 151 -1 215 -4 l 289 -4 b 304 28 300 -4 304 21 b 307 54 304 32 307 50 b 311 72 307 54 311 69 b 318 133 311 81 318 126 b 363 426 329 233 347 328 b 424 918 385 590 403 754 b 428 951 424 925 428 951 b 417 969 428 958 428 969 l 325 969 b 318 958 322 969 318 958 b 315 944 318 958 315 947 b 311 922 315 940 311 925 b 307 903 311 922 307 907 b 304 868 307 900 304 871 b 297 824 304 864 297 828 b 293 783 297 821 293 786 b 289 754 293 779 289 758 b 257 514 279 674 268 594 b 253 469 257 510 253 474 b 250 460 253 467 250 460 l 246 460 b 231 485 235 460 231 478 b 226 510 231 488 226 506 b 224 561 226 514 224 557 b 206 685 224 572 206 674 b 179 896 201 700 188 850 b 176 933 179 900 176 929 b 154 974 176 947 176 974 l 44 974 l 42 969 l 42 956 b 49 864 42 922 44 893 b 74 631 56 786 63 707 l 118 251 b 144 7 129 171 140 90 z m 117 6 b 90 247 113 85 101 165 l 46 628 l 46 626 b 21 861 35 703 28 783 l 21 860 b 14 919 18 878 15 897 l -11 919 l -14 915 l -14 901 b 18 576 -14 796 3 682 l 63 197 b 89 -49 63 197 78 -37 b 138 -61 99 -58 117 -61 b 190 -58 156 -61 175 -58 l 233 -58 b 249 -32 242 -58 247 -42 l 246 -32 b 133 -28 215 -32 133 -28 l 119 -6 z m 263 904 b 260 890 263 904 260 893 b 236 700 253 853 238 711 l 233 679 l 242 626 b 243 615 242 622 242 619 l 261 757 b 276 868 261 797 275 868 b 281 915 276 888 279 907 l 269 915 b 263 904 267 915 263 904 z "},"W":{"ha":743,"x_min":0,"x_max":0,"o":"m 143 8 l 150 0 b 244 -3 150 0 215 -3 l 299 -3 b 314 29 310 -3 314 22 b 317 56 314 33 317 51 b 321 74 317 56 321 71 b 328 135 321 82 328 128 b 368 554 339 235 354 456 b 386 544 369 567 379 578 l 401 253 b 431 3 413 172 426 86 l 438 -6 b 518 -3 438 -6 489 -3 l 563 -3 b 578 29 574 -3 578 22 b 581 56 578 33 581 51 b 585 74 581 56 585 71 b 592 135 585 82 592 128 b 635 428 603 235 621 329 b 697 919 657 592 675 756 b 701 953 697 926 701 953 b 690 971 701 960 701 971 l 599 971 b 592 960 596 971 592 960 b 589 946 592 960 589 949 b 585 924 589 942 585 926 b 581 904 585 924 581 908 b 578 869 581 901 578 872 b 571 825 578 865 571 829 b 567 785 571 822 567 788 b 563 756 567 781 563 760 b 522 431 551 675 533 510 b 518 386 522 426 518 390 b 514 375 518 382 514 375 l 511 375 b 496 401 499 375 496 393 b 492 426 496 404 492 422 b 489 476 492 431 489 474 b 476 686 489 488 476 675 b 453 897 472 701 461 851 b 450 935 453 901 450 931 b 428 975 450 949 450 975 l 318 975 l 315 971 l 315 943 b 311 924 314 938 311 926 b 307 904 311 924 307 908 b 304 869 307 901 304 872 b 296 825 304 865 296 829 b 293 785 296 822 293 788 b 289 756 293 781 289 760 b 253 425 278 675 264 506 b 249 381 253 421 249 385 b 246 371 249 378 246 371 l 242 371 b 228 396 231 371 228 389 b 224 421 228 399 224 417 b 206 686 224 518 211 583 b 179 897 204 701 188 851 b 176 935 179 901 176 931 b 154 975 176 949 176 975 l 44 975 l 42 971 l 42 957 b 49 865 42 924 44 894 b 74 632 56 788 63 708 b 117 253 89 504 103 379 b 143 8 128 172 139 92 z m 115 7 b 89 249 111 86 99 167 b 46 629 74 375 63 501 l 46 628 b 21 863 35 704 28 785 l 21 861 b 14 919 18 879 15 899 l -11 919 l -14 915 l -14 901 b 18 576 -14 796 4 682 b 61 197 35 449 46 324 b 88 -47 71 117 85 36 l 94 -56 b 189 -58 94 -56 160 -58 l 243 -58 b 258 -31 253 -58 257 -40 l 244 -31 b 132 -28 215 -31 132 -28 l 118 -4 z m 375 -53 l 382 -61 b 463 -58 382 -61 433 -58 l 507 -58 b 522 -31 517 -58 521 -40 l 518 -31 b 421 -35 489 -31 421 -35 l 403 -4 b 379 206 401 68 388 138 l 374 250 l 374 299 l 371 297 b 356 132 367 244 360 185 l 356 129 b 375 -53 364 69 372 7 z m 536 904 b 504 660 536 861 504 789 b 511 560 504 632 504 589 l 515 600 b 550 869 538 817 547 869 b 554 915 550 889 553 908 l 543 915 b 536 904 540 915 536 904 z m 260 915 l 260 888 b 249 814 254 865 249 850 b 232 696 249 775 232 743 b 233 689 232 692 233 690 l 242 581 b 265 785 242 667 263 785 b 274 854 265 810 264 824 l 272 851 b 281 919 278 883 271 875 l 263 919 z "},"X":{"ha":486,"x_min":0,"x_max":0,"o":"m 57 -1 b 68 -11 57 -4 61 -11 l 178 -11 l 181 -8 l 185 3 b 189 42 185 6 189 39 l 229 268 b 242 349 233 292 233 324 b 249 363 242 351 244 363 b 258 344 258 363 258 349 b 261 324 258 342 261 328 b 313 14 282 225 290 113 b 315 -1 313 10 315 -1 b 333 -11 319 -8 326 -11 l 443 -11 b 399 242 449 -1 399 242 b 333 497 392 278 340 463 b 339 525 335 508 339 524 b 378 667 354 603 364 589 b 435 961 396 767 414 864 l 435 965 b 425 976 435 969 432 976 l 315 976 l 311 972 l 308 961 b 304 924 308 958 304 926 l 272 713 b 261 632 268 689 268 657 b 254 618 261 629 258 618 b 244 636 244 618 244 632 b 242 657 244 639 242 653 b 181 951 219 756 201 853 b 178 965 181 954 178 965 b 158 976 174 972 165 976 l 50 976 l 42 972 l 42 961 b 53 888 42 938 50 913 b 103 718 64 831 90 775 b 158 472 110 682 151 508 b 153 444 157 463 153 447 b 57 3 128 304 74 149 z m 29 6 b 85 268 39 86 61 182 b 125 450 100 329 114 393 b 128 461 125 453 126 458 l 131 469 l 103 589 l 104 588 b 75 713 92 639 78 693 b 53 789 69 739 63 764 b 25 882 43 819 31 853 l 19 913 b 18 919 18 914 18 917 b 8 910 11 918 8 913 l 8 906 b 104 471 25 760 79 611 b 110 443 104 468 108 453 b 54 197 103 407 61 233 b 4 22 42 142 15 79 b -7 -51 1 -1 -7 -28 l -7 -62 l 1 -65 l 110 -65 b 129 -56 117 -65 125 -62 b 132 -42 129 -56 132 -44 l 132 -39 l 68 -39 b 29 -1 43 -39 29 -12 z m 256 -12 b 260 -51 256 -17 260 -49 l 263 -62 l 267 -65 l 376 -65 b 386 -56 383 -65 386 -58 l 386 -51 l 383 -39 l 333 -39 b 290 -12 318 -39 301 -32 b 285 8 290 -12 286 0 b 257 172 274 60 265 117 l 250 224 l 233 133 z m 261 910 b 258 896 261 910 258 899 b 238 782 250 858 243 819 l 249 751 l 275 917 b 261 910 271 915 263 913 z "},"Y":{"ha":476,"x_min":0,"x_max":0,"o":"m 188 15 b 192 1 188 13 192 1 l 199 -3 l 304 -3 l 311 4 l 311 271 b 318 324 311 271 315 308 b 332 397 322 347 329 372 b 339 432 332 401 339 429 b 378 665 353 511 364 588 b 435 960 396 765 413 863 l 435 964 b 424 975 435 968 432 975 l 315 975 l 311 971 l 307 960 b 304 922 307 957 304 925 b 272 711 293 851 282 782 l 258 638 l 246 600 b 243 635 235 600 243 631 b 240 656 243 638 240 651 b 179 950 219 754 201 851 b 176 964 179 953 176 964 b 158 975 172 971 165 975 l 49 975 l 42 971 l 42 960 b 53 886 42 936 49 911 b 89 718 64 829 78 775 l 158 381 b 179 274 165 344 176 308 l 179 221 b 183 97 179 203 183 118 b 188 24 183 90 188 31 z m 160 24 b 157 57 160 26 158 40 b 156 97 156 72 156 93 b 153 161 156 108 154 135 b 151 221 151 183 151 214 l 151 274 b 139 336 150 289 144 311 l 131 375 l 61 713 l 43 796 l 44 794 b 25 881 38 822 31 851 l 21 903 l 22 903 l 18 919 l -7 919 l -14 915 l -14 904 b -3 831 -14 881 -7 856 b 33 663 8 774 22 719 l 103 325 b 124 218 110 289 121 253 l 124 165 b 128 42 124 147 128 63 b 132 -32 128 35 132 -25 l 132 -40 b 136 -54 132 -43 136 -54 l 143 -58 l 249 -58 l 256 -51 l 256 -31 l 188 -31 l 167 -12 b 160 15 167 -12 160 6 z m 256 915 l 251 904 b 249 867 251 901 249 869 b 239 804 244 846 242 825 l 244 776 l 249 753 b 272 901 256 801 264 853 l 275 919 l 260 919 z "},"Z":{"ha":418,"x_min":0,"x_max":0,"o":"m 56 49 b 83 -8 56 32 56 -8 b 103 -4 88 -8 99 -4 l 257 -4 l 268 -1 l 275 -1 l 289 -8 l 317 -8 b 342 -11 321 -8 338 -11 b 358 18 356 -11 358 10 b 363 39 358 25 363 39 l 363 106 l 356 108 l 232 108 b 196 111 229 108 204 111 l 356 838 b 361 858 349 851 358 858 l 351 964 l 344 971 b 278 975 344 971 299 975 b 92 979 218 979 156 979 l 63 979 l 56 975 l 56 885 b 86 854 56 863 65 854 l 232 853 l 56 122 z m 28 124 l 197 825 b 86 826 154 825 129 826 b 28 885 46 826 28 842 l 28 924 l 7 924 l 0 919 l 0 829 b 31 799 0 807 10 799 l 176 797 l 0 67 l 0 -7 b 28 -64 0 -24 0 -64 b 47 -60 32 -64 43 -60 l 201 -60 l 213 -57 l 219 -57 l 233 -64 l 261 -64 b 286 -67 265 -64 282 -67 b 303 -37 300 -67 303 -46 l 303 -36 l 285 -36 l 269 -29 l 268 -29 l 257 -32 l 104 -32 l 101 -33 b 83 -36 93 -36 86 -36 b 28 49 28 -36 28 24 z "},"[":{"ha":447,"x_min":0,"x_max":0,"o":"m 153 -106 l 153 -112 b 164 -133 153 -119 153 -133 b 310 -135 186 -133 288 -135 b 403 -137 324 -135 388 -137 l 414 -137 b 421 -136 417 -136 421 -136 b 428 -129 424 -136 428 -129 l 425 -14 l 297 -17 b 286 -7 293 -17 286 -10 l 286 18 b 285 39 286 21 285 39 b 294 988 294 256 276 840 b 317 1001 299 997 306 1001 b 400 1000 358 1003 357 1000 l 414 1000 l 421 1007 b 422 1075 421 1007 422 1054 l 422 1082 b 418 1111 422 1090 418 1111 l 411 1114 b 213 1115 411 1114 283 1118 l 165 1115 l 158 1108 l 158 1083 b 157 586 160 1049 157 621 b 153 -106 157 403 156 79 z m 125 -106 b 129 586 128 79 129 403 l 129 676 b 131 1013 131 774 131 924 l 131 1060 l 110 1060 l 103 1053 l 103 1028 b 101 531 104 993 101 565 b 97 -161 101 347 100 24 l 97 -168 b 108 -189 97 -175 97 -189 b 254 -190 131 -189 232 -190 b 347 -193 268 -190 332 -193 l 358 -193 b 365 -192 361 -192 365 -192 b 372 -185 368 -192 372 -185 l 371 -165 b 353 -164 365 -165 358 -164 b 310 -162 339 -164 315 -162 l 236 -162 b 164 -161 206 -162 175 -161 b 125 -112 125 -161 125 -129 z m 344 944 l 358 944 l 365 951 l 365 974 l 361 974 l 321 974 b 318 944 319 964 318 956 z "},"\\":{"ha":432,"x_min":0,"x_max":0,"o":"m 340 151 b 308 285 332 183 311 278 b 122 1015 288 378 146 924 b 106 1028 117 1025 115 1025 l 33 1028 l 28 1021 l 65 860 b 246 129 89 775 222 215 b 290 -44 249 113 286 -26 b 315 -65 297 -56 308 -58 b 389 -57 324 -56 397 -74 z m -28 965 l 10 804 b 190 74 33 719 167 160 b 235 -100 193 57 231 -82 b 260 -121 242 -111 253 -114 b 333 -112 268 -111 342 -129 l 329 -93 b 321 -99 326 -93 324 -96 l 293 -83 b 263 -53 283 -79 272 -69 l 247 8 l 249 7 b 218 125 236 54 219 115 b 133 474 204 176 168 326 b 39 851 94 636 51 810 l 10 972 l -22 972 z "},"]":{"ha":447,"x_min":0,"x_max":0,"o":"m 82 -26 b 81 -94 82 -26 81 -74 l 81 -101 b 85 -131 81 -110 85 -131 l 92 -133 b 290 -135 92 -133 219 -137 l 338 -135 l 344 -128 l 344 -103 b 346 394 343 -68 346 360 b 350 1086 346 578 347 901 l 350 1093 b 339 1114 350 1100 350 1114 b 193 1115 317 1114 215 1115 b 100 1118 179 1115 115 1118 l 89 1118 b 82 1117 86 1117 82 1117 b 75 1110 79 1117 75 1110 l 78 994 l 206 997 b 217 988 210 997 217 990 l 217 963 b 218 942 217 960 218 942 b 208 -7 208 725 226 140 b 186 -21 204 -17 197 -21 b 103 -19 144 -22 146 -19 l 89 -19 z m 33 1063 b 26 1061 31 1061 26 1061 b 19 1054 24 1061 19 1054 l 22 939 l 150 942 b 161 932 154 942 161 935 l 161 907 b 163 886 161 904 163 886 b 157 6 154 694 167 215 b 182 7 164 6 171 6 b 189 292 188 64 189 169 b 188 518 189 364 188 440 b 186 696 188 579 186 639 b 190 940 186 794 188 881 b 189 963 190 946 189 960 l 189 969 l 50 967 l 47 1063 l 44 1063 z m 26 -82 b 25 -150 26 -82 25 -129 l 25 -157 b 29 -186 25 -165 29 -186 l 36 -189 b 235 -190 36 -189 164 -193 l 282 -190 l 289 -183 l 289 -162 b 229 -164 272 -164 247 -164 b 90 -161 164 -164 90 -161 b 61 -158 85 -161 63 -158 b 53 -101 61 -158 53 -117 l 53 -94 l 53 -75 l 47 -75 l 33 -75 z "},"^":{"ha":574,"x_min":0,"x_max":0,"o":"m 60 675 l 169 675 b 190 686 179 675 186 679 l 288 865 l 379 683 b 403 672 379 683 389 672 l 507 671 b 514 693 517 671 519 685 l 357 954 l 331 974 b 222 965 225 975 228 975 l 64 701 b 60 690 64 701 61 694 b 57 683 60 688 57 683 b 60 675 56 682 60 675 z m 324 628 b 347 617 324 628 333 617 l 451 615 b 458 638 461 615 464 629 l 454 643 l 403 644 b 356 669 378 644 356 669 l 288 804 b 260 754 278 786 269 769 z m 36 661 b 32 685 36 661 33 675 l 8 646 b 4 635 8 646 6 639 b 1 628 4 632 1 628 b 4 619 0 626 4 619 l 114 619 b 135 631 124 619 131 624 l 143 647 l 60 647 z "},"_":{"ha":447,"x_min":0,"x_max":0,"o":"m 39 -21 l 38 -94 l 38 -101 b 49 -122 38 -108 38 -122 b 232 -124 71 -122 210 -124 b 381 -122 246 -124 365 -122 b 392 -121 381 -122 388 -121 b 399 -119 394 -119 399 -119 b 406 -112 401 -119 406 -112 l 403 -17 l 218 -17 b 43 -15 214 -17 64 -18 z m -17 -76 l -18 -150 l -18 -157 b -7 -178 -18 -164 -18 -178 b 176 -179 15 -178 154 -179 b 325 -178 190 -179 310 -178 b 336 -176 325 -178 332 -176 b 343 -175 339 -175 343 -175 b 350 -168 346 -175 350 -168 l 349 -151 l 303 -151 l 140 -151 b 8 -150 100 -151 19 -150 l 10 -101 l 10 -94 l 10 -72 b -12 -71 0 -72 -8 -71 z "},"`":{"ha":428,"x_min":0,"x_max":0,"o":"m 229 950 l 315 947 l 322 957 l 257 1165 b 242 1175 251 1172 250 1172 l 160 1175 l 154 1169 l 190 1042 l 218 961 z m 193 947 l 164 1033 l 139 1119 l 104 1119 l 99 1114 l 135 986 l 163 906 l 174 894 l 260 892 l 267 901 l 260 921 l 218 922 z "},"a":{"ha":508,"x_min":0,"x_max":0,"o":"m 144 -3 b 189 161 182 -3 161 161 l 308 161 b 328 31 315 156 328 60 b 342 -7 328 18 328 -7 l 463 -7 l 467 -3 b 456 94 467 31 458 61 b 410 439 453 114 421 314 b 406 461 410 442 406 457 l 383 644 b 365 761 378 682 368 724 b 331 969 354 831 351 901 b 185 971 281 974 231 971 b 156 806 179 963 156 840 b 136 717 151 776 139 746 b 107 506 129 644 114 576 l 51 61 b 43 19 50 57 43 24 b 47 1 43 15 40 1 b 133 -3 58 1 122 -3 z m 200 278 b 193 293 196 279 190 285 b 204 371 193 318 200 344 b 238 631 215 457 236 536 b 249 642 238 633 242 642 b 282 411 261 642 281 410 b 293 282 282 290 300 300 l 290 278 z m 89 -58 b 108 -31 99 -58 104 -47 b 88 -29 101 -31 93 -29 b 47 -26 69 -28 53 -26 b 15 19 4 -26 15 -1 b 21 47 15 21 17 33 l 19 44 b 24 64 21 53 22 64 l 44 236 b 79 510 54 324 65 422 b 93 614 82 543 88 581 b 108 719 99 649 104 683 b 119 772 110 732 114 751 l 128 806 b 146 915 129 826 138 874 l 129 915 b 100 750 124 907 100 785 b 81 661 96 721 83 690 b 51 450 74 589 58 521 b -4 6 28 303 15 153 b -12 -36 -4 1 -12 -32 b -8 -54 -12 -40 -15 -54 b 78 -58 3 -54 67 -58 z m 253 106 b 272 -25 260 100 272 4 b 286 -62 272 -37 272 -62 l 407 -62 l 411 -58 b 410 -35 411 -50 410 -42 l 342 -35 b 300 31 300 -35 300 8 b 293 133 300 53 296 115 l 192 133 l 189 106 z m 226 342 b 228 306 226 328 226 315 l 261 306 b 254 411 257 322 254 353 b 250 446 253 415 251 428 b 247 468 249 453 247 460 l 244 450 l 232 365 z "},"b":{"ha":507,"x_min":0,"x_max":0,"o":"m 90 -8 l 343 -6 b 354 0 343 -6 350 -1 b 378 13 358 4 374 13 b 454 246 446 60 456 172 b 442 386 453 293 453 340 b 413 453 436 406 424 436 b 385 479 413 457 393 471 b 350 513 376 486 350 499 b 368 532 349 525 360 525 b 383 551 368 532 379 549 b 392 564 383 556 392 564 b 419 701 414 611 419 646 b 400 886 418 763 413 825 l 393 897 b 378 925 393 901 382 921 b 342 960 372 929 349 953 b 299 979 329 971 310 975 b 204 985 299 979 299 982 l 64 982 l 63 975 b 65 803 63 967 64 846 b 69 539 67 746 69 563 b 85 46 71 407 85 61 z m 196 836 b 235 853 196 856 224 851 b 258 849 243 853 250 857 b 285 814 269 842 281 829 b 292 694 286 794 292 714 l 292 651 b 293 610 292 644 293 618 b 289 597 293 606 289 597 b 224 561 275 574 256 563 b 201 576 217 561 201 565 z m 217 118 l 211 436 b 218 456 211 440 211 453 b 238 457 222 456 235 457 b 304 438 254 457 292 457 b 315 411 307 431 315 415 b 321 361 315 408 321 372 b 322 260 321 357 322 288 b 325 158 322 244 324 175 b 247 111 310 124 288 111 b 219 114 236 111 232 107 z m 57 44 b 54 126 57 49 56 81 b 38 803 44 386 44 528 l 38 801 b 35 926 36 828 35 885 l 8 926 l 7 919 b 10 747 7 911 8 790 b 14 483 11 690 14 507 b 29 -10 15 351 29 6 l 35 -64 l 288 -61 b 299 -56 288 -61 294 -57 b 322 -43 303 -51 318 -43 l 333 -33 l 65 -36 z m 281 422 b 239 429 274 428 250 429 l 239 390 b 249 382 243 389 246 385 b 260 356 251 375 260 360 b 265 306 260 353 265 317 b 267 204 265 301 267 232 l 267 140 b 296 163 279 144 289 151 b 293 344 292 244 293 282 l 293 360 b 288 404 292 360 288 403 l 286 404 b 281 422 285 404 283 417 z m 229 758 b 236 639 231 739 236 658 l 236 596 l 236 589 b 265 611 249 592 258 600 b 264 632 265 615 264 624 l 264 694 b 243 825 264 733 261 815 l 224 825 l 225 768 z "},"c":{"ha":494,"x_min":0,"x_max":0,"o":"m 307 -14 b 378 17 329 -7 360 -3 b 450 256 443 81 450 168 l 450 308 b 435 347 447 317 439 347 b 344 350 419 347 360 350 l 336 350 b 325 347 333 350 325 350 l 325 149 b 311 126 325 149 314 133 l 307 122 b 257 104 292 115 276 104 b 204 149 235 104 208 126 b 200 201 204 157 200 194 l 200 225 b 204 794 200 415 204 604 b 250 863 204 829 211 863 b 276 858 257 863 268 863 b 299 829 288 851 299 843 b 303 765 299 821 303 776 l 303 674 l 307 669 l 417 669 l 419 674 b 424 750 428 696 424 726 b 382 931 424 810 424 885 b 311 985 360 954 340 974 b 299 989 307 985 299 989 b 154 961 247 993 207 997 b 67 753 86 913 71 832 b 63 631 67 738 63 650 l 63 206 b 169 -3 67 122 82 32 b 208 -14 178 -7 204 -14 z m 208 -42 b 157 -28 203 -42 168 -33 b 35 204 56 13 39 113 l 35 631 b 38 700 35 640 36 672 b 39 753 39 725 39 746 b 53 858 40 789 44 825 b 11 697 22 813 14 754 b 7 575 11 682 7 594 l 7 150 b 114 -58 11 67 26 -24 b 153 -69 122 -62 149 -69 l 251 -69 b 322 -39 274 -62 304 -58 l 322 -37 l 311 -42 z m 243 774 b 247 710 243 765 247 721 l 247 618 l 251 614 l 361 614 l 364 618 b 368 642 367 625 368 633 l 296 642 l 275 663 l 275 765 b 272 799 275 769 274 786 b 263 833 269 822 274 822 b 250 835 260 835 253 835 b 232 794 235 835 232 815 b 243 774 238 789 243 782 z m 281 294 b 269 292 278 294 269 294 l 269 135 l 285 142 l 283 142 l 289 143 l 297 157 l 297 294 l 289 294 z "},"d":{"ha":489,"x_min":0,"x_max":0,"o":"m 63 1 b 78 -6 67 -3 74 -6 l 272 -6 b 344 8 294 -6 324 -3 b 371 31 356 13 364 24 b 424 192 411 75 424 133 b 422 722 424 229 425 685 b 418 771 422 725 418 767 b 414 803 418 774 414 800 b 404 883 411 829 411 858 b 385 901 404 883 385 899 b 382 910 385 906 382 910 b 331 954 367 925 349 947 b 272 965 315 961 290 965 b 199 968 261 965 208 968 l 194 972 l 172 968 b 103 972 147 972 129 972 l 78 972 b 69 932 67 964 69 943 b 67 894 69 924 67 899 l 67 392 b 63 307 67 381 63 318 z m 190 840 b 217 858 190 854 206 858 b 294 803 258 858 286 843 b 297 285 297 774 297 314 b 294 163 297 240 297 211 b 221 113 290 126 254 113 b 194 124 213 113 199 108 b 190 836 194 167 190 793 z m 35 307 b 36 351 35 311 35 335 b 39 392 38 368 39 386 l 39 894 b 40 913 39 896 40 907 l 40 917 l 22 917 b 14 876 11 908 14 888 b 11 839 14 868 11 843 l 11 336 b 7 251 11 325 7 263 l 7 -54 b 22 -61 11 -58 18 -61 l 217 -61 b 289 -47 239 -61 268 -58 b 310 -31 297 -44 304 -37 b 272 -33 296 -33 283 -33 l 78 -33 b 35 -10 68 -33 49 -24 z m 267 797 b 218 831 261 819 243 829 l 218 786 b 239 747 228 776 235 764 b 242 229 242 718 242 258 b 240 142 242 196 242 172 b 267 164 253 146 264 153 b 269 285 269 208 269 243 b 267 800 269 314 269 771 z "},"e":{"ha":421,"x_min":0,"x_max":0,"o":"m 63 26 b 74 6 63 19 63 6 b 219 4 96 6 197 4 b 354 -1 233 4 339 -1 l 365 -1 b 372 0 368 0 372 0 b 379 7 375 0 379 7 l 376 125 l 207 122 b 196 132 203 122 196 129 l 196 157 b 194 178 196 160 194 178 b 199 392 194 217 199 367 b 201 433 197 399 201 426 b 231 444 208 444 215 444 b 304 442 254 444 279 442 b 328 453 311 443 331 463 l 332 503 b 331 532 332 503 331 524 l 331 556 b 317 567 328 567 324 567 b 228 561 288 565 257 561 b 199 572 217 561 207 561 l 199 603 b 204 849 197 678 203 771 b 226 863 208 858 215 863 b 351 861 268 864 308 861 l 365 861 l 372 868 b 374 936 372 868 374 915 l 374 943 b 369 972 374 951 369 972 l 363 975 b 122 976 363 975 193 979 l 75 976 l 68 969 l 68 944 b 67 586 69 910 67 621 b 63 33 67 403 65 218 z m 35 33 b 39 586 38 218 39 403 l 39 665 b 40 893 40 735 40 833 l 40 921 l 19 921 l 13 914 l 13 889 b 11 531 14 854 11 565 b 7 -22 11 347 10 163 l 7 -29 b 18 -50 7 -36 7 -50 b 164 -51 40 -50 142 -51 b 299 -57 178 -51 283 -57 l 310 -57 b 317 -56 313 -56 317 -56 b 324 -49 319 -56 324 -49 l 322 -28 b 283 -26 311 -28 297 -26 b 219 -24 254 -25 226 -24 l 146 -24 b 74 -22 115 -24 85 -22 b 35 26 35 -22 35 10 z m 296 806 l 310 806 l 317 813 l 317 835 l 300 835 b 232 835 276 835 254 836 l 232 807 b 296 806 253 806 274 806 z m 249 386 b 272 397 256 388 274 388 b 274 414 272 400 272 406 b 264 415 269 414 267 414 b 231 417 253 415 242 417 l 228 417 b 226 396 226 408 225 399 l 226 386 z "},"f":{"ha":442,"x_min":0,"x_max":0,"o":"m 186 -1 b 199 46 203 -1 199 28 b 207 426 199 258 206 383 l 210 433 l 349 433 l 349 536 l 218 536 b 207 556 207 536 207 547 b 214 847 207 588 214 824 l 218 856 l 400 856 l 407 863 l 407 967 l 400 974 l 83 974 l 79 971 b 75 685 79 926 75 729 b 74 621 75 665 74 643 b 60 15 76 538 60 78 b 68 -1 60 11 64 -1 z m 68 -29 b 32 -21 50 -29 32 -32 b 38 211 32 3 35 118 b 46 619 42 368 47 567 b 47 656 46 631 47 644 l 47 685 b 49 828 47 707 47 767 b 50 918 49 854 50 888 l 28 918 l 24 915 b 19 629 24 871 19 674 b 18 565 19 610 18 588 b 4 -40 21 482 4 22 b 13 -57 4 -44 8 -57 l 131 -57 b 143 -29 142 -57 143 -43 z m 344 800 l 351 807 l 351 828 l 242 828 l 242 800 z m 293 378 l 293 406 l 233 406 l 233 396 b 232 378 233 390 232 383 z "},"g":{"ha":518,"x_min":0,"x_max":0,"o":"m 344 31 l 349 29 b 381 -1 364 29 372 -1 l 432 -3 b 443 21 443 -3 443 13 b 453 343 444 68 453 294 b 454 407 453 347 453 390 b 456 469 454 414 456 461 l 447 478 l 443 478 b 372 475 436 478 381 475 b 265 476 356 475 281 476 b 253 464 261 476 253 472 l 250 385 l 258 378 l 299 376 l 303 372 b 311 340 307 364 311 349 l 307 169 b 247 118 307 138 279 118 b 203 151 232 118 203 132 l 214 806 b 219 818 214 806 218 814 b 283 849 232 846 254 849 b 322 831 296 847 314 843 b 338 808 326 824 338 808 l 335 622 l 343 614 l 442 613 l 446 829 b 435 876 446 833 439 865 b 257 979 408 965 340 978 b 190 965 233 981 213 976 b 74 694 85 911 75 801 l 65 197 b 81 114 64 165 72 142 b 229 -6 101 35 149 -6 b 333 22 274 -7 296 3 z m 18 639 l 10 142 b 25 58 8 110 17 86 b 174 -61 46 -21 93 -61 b 278 -33 218 -62 240 -53 l 285 -28 b 229 -33 268 -32 251 -33 b 53 113 135 -33 79 15 l 50 122 l 51 115 b 38 197 44 139 38 171 l 46 694 b 65 851 47 746 50 801 b 18 639 24 793 18 715 z m 267 775 b 282 753 271 768 282 753 l 279 567 l 288 558 l 386 557 l 386 585 l 332 586 l 307 611 l 310 799 b 299 817 307 803 301 810 l 299 815 b 281 821 296 818 288 821 b 246 810 263 821 251 819 b 242 799 244 806 242 799 l 242 790 b 267 775 251 788 261 783 z m 233 360 b 232 321 233 347 232 333 l 243 321 l 247 317 b 256 285 251 308 256 293 l 251 146 b 279 169 267 147 279 156 l 283 340 b 281 349 282 342 281 346 b 251 350 269 350 258 350 z m 344 -3 b 292 -25 325 -12 308 -19 l 293 -26 b 325 -57 308 -26 317 -57 l 376 -58 b 388 -35 388 -58 388 -43 l 388 -29 l 381 -29 b 346 -3 361 -29 354 -18 l 346 -4 z "},"h":{"ha":500,"x_min":0,"x_max":0,"o":"m 63 10 l 69 3 b 168 0 69 3 140 0 l 175 0 b 189 7 179 0 189 3 l 200 367 l 204 411 b 214 422 204 418 211 422 l 242 422 b 294 418 257 422 281 422 l 301 411 b 306 161 301 374 306 201 l 306 7 l 313 0 l 397 0 l 400 3 l 400 17 b 414 32 400 21 414 32 b 425 76 425 46 425 63 b 436 686 429 168 436 594 l 436 954 b 331 971 440 971 340 961 b 308 950 324 964 313 961 b 306 842 308 933 306 858 b 301 556 306 799 301 599 b 292 546 301 553 299 546 l 211 546 b 200 560 207 546 200 556 l 200 636 b 204 888 200 721 204 801 l 204 894 b 200 961 204 904 200 950 b 193 971 200 961 196 971 l 76 971 l 72 968 b 69 918 72 968 69 933 l 69 894 b 67 801 69 881 67 817 b 63 278 67 725 63 354 z m 35 278 b 36 539 35 315 35 426 b 39 801 38 650 39 763 b 40 851 39 810 39 832 b 42 894 40 865 42 889 l 42 915 l 21 915 l 17 913 b 14 863 17 913 14 878 l 14 839 b 11 746 14 825 11 761 b 7 222 11 669 7 299 l 7 -46 l 14 -53 b 113 -56 14 -53 85 -56 l 119 -56 b 133 -49 124 -56 133 -53 l 133 -28 b 58 -25 100 -26 58 -25 l 35 -1 z m 239 363 l 246 356 b 250 106 246 318 250 146 l 250 -49 l 257 -56 l 342 -56 l 344 -53 l 344 -39 b 353 -28 344 -36 349 -31 l 301 -28 l 278 -4 l 278 161 b 275 289 278 182 276 235 b 278 393 275 321 276 372 b 242 394 267 394 250 394 l 231 394 l 228 365 b 239 363 232 364 235 363 z m 275 915 b 253 894 268 908 257 906 b 250 786 253 878 250 803 b 246 574 250 756 247 650 l 274 574 b 275 699 274 600 274 646 b 278 842 276 754 278 821 b 279 897 278 850 278 874 l 279 913 b 275 915 276 914 275 914 z "},"i":{"ha":274,"x_min":0,"x_max":0,"o":"m 72 0 l 79 -7 l 190 -7 l 199 0 b 197 235 199 0 197 164 b 200 356 197 275 199 315 l 204 490 l 206 865 l 210 911 l 210 967 b 194 981 206 974 201 981 l 83 974 b 72 958 79 974 72 963 l 72 624 l 69 206 l 68 42 z m 40 39 l 42 206 l 44 624 l 44 918 l 28 918 b 17 903 24 918 17 907 l 17 568 l 14 150 l 13 -14 l 17 -56 l 24 -62 l 135 -62 l 143 -56 l 143 -35 l 68 -35 l 46 -12 z "},"j":{"ha":478,"x_min":0,"x_max":0,"o":"m 336 18 b 407 156 382 58 397 96 b 410 186 407 164 410 186 l 415 461 l 417 528 l 422 896 l 417 951 b 393 976 414 972 414 975 l 369 979 b 296 933 325 979 297 965 l 297 878 l 296 836 l 290 714 l 289 607 l 294 438 l 279 172 b 217 107 275 135 258 106 b 167 133 199 107 178 119 b 149 318 163 142 146 131 l 144 346 b 129 353 144 346 136 353 l 99 353 b 46 350 83 353 46 350 b 50 324 42 342 42 333 b 38 293 50 324 38 308 l 35 207 b 64 79 35 158 46 124 b 226 -7 92 7 156 -6 b 325 11 260 -8 292 -4 z m 240 878 l 242 822 l 240 781 l 235 658 l 233 551 l 239 382 l 225 135 b 251 175 242 138 249 154 b 267 438 256 261 263 350 l 261 607 l 263 714 l 268 838 b 269 878 268 850 269 864 l 268 917 b 240 878 251 910 240 896 z m 281 -37 l 289 -29 b 226 -35 268 -33 246 -35 b 38 69 144 -33 71 -18 l 38 68 b 7 207 18 114 7 151 l 10 293 l 10 296 b -10 294 0 294 -10 294 l -18 238 l -21 151 b 8 24 -21 103 -10 68 b 171 -62 36 -49 100 -61 b 269 -44 204 -64 236 -60 z "},"k":{"ha":504,"x_min":0,"x_max":0,"o":"m 193 -6 b 208 10 200 -6 204 1 l 208 346 l 221 346 b 265 229 239 319 261 247 l 318 51 b 332 7 319 49 332 11 l 335 -4 l 339 -7 l 460 -7 b 469 4 467 -7 469 0 l 469 7 b 381 296 433 104 411 199 b 333 450 367 340 344 407 b 328 476 333 451 329 467 b 389 732 335 513 382 697 b 447 976 404 807 453 967 l 328 976 b 310 967 321 976 314 974 b 307 953 310 967 307 957 l 239 672 b 203 582 239 647 210 561 b 201 694 194 610 201 638 b 197 969 201 765 197 969 l 189 976 l 78 976 l 71 969 l 67 928 l 67 764 b 71 6 67 511 71 260 b 82 -10 71 1 78 -10 z m 82 -37 b 43 6 67 -37 43 -6 b 40 386 43 133 42 260 b 39 764 39 499 39 651 l 39 921 l 22 921 l 15 914 l 11 872 l 11 708 b 15 -50 11 456 15 204 b 26 -65 15 -54 22 -65 l 138 -61 b 153 -46 144 -61 149 -54 l 153 -35 z m 263 -4 b 276 -49 264 -7 276 -44 l 279 -60 l 283 -62 l 404 -62 b 414 -51 411 -62 414 -56 l 414 -49 b 408 -35 413 -43 410 -39 l 339 -35 l 307 -32 l 304 7 b 293 38 304 8 294 35 l 239 222 l 236 233 l 236 85 z m 254 911 b 251 897 254 911 251 901 l 228 803 b 229 747 228 783 229 764 l 271 921 b 254 911 264 921 258 918 z "},"l":{"ha":422,"x_min":0,"x_max":0,"o":"m 69 -6 b 360 1 171 -10 281 -7 b 386 33 381 3 389 11 l 378 115 b 365 131 378 119 369 131 l 206 125 b 194 136 201 125 194 132 l 182 825 b 185 929 182 839 186 914 l 185 963 l 174 974 l 69 976 b 56 965 63 976 56 972 b 61 642 56 917 61 694 b 56 306 63 556 56 319 b 65 29 58 231 65 36 z m 38 26 b 28 304 38 33 31 229 b 29 349 28 307 29 325 b 33 642 31 424 35 576 b 31 810 33 668 32 740 b 28 919 29 846 28 888 l 14 921 b 0 910 7 921 0 917 b 6 586 0 861 6 639 b 0 250 7 500 0 264 b 10 -26 3 175 10 -19 l 14 -61 b 304 -54 115 -65 225 -62 b 331 -29 322 -53 331 -46 b 165 -35 282 -32 222 -35 b 44 -32 133 -35 76 -33 z "},"m":{"ha":663,"x_min":0,"x_max":0,"o":"m 65 6 b 81 -1 67 0 79 0 l 172 -1 l 181 1 b 176 608 181 128 176 192 l 181 626 b 206 531 201 626 203 551 b 217 461 206 521 217 486 b 264 124 235 347 250 238 b 297 -1 268 88 268 -1 b 353 1 304 -1 346 1 b 393 240 363 -3 393 244 b 444 564 411 347 426 458 b 458 601 447 575 447 594 b 465 546 465 604 465 565 b 458 28 465 372 458 200 b 474 -1 458 15 460 4 b 581 -6 508 -1 582 -6 l 592 -6 l 594 -1 l 599 53 b 594 961 599 322 600 926 l 588 968 b 407 972 563 972 518 972 b 354 672 386 967 363 740 b 328 558 354 651 347 578 b 288 729 304 575 290 717 b 250 939 271 811 250 928 l 250 950 b 236 975 250 961 249 975 l 74 975 l 65 972 b 63 61 65 665 63 363 z m 35 61 b 36 513 35 211 36 361 b 38 919 38 640 38 785 l 18 919 l 10 917 b 7 6 10 610 7 307 l 10 -50 b 25 -57 11 -56 24 -56 l 117 -57 l 125 -54 l 125 -29 l 74 -29 b 72 -28 74 -29 71 -28 b 38 1 61 -24 49 -29 z m 208 68 b 242 -57 213 32 213 -57 b 297 -54 249 -57 290 -54 b 306 -29 299 -54 301 -46 l 297 -29 b 239 97 247 -29 242 44 b 236 119 239 104 238 113 b 204 357 226 200 215 278 b 207 131 204 253 206 183 l 207 79 b 208 68 207 75 207 72 z m 403 -28 b 418 -57 403 -40 404 -51 b 525 -61 453 -57 526 -61 l 536 -61 l 539 -57 l 540 -32 l 468 -29 b 431 28 433 -15 431 6 b 433 286 431 114 432 200 l 433 318 l 404 124 b 403 -28 403 72 403 22 z m 318 654 l 322 656 l 331 708 b 363 917 339 763 346 851 l 351 917 b 313 742 338 913 324 825 z "},"n":{"ha":572,"x_min":0,"x_max":0,"o":"m 65 13 b 168 0 97 -4 133 -4 b 194 28 179 0 194 15 b 190 513 193 164 189 375 l 194 517 l 197 517 b 324 26 215 500 314 113 b 332 7 324 22 328 11 b 344 -4 335 3 344 -4 l 493 -1 l 500 6 b 510 675 500 6 510 474 b 510 922 508 758 511 839 l 510 956 b 490 971 506 963 501 971 l 383 969 l 376 961 b 382 613 378 908 382 665 b 386 456 382 597 385 471 b 388 353 386 440 388 368 b 379 349 388 349 383 349 b 368 363 372 347 368 356 b 364 386 368 367 364 382 b 351 431 364 393 356 424 b 254 742 319 538 283 636 b 217 886 243 790 231 836 b 76 971 215 989 149 974 b 61 940 64 971 61 949 b 64 71 63 651 67 358 b 65 43 64 71 65 47 z m 38 43 b 36 69 38 47 36 69 l 36 253 b 35 693 36 399 36 546 b 33 915 35 768 33 842 l 21 915 b 6 885 8 915 6 893 b 8 15 7 596 11 303 b 10 -12 8 15 10 -8 l 10 -43 b 113 -56 42 -60 78 -60 b 139 -29 122 -56 138 -42 b 38 -4 108 -28 72 -22 z m 268 -29 b 276 -49 268 -33 272 -44 b 289 -60 279 -53 289 -60 l 438 -57 l 444 -50 l 444 -29 l 336 -29 b 308 -8 336 -29 311 -12 b 296 24 301 0 297 15 b 225 356 286 83 256 238 b 226 182 225 299 225 239 b 268 -29 250 88 264 7 z m 321 906 l 326 596 l 335 572 l 356 506 b 354 613 354 550 354 603 b 350 914 354 654 351 821 l 328 914 z "},"o":{"ha":501,"x_min":0,"x_max":0,"o":"m 247 -12 b 422 128 344 -12 383 49 b 439 178 431 143 431 163 l 446 288 l 446 794 b 439 829 446 799 443 822 b 258 978 422 911 375 978 b 60 665 85 978 60 781 b 56 353 60 619 56 400 l 56 342 b 79 124 60 264 64 197 b 153 11 92 76 118 42 b 217 -12 168 -6 196 -12 z m 200 154 l 200 665 b 204 810 200 689 204 786 b 208 822 204 814 208 822 b 232 844 213 826 228 844 b 258 853 232 844 251 853 l 263 853 b 310 803 290 853 310 826 l 310 579 b 306 283 310 533 306 326 b 301 178 306 268 301 194 b 254 113 301 150 290 113 b 200 154 232 113 204 128 z m 217 -40 b 132 -8 189 -40 153 -31 l 135 -10 b 51 117 94 25 65 64 b 28 340 38 188 32 258 l 28 353 b 31 511 28 376 29 444 b 32 665 32 578 32 643 b 56 842 32 715 36 782 b 4 610 13 774 4 678 b 0 297 4 564 0 344 l 0 286 b 24 68 4 208 8 142 b 97 -44 36 21 63 -14 b 161 -68 113 -61 140 -68 l 192 -68 b 290 -36 233 -68 265 -56 b 247 -40 276 -39 263 -40 z m 254 747 l 254 524 b 250 228 254 478 250 271 b 246 140 250 215 247 169 l 254 140 b 274 178 269 140 274 163 b 276 233 274 186 275 211 b 278 283 278 256 278 276 b 279 428 278 304 278 365 b 282 579 281 486 282 557 l 282 803 b 258 825 282 814 274 825 b 236 817 256 825 236 817 b 235 810 238 817 238 813 l 232 807 l 232 789 b 254 747 246 779 254 763 z "},"p":{"ha":456,"x_min":0,"x_max":0,"o":"m 78 -1 l 103 -1 b 172 3 129 -1 147 -1 b 188 14 179 3 183 10 b 194 21 188 18 194 21 b 194 415 189 163 197 286 l 199 418 b 272 422 208 418 261 422 b 331 433 290 422 315 426 b 414 533 369 450 407 496 b 418 565 414 536 418 563 b 422 614 418 569 422 610 b 424 779 425 651 424 742 b 371 940 424 838 411 896 b 344 963 364 947 356 958 b 272 976 324 974 294 976 l 78 976 b 63 957 74 976 67 961 l 63 664 b 67 581 63 653 67 592 l 67 76 b 69 39 67 74 69 47 b 78 -1 69 28 67 7 z m 190 550 b 194 847 190 594 194 804 b 221 858 199 863 213 858 b 294 808 254 858 290 844 b 297 686 297 760 297 731 b 294 583 297 657 297 614 b 203 528 286 543 243 528 b 190 546 192 528 190 532 z m 61 -24 b 42 33 38 -7 42 17 l 42 39 b 40 61 42 43 42 51 b 39 76 40 67 39 75 l 39 581 b 36 619 39 586 38 601 b 35 664 35 638 35 658 l 35 921 l 22 921 b 7 901 18 921 11 906 l 7 608 b 11 525 7 597 11 536 l 11 21 b 14 -17 11 18 14 -8 b 22 -57 14 -28 11 -49 l 47 -57 b 117 -53 74 -57 92 -57 b 132 -42 124 -53 128 -46 b 139 -35 132 -37 139 -35 b 138 -29 139 -32 138 -31 l 103 -29 l 78 -29 z m 239 753 b 242 631 242 704 242 675 b 240 563 242 611 242 586 b 267 589 253 568 263 576 l 267 586 b 269 686 269 617 269 658 b 267 807 269 731 269 758 b 222 831 264 822 244 829 l 222 785 b 239 753 231 776 238 767 z m 275 378 b 307 397 286 382 297 389 b 272 394 294 394 282 394 b 236 392 269 394 253 393 b 222 390 232 390 226 390 l 222 367 b 275 378 239 367 261 371 z "},"q":{"ha":496,"x_min":0,"x_max":0,"o":"m 211 8 b 225 -39 215 -7 221 -22 l 238 -82 l 263 -167 b 265 -181 263 -169 265 -181 b 285 -192 269 -187 276 -192 l 364 -192 b 386 -161 385 -192 392 -182 l 364 -90 l 350 -56 l 344 -26 b 328 28 339 -3 333 14 l 338 38 l 356 51 b 435 297 424 118 431 211 b 435 626 438 346 436 575 b 431 700 435 631 432 681 b 428 774 431 710 428 761 b 342 954 419 828 399 926 b 236 975 306 974 276 976 b 93 868 164 972 124 928 b 75 815 83 849 75 833 b 85 786 78 804 85 796 l 85 775 b 63 739 71 764 60 757 b 72 714 63 729 72 724 l 72 710 b 60 692 72 706 63 694 b 60 378 54 589 58 479 b 61 326 60 374 61 340 b 128 54 63 246 67 118 b 176 17 144 40 158 21 b 196 8 181 11 196 8 z m 206 158 l 201 165 b 197 206 201 169 197 199 l 197 213 b 192 447 193 289 190 369 b 193 747 190 478 193 718 b 215 840 190 783 181 815 b 228 847 218 840 225 847 l 236 847 b 293 813 269 849 281 842 b 296 721 293 799 296 732 b 300 626 297 696 300 629 b 300 268 300 597 301 344 b 299 207 300 261 299 217 b 253 135 296 176 290 136 b 206 158 232 135 221 144 z m 190 -21 b 189 -18 190 -19 189 -19 b 161 -8 183 -17 164 -12 b 122 21 146 -3 135 8 l 111 32 b 33 326 40 107 35 242 b 32 364 33 335 32 351 l 32 378 b 31 443 32 400 31 421 b 29 568 29 479 29 531 b 33 704 29 610 31 664 b 42 713 35 706 39 711 b 35 735 39 719 36 725 b 56 786 31 760 40 772 b 54 790 56 788 54 789 l 47 811 b 49 833 47 819 47 826 b 38 813 44 826 40 819 b 19 760 28 793 19 778 b 29 731 22 749 29 740 l 29 719 b 7 683 15 708 4 701 b 17 658 7 674 17 668 l 17 654 b 4 636 17 650 7 639 b 4 322 -1 533 3 424 b 6 271 4 318 6 285 b 72 -1 7 190 11 63 b 121 -39 89 -15 103 -35 b 140 -47 125 -44 140 -47 l 156 -47 b 169 -94 160 -62 165 -78 l 182 -137 l 207 -222 b 210 -236 207 -225 210 -236 b 229 -247 214 -243 221 -247 l 308 -247 b 331 -219 328 -247 335 -237 l 285 -219 b 240 -192 267 -219 250 -208 b 235 -174 240 -192 235 -176 l 211 -90 l 199 -47 l 190 -19 z m 238 757 b 240 665 238 743 240 676 b 244 571 242 640 244 574 b 244 213 244 542 246 289 b 243 164 244 207 243 181 b 253 163 246 163 249 163 b 271 207 265 164 269 188 b 272 242 271 213 272 228 l 272 626 b 268 719 272 629 269 694 b 267 761 268 725 267 743 b 265 807 265 778 265 801 b 236 819 258 819 254 821 l 232 819 b 233 818 235 818 235 818 b 228 815 231 817 229 815 b 218 785 221 808 218 797 b 238 757 225 779 231 771 z "},"r":{"ha":510,"x_min":0,"x_max":0,"o":"m 68 8 l 75 1 b 200 10 108 1 190 -15 b 194 121 200 42 194 79 b 190 278 194 136 190 263 b 194 426 190 300 194 406 b 213 444 194 438 201 444 b 304 229 308 444 304 322 b 303 103 304 182 303 136 b 328 4 303 26 315 15 b 429 3 365 1 394 3 b 461 19 454 3 456 0 b 438 113 453 42 438 75 b 417 417 438 214 429 363 b 358 492 407 460 385 474 l 358 503 b 438 740 426 583 438 650 b 365 946 438 815 431 894 b 278 971 346 960 300 968 b 82 975 213 976 147 975 b 64 917 58 969 64 935 b 68 601 64 811 68 707 b 64 71 68 550 64 121 b 68 8 64 57 65 13 z m 206 554 l 199 561 l 199 842 l 208 853 l 260 853 b 300 772 292 846 300 799 b 293 586 300 710 296 649 b 206 554 271 549 239 554 z m 44 -7 b 36 71 39 1 36 56 b 38 333 36 96 36 214 b 40 601 39 443 40 578 b 38 757 40 654 39 704 b 36 917 36 810 36 864 l 36 919 l 26 919 b 8 861 3 914 8 879 b 13 546 8 756 13 651 b 8 15 13 494 8 65 b 13 -47 8 1 10 -43 l 19 -54 b 144 -46 53 -54 135 -71 l 144 -32 l 106 -29 b 64 -26 93 -28 81 -26 z m 249 174 b 247 47 249 126 247 81 b 272 -51 247 -29 260 -40 b 374 -53 310 -54 339 -53 b 406 -36 399 -53 400 -56 l 401 -25 b 317 -24 376 -25 343 -25 b 275 103 296 -6 275 14 l 275 156 b 276 229 275 179 276 204 b 222 415 276 306 279 406 b 221 357 222 401 222 381 b 249 174 250 314 249 236 z m 256 825 b 226 829 243 825 236 828 l 226 782 b 244 717 240 764 244 735 b 240 582 244 671 242 626 b 265 594 250 583 258 586 b 268 633 265 607 268 621 b 272 772 271 679 272 726 b 256 825 272 789 267 819 z "},"s":{"ha":521,"x_min":0,"x_max":0,"o":"m 271 -8 b 329 -4 279 -8 322 -4 b 404 32 360 0 379 11 b 472 225 465 92 472 140 l 472 274 b 468 300 472 278 468 297 b 301 563 451 406 375 490 b 196 699 258 603 213 639 b 193 715 196 703 193 715 l 193 819 b 247 864 193 844 228 864 b 290 840 263 864 283 860 b 301 807 294 832 301 807 l 301 676 l 422 676 l 431 683 l 431 819 b 383 940 422 864 415 908 b 326 969 368 957 344 961 b 279 985 314 972 279 985 l 189 985 b 157 972 189 985 165 976 b 53 747 68 929 53 840 l 53 688 b 126 531 61 639 94 567 b 219 426 157 494 186 458 b 329 225 297 350 329 338 l 329 181 b 326 149 329 174 326 153 b 267 113 318 124 286 113 b 200 149 236 113 217 124 l 196 157 b 193 204 196 165 193 196 l 193 346 l 186 350 b 83 353 186 350 114 353 l 64 353 l 57 346 l 57 240 b 61 176 57 236 61 188 b 126 40 64 113 79 83 b 247 -8 161 8 196 -8 z m -3 692 l -3 632 b 71 475 6 583 39 511 b 154 379 99 442 125 408 b 197 378 176 378 197 378 l 221 357 l 221 315 b 274 169 257 278 274 249 l 274 140 b 300 156 283 142 296 147 l 300 167 b 301 181 301 174 301 178 l 301 225 b 229 379 301 311 281 331 l 231 378 l 200 406 b 118 496 169 435 143 465 l 104 514 b 25 683 69 554 33 631 l 25 747 b 40 868 25 789 29 831 b -3 692 4 821 -3 757 z m 247 -36 b 107 19 186 -36 146 -17 l 108 19 b 33 175 54 69 36 103 b 31 218 33 181 32 201 l 31 217 b 29 240 29 226 29 239 l 29 297 l 28 297 l 8 297 l 1 290 l 1 185 b 6 121 1 181 6 132 b 71 -15 8 57 24 28 b 192 -64 106 -47 140 -64 l 215 -64 b 274 -60 224 -64 267 -60 b 339 -31 300 -56 318 -47 b 333 -32 338 -31 335 -32 b 306 -33 331 -32 318 -32 b 271 -36 292 -35 278 -36 z m 235 785 b 246 751 239 776 246 751 l 246 660 b 279 621 256 646 267 633 l 367 621 l 375 628 l 375 649 l 274 649 l 274 804 b 264 831 272 811 268 824 b 247 836 263 835 254 836 b 221 819 238 836 221 829 l 221 801 b 235 785 226 799 232 792 z "},"t":{"ha":451,"x_min":0,"x_max":0,"o":"m 143 4 b 181 -7 150 -7 172 -7 l 271 -7 l 274 -3 b 278 19 274 1 278 17 l 278 46 b 289 364 278 76 289 333 l 289 839 l 293 850 l 297 854 l 417 854 l 417 965 l 414 969 b 394 974 410 969 399 974 l 331 974 b 61 978 304 974 86 978 l 42 978 b 35 969 39 978 35 969 l 35 869 b 42 861 35 869 39 861 b 57 857 46 861 53 857 l 154 857 b 165 839 165 857 165 846 l 165 828 b 158 506 165 779 158 556 b 154 481 158 503 154 483 l 154 386 b 147 99 154 344 147 143 b 143 31 147 90 143 39 z m 115 31 b 117 67 115 35 115 51 b 119 99 118 82 119 97 b 124 246 119 121 122 183 b 126 386 125 306 126 365 l 126 481 b 129 500 126 482 126 490 b 131 506 129 501 131 506 b 135 668 131 531 133 600 b 138 828 136 729 138 806 l 138 829 l 57 829 b 36 831 50 829 43 828 l 7 828 l 7 863 l 7 922 l 6 922 l -14 922 b -21 914 -17 922 -21 914 l -21 814 b -14 806 -21 814 -17 806 b 1 801 -10 806 -3 801 l 99 801 b 110 783 110 801 110 790 l 110 772 b 103 450 110 724 103 500 b 99 425 103 447 99 428 l 99 331 b 92 43 99 289 92 88 b 88 -25 92 35 88 -17 l 88 -51 b 125 -62 94 -62 117 -62 l 215 -62 l 218 -58 b 222 -36 218 -54 222 -39 l 222 -35 l 181 -35 b 115 -4 168 -35 135 -35 z m 361 799 l 361 826 l 317 826 l 317 799 z "},"u":{"ha":525,"x_min":0,"x_max":0,"o":"m 457 674 l 461 783 l 461 963 b 442 974 461 974 446 975 b 321 964 413 974 321 981 b 325 949 321 961 321 957 l 325 818 l 329 735 l 325 560 l 325 239 l 321 153 b 289 115 321 142 301 115 l 239 115 b 207 165 228 115 207 153 l 208 938 b 167 976 208 967 196 978 l 79 972 b 68 961 71 972 68 965 b 78 868 68 951 57 876 b 74 853 78 865 74 857 l 74 739 b 67 704 71 735 67 708 b 71 618 67 678 74 644 b 64 208 71 501 64 307 b 254 -6 64 110 92 -6 b 454 165 386 -6 433 69 b 458 189 454 169 458 185 b 460 419 458 279 458 340 b 461 525 460 450 461 485 z m 13 906 b 22 813 13 896 1 821 b 18 797 22 810 18 801 l 18 683 b 11 649 15 679 11 653 b 15 563 11 622 18 589 b 8 153 15 446 8 251 b 199 -61 8 54 36 -61 b 324 -26 253 -61 293 -49 b 254 -33 303 -31 279 -33 b 36 208 68 -33 36 97 b 39 397 36 256 38 325 b 43 621 40 471 43 564 b 42 667 44 632 43 651 b 39 704 40 678 39 692 b 46 742 39 708 42 728 l 46 853 b 47 864 46 856 46 860 b 36 917 40 879 38 899 l 24 917 b 13 906 15 917 13 910 z m 265 908 b 269 893 265 906 265 901 l 269 763 l 274 679 l 269 504 l 269 183 l 267 143 l 289 143 b 293 153 290 143 293 150 l 297 240 l 297 560 l 301 733 l 297 817 l 297 918 b 265 908 279 917 265 914 z "},"v":{"ha":469,"x_min":0,"x_max":0,"o":"m 289 -3 b 304 29 300 -3 304 22 b 307 56 304 33 307 51 b 311 74 307 56 311 71 b 318 135 311 82 318 128 b 363 428 329 235 347 329 b 424 919 385 592 403 756 b 428 953 424 926 428 953 b 417 971 428 960 428 971 l 325 971 b 318 960 322 971 318 960 b 315 946 318 960 315 949 b 292 756 308 908 293 767 b 250 468 282 675 261 549 b 246 424 250 465 246 428 b 242 414 246 421 242 414 l 238 414 b 224 439 226 414 224 432 b 219 465 224 442 219 461 b 217 515 219 468 217 513 b 196 686 217 526 196 675 b 169 897 192 701 178 851 b 167 935 169 901 167 931 b 144 975 167 949 167 975 l 44 975 l 42 971 l 42 957 b 49 865 42 924 44 894 b 74 632 56 788 63 708 l 118 253 b 144 7 118 253 133 18 b 246 -3 163 -11 215 -3 z m 246 -31 b 224 -32 239 -31 232 -32 b 125 -12 192 -33 146 -35 b 90 250 107 6 90 250 l 46 629 l 46 628 b 21 863 35 704 28 785 l 21 861 b 14 919 18 879 15 899 l -11 919 l -14 915 l -14 901 b -7 810 -14 868 -11 839 b 18 576 0 732 7 653 l 63 197 b 89 -49 63 197 78 -37 b 190 -58 107 -67 160 -58 l 233 -58 b 249 -31 243 -58 247 -40 z m 263 904 b 260 890 263 904 260 893 b 236 700 253 853 238 711 l 228 640 b 233 604 229 629 231 617 l 238 575 l 239 585 b 264 758 249 646 258 710 b 265 778 264 761 264 771 b 281 915 268 810 275 872 l 269 915 b 263 904 267 915 263 904 z "},"w":{"ha":744,"x_min":0,"x_max":0,"o":"m 289 -3 b 304 29 300 -3 304 22 b 307 56 304 33 307 51 b 311 74 307 56 311 71 b 318 135 311 82 318 128 l 364 556 l 374 556 b 393 300 382 481 383 375 b 419 -4 393 300 408 7 b 521 -14 439 -22 492 -14 l 564 -14 b 579 18 575 -14 579 11 b 582 44 579 22 582 40 b 586 63 582 44 586 60 b 593 124 586 71 593 117 b 638 424 604 224 624 325 b 699 915 660 588 678 751 b 703 949 699 924 703 949 b 692 967 703 956 703 967 l 600 967 b 593 956 597 967 593 956 b 590 942 593 956 590 946 b 567 751 583 904 568 763 b 525 435 557 671 543 542 b 499 404 514 376 499 397 b 496 431 499 408 496 426 b 482 511 496 435 482 508 b 461 683 482 522 461 671 b 444 893 457 697 453 847 b 442 931 444 897 442 926 b 419 971 442 946 442 971 l 417 971 b 315 946 319 972 319 965 b 292 756 308 908 293 767 b 249 439 282 675 260 518 b 244 393 249 435 244 397 b 242 383 244 390 242 383 l 238 383 b 224 408 226 383 224 401 b 219 435 224 413 219 431 b 217 485 219 439 217 482 b 194 686 217 496 194 675 b 168 897 192 701 176 851 b 165 935 168 901 165 931 b 143 975 165 949 165 975 l 44 975 l 42 971 l 42 957 b 49 865 42 924 44 894 b 74 632 56 788 63 708 b 117 253 89 504 103 379 b 143 7 117 253 132 18 b 244 -3 163 -11 215 -3 z m 244 -31 b 224 -32 238 -31 232 -32 b 124 -14 192 -33 144 -35 b 89 250 106 4 89 250 b 46 629 75 372 61 506 l 46 628 b 21 863 35 704 28 785 l 21 861 b 14 919 18 879 15 899 l -11 919 l -14 915 l -14 901 b -7 810 -14 868 -11 839 b 18 576 0 732 7 653 b 61 197 33 449 47 324 b 88 -49 61 197 76 -37 b 189 -58 107 -67 160 -58 l 233 -58 b 249 -31 243 -58 247 -40 z m 364 -60 b 465 -69 383 -78 436 -69 l 508 -69 b 524 -42 518 -69 522 -51 l 521 -42 b 500 -43 514 -42 508 -43 b 400 -25 468 -44 421 -46 b 365 296 381 -6 365 296 b 364 301 365 297 364 299 l 346 132 b 344 118 346 128 346 124 b 364 -60 350 36 357 -53 z m 538 900 b 535 886 538 900 535 890 b 511 696 528 849 513 707 b 500 597 507 668 504 633 l 510 517 l 533 706 l 539 754 b 540 774 539 757 539 767 b 556 911 543 806 550 868 l 544 911 b 538 900 542 911 538 900 z m 260 890 b 236 700 253 853 238 711 l 228 632 b 233 588 229 618 231 603 b 236 561 235 578 236 569 b 264 758 247 632 258 708 b 265 778 264 761 264 771 b 281 913 268 810 275 869 b 260 890 263 908 261 901 z "},"x":{"ha":500,"x_min":0,"x_max":0,"o":"m 49 4 l 49 -7 l 57 -10 l 165 -10 b 185 0 172 -10 181 -7 b 188 14 185 0 188 11 b 249 314 208 114 226 215 b 251 336 249 318 251 332 b 261 354 251 340 251 354 b 268 340 265 354 268 343 b 279 258 275 314 275 283 l 311 43 b 315 4 311 39 315 7 l 318 -7 l 322 -10 l 432 -10 b 442 0 439 -10 442 -3 l 442 4 b 388 265 421 103 406 165 b 346 446 372 343 361 368 b 340 474 346 449 342 464 b 406 729 347 508 399 693 b 450 975 406 729 456 967 l 340 975 b 322 965 333 975 326 972 b 319 951 322 965 319 954 b 268 647 297 851 289 746 b 265 626 268 644 265 629 b 256 608 265 622 265 608 b 249 622 251 608 249 619 b 236 704 240 647 240 679 l 196 922 b 192 961 196 926 192 958 l 188 972 l 185 975 l 75 975 b 64 965 68 975 64 968 l 64 961 b 160 526 81 815 135 667 b 165 499 160 524 164 508 b 110 253 158 463 117 289 b 60 78 97 197 71 135 b 49 4 57 54 49 28 z m 21 4 b 26 54 21 22 24 40 l 32 82 b 60 181 36 108 49 146 b 82 258 68 207 76 233 b 111 382 85 278 99 331 b 138 501 118 421 129 461 b 135 510 138 503 135 508 b 132 521 133 518 132 524 b 90 701 119 586 104 649 b 42 919 71 774 53 846 l 19 919 b 8 910 13 919 8 913 l 8 906 b 104 471 25 760 79 611 b 104 443 104 468 103 453 b 39 197 97 407 46 233 b 1 22 26 142 13 79 b -7 -51 -1 -1 -7 -28 l -7 -62 l 1 -65 l 110 -65 b 129 -56 117 -65 125 -62 b 132 -42 129 -56 132 -44 l 132 -37 l 57 -37 l 21 -35 z m 256 -12 b 260 -51 256 -17 260 -49 l 263 -62 l 267 -65 l 376 -65 b 386 -56 383 -65 386 -58 l 386 -51 b 383 -37 385 -46 383 -42 l 322 -37 l 290 -35 l 288 4 b 286 17 288 6 288 8 b 283 39 285 24 283 35 l 257 218 b 239 126 250 188 244 156 l 236 114 z m 267 910 b 264 896 267 910 264 899 b 246 803 257 865 251 833 l 257 746 l 264 796 b 283 919 269 836 276 878 b 267 910 276 919 271 917 z "},"y":{"ha":476,"x_min":0,"x_max":0,"o":"m 181 3 l 188 -1 l 304 0 l 311 7 l 311 263 b 318 315 311 263 315 301 b 332 390 322 340 329 365 b 339 425 332 394 339 422 b 378 658 353 503 364 581 b 435 958 396 758 413 860 l 435 963 b 424 972 435 965 432 972 l 315 972 l 311 969 l 307 958 b 304 919 307 956 304 924 l 263 638 b 251 557 258 614 258 582 b 244 543 251 554 249 543 b 235 561 235 543 235 557 b 232 582 235 564 232 578 b 179 949 210 681 201 849 b 176 963 179 951 176 963 b 158 972 172 969 165 972 l 49 972 l 42 969 l 42 958 b 53 885 42 935 49 908 b 89 711 64 828 78 768 l 158 372 b 179 267 165 338 176 301 l 179 214 b 178 90 179 196 178 111 b 181 3 181 85 174 8 z m 165 -21 b 150 61 151 -12 149 31 l 150 83 b 151 156 150 94 151 129 l 151 265 b 140 331 149 289 144 310 l 131 365 l 61 706 l 43 792 l 44 790 b 25 879 38 819 31 850 l 26 878 l 22 896 b 17 917 19 903 18 910 l -7 917 l -14 914 l -14 903 b -3 829 -14 879 -7 853 b 33 656 8 772 22 713 l 103 317 b 124 211 110 282 121 246 l 124 158 b 122 35 124 140 122 56 b 125 -53 125 29 118 -47 l 132 -57 l 249 -56 l 256 -49 l 256 -28 l 176 -29 l 161 -17 z m 256 914 l 251 903 b 249 864 251 900 249 868 l 233 764 l 242 694 l 275 917 l 260 917 z "},"z":{"ha":411,"x_min":0,"x_max":0,"o":"m 60 7 l 67 0 b 133 -3 67 0 113 -3 b 321 -7 193 -7 257 -7 l 349 -7 l 356 -3 l 356 88 b 325 118 356 108 347 118 l 179 118 l 356 849 l 356 922 b 328 979 356 940 356 979 b 310 975 324 979 314 975 l 156 975 l 144 972 l 136 972 l 122 979 l 96 979 b 69 982 92 979 74 982 b 53 954 56 982 53 961 b 49 932 53 947 49 932 l 49 865 l 56 863 l 179 863 b 215 860 182 863 208 860 l 56 133 b 50 113 63 119 53 113 z m 19 140 b 181 833 19 140 24 138 b 179 835 179 833 179 835 l 56 835 l 21 838 l 21 925 b 14 926 17 926 15 926 b -3 899 0 926 -3 906 b -7 876 -3 892 -7 876 l -7 810 l 0 807 l 124 807 b 160 804 126 807 153 804 l -4 78 b -10 57 3 64 -7 57 l 4 -49 l 11 -56 b 78 -58 11 -56 57 -58 b 265 -62 138 -62 201 -62 l 293 -62 l 300 -58 l 300 -35 b 132 -31 243 -35 185 -33 b 56 -28 107 -31 56 -28 l 33 -6 z "},"{":{"ha":460,"x_min":0,"x_max":0,"o":"m 372 -131 b 376 -101 372 -131 376 -110 b 375 -26 376 -92 375 -26 l 368 -19 b 292 -21 321 -19 317 -21 b 249 68 276 -21 249 -10 b 296 386 249 190 296 236 b 193 497 296 428 261 476 b 299 643 272 518 299 600 b 240 951 299 767 240 883 b 290 996 240 990 247 997 l 351 994 l 354 1110 b 340 1118 353 1115 347 1114 b 221 1114 267 1118 253 1114 b 107 968 151 1114 107 1067 b 167 656 107 897 167 758 b 67 563 167 592 129 567 b 42 540 57 563 42 550 l 42 443 b 67 421 42 433 57 421 b 167 340 138 421 167 401 b 113 47 167 275 113 140 b 251 -136 113 -74 153 -136 b 365 -133 293 -136 365 -133 z m 317 -186 b 321 -162 317 -186 319 -172 b 251 -164 297 -164 271 -164 b 85 47 133 -164 85 -92 b 117 225 85 97 100 167 b 139 340 128 269 139 314 b 67 393 139 381 118 393 b 14 443 46 393 14 421 l 14 507 l 11 507 b -14 485 1 507 -14 494 l -14 388 b 11 365 -14 378 1 365 b 111 285 82 365 111 346 b 57 -8 111 219 57 85 b 196 -192 57 -129 97 -192 b 310 -189 238 -192 310 -189 z m 51 913 b 111 601 51 842 110 704 b 139 656 128 611 139 629 b 107 832 139 710 122 774 b 79 968 92 885 79 935 b 83 1024 79 989 81 1007 b 51 913 63 1000 51 963 z m 296 939 l 296 968 l 289 968 b 268 951 271 968 268 965 l 268 939 z "},"|":{"ha":432,"x_min":0,"x_max":0,"o":"m 254 1028 l 182 1028 b 168 1015 172 1025 171 1025 b 164 285 167 924 161 378 b 165 151 163 278 165 183 b 168 -71 165 129 168 -49 b 244 -79 164 -87 233 -69 b 264 -58 249 -72 260 -69 b 265 129 264 -40 267 113 b 264 860 267 215 261 775 b 261 1021 263 885 261 997 z m 113 960 b 108 229 111 868 106 322 b 110 96 107 222 110 128 b 113 -126 110 74 113 -104 b 189 -135 108 -143 178 -125 b 208 -114 193 -128 204 -125 l 208 -106 b 140 -67 168 -108 128 -112 b 139 39 140 -53 139 -8 b 138 151 138 83 138 142 b 136 208 138 164 136 186 b 138 293 136 244 138 293 l 136 285 b 135 385 136 303 135 339 b 139 972 135 549 138 847 l 126 972 b 113 960 117 969 115 969 z "},"}":{"ha":460,"x_min":0,"x_max":0,"o":"m 108 -12 l 106 -128 b 119 -136 107 -133 113 -132 l 211 -136 b 353 28 296 -136 353 -71 b 293 342 353 99 293 239 b 393 435 293 406 331 431 b 418 457 403 435 418 447 l 418 554 b 393 576 418 564 403 576 b 293 657 322 576 293 596 b 347 935 293 722 347 842 b 208 1118 347 1056 307 1118 b 94 1115 167 1118 94 1115 l 88 1113 b 83 1083 88 1113 83 1092 b 85 1008 83 1074 85 1008 l 92 1001 b 168 1003 139 1001 143 1003 b 211 914 183 1003 211 992 b 164 611 211 792 164 761 b 267 500 164 569 199 521 b 161 354 188 479 161 397 b 219 44 161 231 219 113 b 169 -14 219 6 213 -15 z m 39 1060 l 32 1057 b 28 1028 32 1057 28 1036 b 29 953 28 1018 29 953 l 36 946 b 113 947 83 946 88 947 b 156 858 128 947 156 936 b 108 556 156 736 108 706 b 169 463 108 524 129 486 b 204 499 179 475 190 488 b 136 611 158 528 136 571 b 163 788 136 694 149 742 l 163 786 b 183 914 172 822 183 857 b 168 975 183 967 174 975 l 143 975 b 81 974 132 975 108 974 l 57 997 b 56 1060 57 997 56 1035 z m 169 14 b 192 44 189 13 192 24 b 171 147 192 69 182 107 b 133 354 154 207 133 279 b 139 396 133 365 135 381 b 106 299 114 364 106 324 b 161 14 106 189 151 83 z m 53 -68 l 50 -183 b 64 -192 51 -189 57 -187 l 156 -192 b 244 -161 190 -192 221 -181 b 211 -164 233 -162 222 -164 l 113 -164 b 106 -161 110 -162 108 -161 b 78 -135 96 -157 86 -151 l 79 -68 z m 338 379 b 363 401 347 379 363 392 b 329 378 349 396 336 389 b 338 379 332 378 335 379 z "},"~":{"ha":607,"x_min":0,"x_max":0,"o":"m 358 515 b 393 543 371 533 379 543 b 411 518 401 543 408 540 l 411 442 b 432 421 411 426 417 421 l 503 422 b 524 443 517 422 524 428 l 524 544 b 457 657 519 606 492 640 b 413 660 449 658 439 660 b 260 558 346 660 310 622 b 200 500 239 532 218 500 b 188 524 190 500 189 510 l 186 606 b 165 626 186 619 179 626 l 101 624 b 81 603 86 624 81 617 l 81 586 b 79 508 81 571 79 528 b 193 389 79 428 132 389 b 350 503 267 389 306 442 z m 25 547 l 25 531 b 24 453 25 515 24 472 b 138 333 24 372 76 333 b 222 363 172 333 199 344 b 193 361 213 361 203 361 b 51 508 117 361 51 410 b 53 551 51 518 53 536 l 53 568 l 46 568 b 25 547 31 568 25 561 z m 372 486 l 356 463 l 356 386 b 376 365 356 371 361 365 l 447 367 b 468 388 461 367 468 372 l 468 393 l 432 393 b 383 442 396 393 383 406 l 383 504 l 381 500 l 382 500 z "},"":{"ha":483,"x_min":0,"x_max":0,"o":"m 319 975 l 294 975 l 297 978 l 232 1186 b 217 1196 226 1193 225 1193 l 135 1196 l 129 1190 l 165 1063 l 193 982 l 200 975 l 165 975 b 147 932 154 975 147 950 b 47 142 117 661 76 414 b 32 11 42 99 32 54 b 54 4 38 1 47 4 b 124 8 78 4 101 4 b 169 176 168 8 140 138 b 281 172 178 176 240 172 b 307 54 304 172 304 86 b 319 0 307 24 319 0 b 449 11 343 0 449 0 b 444 35 451 13 444 21 b 429 168 438 81 433 122 b 407 340 425 183 410 325 b 326 967 378 558 358 749 z m 185 292 b 178 303 183 292 174 299 b 185 367 178 325 181 344 b 219 658 196 464 207 563 l 226 667 b 261 432 253 654 256 494 b 276 299 261 394 276 344 b 265 283 276 294 272 283 z m 311 735 b 304 746 304 735 304 738 b 315 753 304 750 307 753 b 322 750 319 753 322 753 b 311 735 322 742 319 735 z m 92 876 b -8 86 61 606 21 358 b -24 -44 -14 43 -24 -1 b -1 -51 -18 -54 -8 -51 b 68 -47 22 -51 46 -51 b 90 -24 79 -47 86 -37 b 38 -25 75 -24 58 -25 b 4 4 28 -25 15 -21 b 14 106 4 50 10 75 l 19 144 b 118 919 47 413 90 657 l 110 919 b 92 876 99 919 92 894 z m 225 117 b 251 -1 249 117 249 31 b 264 -56 251 -32 264 -56 b 393 -44 288 -56 393 -56 b 389 -24 396 -43 389 -36 b 303 -28 353 -28 317 -28 b 275 119 292 -19 275 49 b 279 144 275 132 276 142 b 189 147 251 144 211 146 l 186 147 b 182 117 183 139 182 129 z m 74 1135 l 110 1007 l 125 963 b 157 1001 131 981 140 996 l 139 1054 l 114 1140 l 79 1140 z m 213 361 l 208 340 l 213 315 l 247 313 b 240 368 246 331 243 350 l 240 367 b 233 432 236 389 233 410 l 228 508 l 215 389 b 213 361 215 381 213 369 z "},"":{"ha":501,"x_min":0,"x_max":0,"o":"m 329 975 l 304 975 l 331 1049 l 367 1176 l 361 1182 l 279 1182 b 264 1172 271 1179 269 1179 l 201 975 l 175 975 b 157 932 164 975 157 950 b 57 142 126 661 86 414 b 42 11 51 99 42 54 b 64 4 47 1 57 4 b 133 8 88 4 111 4 b 179 176 178 8 150 138 b 290 172 188 176 250 172 b 317 54 314 172 314 86 b 329 0 317 24 329 0 b 458 11 353 0 458 0 b 454 35 461 13 454 21 b 439 168 447 81 443 122 b 417 340 435 183 419 325 b 336 967 388 558 368 749 z m 194 292 b 188 303 193 292 183 299 b 194 367 188 325 190 344 b 229 658 206 464 217 563 l 236 667 b 271 432 263 654 265 494 b 286 299 271 394 286 344 b 275 283 286 294 282 283 z m 321 735 b 314 746 314 735 314 738 b 325 753 314 750 317 753 b 332 750 329 753 332 753 b 321 735 332 742 329 735 z m 101 876 b 1 86 71 606 31 358 b -14 -44 -4 43 -14 -1 b 8 -51 -8 -54 1 -51 b 78 -47 32 -51 56 -51 b 100 -24 89 -47 96 -37 l 60 -24 b 14 4 46 -24 31 -31 b 24 106 14 50 19 75 l 29 144 b 82 564 44 281 65 433 b 128 919 97 681 114 797 l 119 919 b 101 876 108 919 101 894 z m 235 117 b 261 -1 258 117 258 31 b 274 -56 261 -32 274 -56 b 403 -44 297 -56 403 -56 b 399 -24 406 -43 399 -36 b 313 -28 363 -28 326 -28 b 289 54 313 -28 289 17 b 288 74 289 60 288 65 b 289 144 285 100 282 140 b 199 147 261 144 221 146 l 196 147 b 192 117 193 139 192 129 z m 222 361 l 218 340 l 222 315 l 257 313 b 250 368 256 331 253 350 l 250 367 b 243 432 246 389 243 410 l 240 481 l 238 508 l 225 389 b 222 361 225 381 222 369 z m 208 1117 l 172 1003 l 175 1003 l 182 1003 l 219 1125 b 208 1117 215 1124 213 1122 z "},"":{"ha":501,"x_min":0,"x_max":0,"o":"m 329 975 l 175 975 b 157 932 164 975 157 950 b 57 142 126 661 86 414 b 42 11 51 99 42 54 b 64 4 47 1 57 4 b 133 8 88 4 111 4 b 179 176 178 8 150 138 b 290 172 188 176 250 172 b 317 54 314 172 314 86 b 329 0 317 24 329 0 b 458 11 353 0 458 0 b 454 35 461 13 454 21 b 439 168 447 81 443 122 b 417 340 435 183 419 325 b 336 967 388 558 368 749 z m 321 735 b 314 746 314 735 314 738 b 325 753 314 750 317 753 b 332 750 329 753 332 753 b 321 735 332 742 329 735 z m 194 292 b 188 303 193 292 183 299 b 194 367 188 325 190 344 b 229 658 206 464 217 563 l 236 667 b 271 432 263 654 265 494 b 286 299 271 394 286 344 b 275 283 286 294 282 283 z m 104 1000 l 182 1003 l 192 1013 l 229 1061 l 250 1104 l 275 1061 l 308 1013 l 318 1003 l 396 1000 l 403 1008 l 306 1158 b 292 1167 300 1165 299 1165 l 208 1167 b 194 1158 201 1165 200 1165 l 97 1008 z m 101 876 b 1 86 71 606 31 358 b -14 -44 -4 43 -14 -1 b 8 -51 -8 -54 1 -51 b 78 -47 32 -51 56 -51 b 100 -24 89 -47 96 -37 l 60 -24 b 14 4 46 -24 31 -31 b 24 106 14 50 19 75 l 29 144 b 82 564 44 281 65 433 b 128 919 97 681 114 797 l 119 919 b 101 876 108 919 101 894 z m 235 117 b 261 -1 258 117 258 31 b 274 -56 261 -32 274 -56 b 403 -44 297 -56 403 -56 b 399 -24 406 -43 399 -36 b 313 -28 363 -28 326 -28 b 289 54 313 -28 289 17 b 288 74 289 60 288 65 b 289 144 285 100 282 140 b 199 147 261 144 221 146 l 196 147 b 192 117 193 139 192 129 z m 222 361 l 218 340 l 222 315 l 257 313 b 250 368 256 331 253 350 l 250 367 b 243 432 246 389 243 410 l 240 481 l 238 508 l 225 389 b 222 361 225 381 222 369 z m 49 944 l 126 947 l 131 951 l 139 974 l 92 972 l 72 1000 l 42 953 z m 289 1006 b 254 1065 290 1006 254 1065 b 246 1043 254 1065 246 1043 b 265 1013 246 1043 265 1013 b 289 1006 265 1013 278 1003 z "},"":{"ha":501,"x_min":0,"x_max":0,"o":"m 329 975 l 175 975 b 157 932 164 975 157 950 b 57 142 126 661 86 414 b 42 11 51 99 42 54 b 64 4 47 1 57 4 b 133 8 88 4 111 4 b 179 176 178 8 150 138 b 290 172 188 176 250 172 b 317 54 314 172 314 86 b 329 0 317 24 329 0 b 458 11 353 0 458 0 b 454 35 461 13 454 21 b 439 168 447 81 443 122 b 417 340 435 183 419 325 b 336 967 388 558 368 749 z m 321 735 b 314 746 314 735 314 738 b 325 753 314 750 317 753 b 332 750 329 753 332 753 b 321 735 332 742 329 735 z m 194 292 b 188 303 193 292 183 299 b 194 367 188 325 190 344 b 229 658 206 464 217 563 l 236 667 b 271 432 263 654 265 494 b 286 299 271 394 286 344 b 275 283 286 294 282 283 z m 288 1088 b 311 1106 296 1099 301 1106 b 324 1089 317 1106 321 1104 l 324 1038 b 338 1024 324 1028 326 1024 l 385 1025 b 399 1039 393 1025 399 1028 l 399 1107 b 354 1182 396 1147 376 1171 b 324 1183 349 1182 342 1183 b 222 1115 279 1183 256 1158 b 182 1076 208 1099 194 1076 b 174 1093 175 1076 175 1083 l 172 1147 b 158 1161 172 1157 168 1161 l 117 1160 b 103 1146 106 1160 103 1154 l 103 1135 b 101 1082 103 1124 101 1096 b 178 1003 101 1028 136 1003 b 282 1079 226 1003 253 1038 z m 101 876 b 1 86 71 606 31 358 b -14 -44 -4 43 -14 -1 b 8 -51 -8 -54 1 -51 b 78 -47 32 -51 56 -51 b 100 -24 89 -47 96 -37 l 60 -24 b 14 4 46 -24 31 -31 b 24 106 14 50 19 75 l 29 144 b 82 564 44 281 65 433 b 128 919 97 681 114 797 l 119 919 b 101 876 108 919 101 894 z m 235 117 b 261 -1 258 117 258 31 b 274 -56 261 -32 274 -56 b 403 -44 297 -56 403 -56 b 399 -24 406 -43 399 -36 b 313 -28 363 -28 326 -28 b 289 54 313 -28 289 17 b 288 74 289 60 288 65 b 289 144 285 100 282 140 b 199 147 261 144 221 146 l 196 147 b 192 117 193 139 192 129 z m 47 1090 l 47 1079 b 46 1026 47 1068 46 1040 b 122 947 46 972 81 947 l 129 947 b 142 979 131 958 135 969 b 74 1082 101 992 74 1024 b 75 1104 74 1088 75 1096 l 61 1104 b 47 1090 50 1104 47 1099 z m 222 361 l 218 340 l 222 315 l 257 313 b 250 368 256 331 253 350 l 250 367 b 243 432 246 389 243 410 l 240 481 l 238 508 l 225 389 b 222 361 225 381 222 369 z m 296 1050 b 268 1017 286 1038 278 1026 l 268 1003 l 307 1003 b 296 1038 299 1008 296 1021 z "},"":{"ha":501,"x_min":0,"x_max":0,"o":"m 329 975 l 175 975 b 157 932 164 975 157 950 b 57 142 126 661 86 414 b 42 11 51 99 42 54 b 64 4 47 1 57 4 b 133 8 88 4 111 4 b 179 176 178 8 150 138 b 290 172 188 176 250 172 b 317 54 314 172 314 86 b 329 0 317 24 329 0 b 458 11 353 0 458 0 b 454 35 461 13 454 21 b 439 168 447 81 443 122 b 417 340 435 183 419 325 b 336 967 388 558 368 749 z m 321 735 b 314 746 314 735 314 738 b 325 753 314 750 317 753 b 332 750 329 753 332 753 b 321 735 332 742 329 735 z m 194 292 b 188 303 193 292 183 299 b 194 367 188 325 190 344 b 229 658 206 464 217 563 l 236 667 b 271 432 263 654 265 494 b 286 299 271 394 286 344 b 275 283 286 294 282 283 z m 282 1014 l 397 1014 l 406 1022 b 408 1151 406 1022 406 1078 l 396 1160 l 274 1160 l 269 1146 l 269 1069 l 274 1022 z m 101 1011 l 219 1011 l 229 1019 l 229 1125 l 218 1157 l 96 1157 l 93 1143 l 93 1064 l 92 1019 z m 101 876 b 1 86 71 606 31 358 b -14 -44 -4 43 -14 -1 b 8 -51 -8 -54 1 -51 b 78 -47 32 -51 56 -51 b 100 -24 89 -47 96 -37 l 60 -24 b 14 4 46 -24 31 -31 b 24 106 14 50 19 75 l 29 144 b 82 564 44 281 65 433 b 128 919 97 681 114 797 l 119 919 b 101 876 108 919 101 894 z m 235 117 b 261 -1 258 117 258 31 b 274 -56 261 -32 274 -56 b 403 -44 297 -56 403 -56 b 399 -24 406 -43 399 -36 b 313 -28 363 -28 326 -28 b 289 54 313 -28 289 17 b 288 74 289 60 288 65 b 289 144 285 100 282 140 b 199 147 261 144 221 146 l 196 147 b 192 117 193 139 192 129 z m 46 956 l 132 956 b 143 983 133 965 138 975 l 92 983 l 64 1008 l 65 1064 l 65 1101 l 40 1101 l 38 1088 l 38 1008 l 36 964 z m 222 361 l 218 340 l 222 315 l 257 313 b 250 368 256 331 253 350 l 250 367 b 243 432 246 389 243 410 l 240 481 l 238 508 l 225 389 b 222 361 225 381 222 369 z "},"":{"ha":501,"x_min":0,"x_max":0,"o":"m 157 932 b 57 142 126 661 86 414 b 42 11 51 99 42 54 b 64 4 47 1 57 4 b 133 8 88 4 111 4 b 179 176 178 8 150 138 b 290 172 188 176 250 172 b 317 54 314 172 314 86 b 329 0 317 24 329 0 b 458 11 353 0 458 0 b 454 35 461 13 454 21 b 439 168 447 81 443 122 b 417 340 435 183 419 325 b 340 940 389 549 369 733 b 396 1049 386 965 396 1006 b 281 1181 396 1063 374 1181 l 258 1181 b 129 1117 186 1181 160 1153 b 118 1096 124 1110 124 1100 l 113 1046 b 157 944 113 1001 128 967 z m 194 292 b 188 303 193 292 183 299 b 194 367 188 325 190 344 b 229 658 206 464 217 563 l 236 667 b 271 432 263 654 265 494 b 286 299 271 394 286 344 b 275 283 286 294 282 283 z m 236 986 b 178 1053 190 986 178 1044 b 221 1111 178 1076 183 1100 b 236 1117 225 1115 231 1117 l 253 1117 b 279 1115 261 1117 269 1117 b 322 1054 303 1111 322 1083 l 319 1028 b 317 1017 317 1025 317 1018 b 247 986 299 999 283 986 z m 321 735 b 314 746 314 735 314 738 b 325 753 314 750 317 753 b 332 750 329 753 332 753 b 321 735 332 742 329 735 z m 82 564 b 129 932 99 685 115 804 b 85 1049 100 960 85 999 l 88 1078 l 74 1061 b 63 1040 68 1054 68 1044 l 57 990 b 101 889 57 946 72 911 l 101 876 b 1 86 71 606 31 358 b -14 -44 -4 43 -14 -1 b 8 -51 -8 -54 1 -51 b 78 -47 32 -51 56 -51 b 100 -24 89 -47 96 -37 l 60 -24 b 14 4 46 -24 31 -31 b 24 106 14 50 19 75 l 29 144 b 82 564 44 281 65 433 z m 235 117 b 261 -1 258 117 258 31 b 274 -56 261 -32 274 -56 b 403 -44 297 -56 403 -56 b 399 -24 406 -43 399 -36 b 313 -28 363 -28 326 -28 b 289 54 313 -28 289 17 b 288 74 289 60 288 65 b 289 144 285 100 282 140 b 199 147 261 144 221 146 l 196 147 b 192 117 193 139 192 129 z m 224 1060 b 264 1015 242 1056 258 1038 b 289 1028 275 1017 281 1021 b 292 1035 289 1029 292 1033 b 294 1054 292 1039 294 1050 b 275 1088 294 1071 286 1085 b 253 1089 267 1089 257 1089 l 236 1089 b 235 1086 238 1089 236 1088 b 206 1061 215 1081 208 1071 b 224 1060 211 1061 217 1060 z m 222 361 l 218 340 l 222 315 l 257 313 b 250 368 256 331 253 350 l 250 367 b 243 432 246 389 243 410 l 240 481 l 238 508 l 225 389 b 222 361 225 381 222 369 z "},"":{"ha":631,"x_min":0,"x_max":0,"o":"m 292 54 b 299 0 288 24 299 0 l 307 0 b 321 -4 310 -3 315 -4 b 371 1 331 -4 351 -1 b 424 11 400 3 422 6 b 422 18 425 11 424 14 b 488 0 440 15 432 -4 b 501 3 493 1 501 4 b 519 -4 501 6 513 -1 b 572 -7 539 -4 556 -7 b 594 85 601 -7 594 75 l 594 110 l 586 113 b 428 115 532 113 443 115 b 418 124 422 117 419 119 l 418 168 b 414 308 415 179 415 261 l 414 443 b 435 457 414 454 428 457 b 533 454 467 457 500 454 b 540 465 538 457 540 461 l 540 560 b 522 569 540 569 531 569 l 425 569 b 410 746 408 569 410 700 b 418 851 410 767 404 814 l 575 851 b 583 863 579 854 581 861 l 583 964 l 575 971 b 299 979 521 978 386 979 l 292 975 l 238 975 b 215 932 226 975 217 950 b 40 142 160 661 94 414 b 14 11 31 99 18 54 b 33 4 18 1 28 4 b 103 8 57 4 81 4 b 165 176 147 8 132 138 b 276 172 174 176 236 172 b 292 143 285 172 289 160 z m 199 292 b 193 303 197 292 188 299 b 206 367 194 325 200 344 l 268 658 l 276 667 b 289 432 301 654 289 494 b 290 299 285 394 296 344 b 278 283 290 294 285 283 z m 160 876 b -15 86 104 606 39 358 b -42 -44 -25 43 -37 -1 b -22 -51 -37 -54 -28 -51 b 47 -47 1 -51 25 -51 b 72 -22 60 -47 67 -37 b 21 -24 58 -24 40 -24 b -14 8 8 -24 -4 -21 b 13 146 -11 57 6 96 b 106 565 42 289 74 429 l 104 564 b 183 919 131 681 158 797 l 182 919 b 160 876 171 919 161 894 z m 264 142 b 185 147 269 146 200 146 l 179 147 b 172 117 176 139 174 129 l 221 117 b 236 88 229 117 233 104 l 236 -1 b 243 -56 232 -32 243 -56 l 251 -56 b 265 -60 254 -58 260 -60 b 315 -54 275 -60 296 -57 b 368 -44 344 -53 367 -50 b 367 -37 369 -44 368 -42 b 432 -56 385 -40 376 -60 b 446 -53 438 -54 446 -51 b 464 -60 446 -50 457 -57 b 517 -62 483 -60 500 -62 b 536 -35 528 -62 533 -50 b 425 -17 508 -36 486 -35 b 321 -32 403 -26 347 -32 b 289 -22 310 -32 297 -29 b 264 51 294 -22 264 -1 z m 233 315 l 264 313 l 264 329 b 260 417 264 360 260 386 b 263 485 260 436 263 454 l 263 500 l 232 363 b 233 315 232 347 232 332 z m 519 796 b 528 807 524 799 525 806 l 528 824 l 439 824 b 436 796 438 814 436 806 z m 478 399 b 485 410 482 401 485 406 l 485 428 b 442 429 468 428 454 429 l 442 399 z "},"":{"ha":481,"x_min":0,"x_max":0,"o":"m 126 -135 l 122 -153 l 125 -224 l 142 -232 b 307 -78 261 -232 313 -169 l 303 -3 b 408 76 349 4 388 26 b 439 204 428 121 439 156 l 439 343 l 432 347 b 379 350 432 347 394 350 l 326 350 l 322 347 l 322 158 b 307 132 322 158 311 140 b 256 107 296 118 274 107 b 194 174 214 107 199 136 b 192 729 194 257 192 647 l 192 760 b 247 865 192 804 188 865 b 296 790 293 865 296 824 l 296 660 b 310 646 296 650 300 646 l 374 646 b 411 661 385 646 411 642 b 407 688 411 668 407 675 b 414 706 407 694 407 699 b 403 879 413 761 417 839 b 375 925 400 888 379 921 b 333 967 371 932 342 958 b 247 989 307 985 278 989 b 124 940 183 989 168 978 l 119 936 b 64 756 82 883 64 819 l 64 189 b 67 158 64 189 67 167 b 135 19 75 99 90 61 l 146 13 b 208 -4 167 3 188 -1 l 208 -62 b 126 -135 206 -153 126 -135 z m 8 700 l 8 133 b 11 103 8 133 11 111 b 79 -36 19 43 35 6 l 90 -43 b 153 -60 111 -53 132 -57 l 153 -107 b 181 -61 165 -104 179 -93 l 181 -29 b 133 -12 165 -26 150 -19 l 117 -3 b 39 154 65 44 49 86 b 36 186 39 164 36 186 l 36 756 b 53 864 36 792 42 829 b 8 700 22 814 8 757 z m 240 735 l 240 604 b 254 590 240 594 244 590 l 318 590 b 356 606 329 590 356 586 b 353 618 356 608 354 613 l 310 618 b 268 660 281 618 268 631 l 268 790 b 247 838 268 811 267 838 b 221 801 229 838 222 821 b 240 735 239 788 240 758 z m 71 -190 l 67 -208 l 69 -279 l 86 -287 b 207 -251 140 -287 181 -275 b 135 -260 186 -257 161 -260 l 97 -242 l 96 -192 b 71 -190 82 -193 71 -190 z m 267 292 l 267 136 b 282 144 272 139 278 140 b 294 167 286 153 294 167 l 294 294 l 271 294 z "},"":{"ha":489,"x_min":0,"x_max":0,"o":"m 78 -3 l 103 -3 b 172 1 129 -3 147 -3 l 194 -3 l 199 1 b 272 4 208 1 261 4 b 331 15 290 4 315 8 b 422 181 417 60 422 125 b 424 778 422 282 424 740 b 371 939 424 836 411 894 b 344 961 364 946 356 957 b 272 975 324 972 294 975 l 78 975 b 63 968 74 975 67 972 l 63 663 b 67 579 63 651 67 590 l 67 524 b 29 525 51 524 36 524 l 25 522 l 24 479 l 24 476 b 33 465 24 472 24 465 l 67 465 l 67 75 b 69 38 67 72 69 46 b 78 -3 69 26 67 6 z m 190 129 l 190 133 b 192 465 190 153 192 306 l 238 465 b 247 467 238 465 244 467 l 254 467 b 260 471 256 467 260 471 l 257 518 b 244 525 257 522 254 525 l 192 525 b 194 846 193 679 194 825 b 221 857 199 861 213 857 b 294 807 254 857 290 843 b 297 685 297 758 297 729 b 294 167 297 656 297 196 b 217 111 286 126 258 111 b 190 129 206 111 190 115 z m 160 150 b 153 161 153 150 153 154 b 164 169 153 165 156 169 b 171 165 168 169 171 169 b 160 150 171 158 168 150 z m 61 -25 b 42 32 38 -8 42 15 l 42 38 b 40 60 42 42 42 50 b 39 75 40 65 39 74 l 39 438 l 33 438 b -4 468 3 438 -3 451 b -26 469 -12 468 -22 468 l -31 467 l -32 424 l -32 421 b -22 410 -32 417 -32 410 l 11 410 l 11 19 b 14 -18 11 17 14 -10 b 22 -58 14 -29 11 -50 l 47 -58 b 117 -54 74 -58 92 -58 l 139 -58 l 143 -54 b 217 -51 153 -54 206 -51 b 275 -40 235 -51 260 -47 b 307 -19 288 -33 297 -26 b 272 -24 294 -22 282 -24 b 236 -25 267 -24 253 -24 b 210 -26 221 -25 214 -26 l 203 -33 l 171 -28 b 103 -31 147 -32 131 -31 l 78 -31 z m 7 913 l 7 607 b 10 550 7 600 8 572 l 32 553 b 33 551 35 551 33 551 l 39 551 l 39 579 b 36 618 39 585 38 600 b 35 663 35 636 35 657 l 35 919 l 22 919 b 7 913 18 919 11 917 z m 244 553 b 269 547 256 553 263 550 l 269 685 b 267 806 269 729 269 757 b 222 829 264 821 244 828 l 222 783 b 239 751 231 775 238 765 b 242 629 242 703 242 674 l 242 553 z m 240 142 b 267 172 253 146 263 156 l 267 169 b 269 444 268 185 269 315 b 254 439 264 440 258 439 l 247 439 b 243 438 247 438 243 438 l 242 438 b 240 142 242 321 242 203 z "},"":{"ha":418,"x_min":0,"x_max":0,"o":"m 67 53 b 96 -4 67 36 67 -4 b 199 18 119 -4 192 7 b 268 0 222 18 208 -6 b 282 3 274 1 282 4 b 300 -4 282 6 293 -1 b 353 -7 319 -4 336 -7 b 375 85 382 -7 375 75 l 375 110 l 367 113 b 208 115 313 113 224 115 b 194 149 194 119 194 142 l 194 443 b 215 457 194 454 208 457 b 314 454 247 457 281 454 b 321 465 318 457 321 461 l 321 560 b 303 569 321 569 311 569 l 206 569 b 190 746 189 569 190 700 b 199 851 190 767 185 814 l 356 851 b 364 863 360 854 361 861 l 364 964 l 356 971 b 278 976 338 972 310 975 l 214 1181 b 199 1190 208 1188 207 1188 l 117 1190 l 111 1185 l 147 1057 l 174 978 b 74 979 138 979 103 979 l 67 975 z m 11 -3 b 40 -60 11 -19 11 -60 b 143 -37 64 -60 136 -49 b 213 -56 167 -37 153 -61 b 226 -53 218 -54 226 -51 b 244 -60 226 -50 238 -57 b 297 -62 264 -60 281 -62 b 318 -32 308 -62 315 -49 b 199 -11 290 -29 247 -24 b 96 -32 168 -24 115 -32 b 39 53 39 -32 39 28 l 39 924 l 18 924 l 11 919 z m 56 1129 l 89 1007 l 135 1007 l 121 1049 l 96 1135 l 61 1135 z m 300 796 b 308 807 304 799 306 806 l 308 824 l 219 824 b 217 796 218 814 217 806 z m 258 399 b 265 410 263 401 265 406 l 265 426 b 261 428 264 426 263 428 b 222 429 247 428 235 429 l 222 399 z "},"":{"ha":386,"x_min":0,"x_max":0,"o":"m 46 53 b 75 -4 46 36 46 -4 b 178 18 99 -4 171 7 b 247 0 201 18 188 -6 b 261 3 253 1 261 4 b 279 -4 261 6 272 -1 b 332 -7 299 -4 315 -7 b 354 85 361 -7 354 75 l 354 110 l 346 113 b 188 115 292 113 203 115 b 174 149 174 119 174 142 l 174 443 b 194 457 174 454 188 457 b 293 454 226 457 260 454 b 300 465 297 457 300 461 l 300 560 l 282 569 l 185 569 b 169 746 168 569 169 700 b 178 851 169 767 164 814 l 335 851 b 343 863 339 854 340 861 l 343 964 l 335 971 b 243 976 314 974 281 975 l 265 1042 l 301 1169 l 296 1175 l 214 1175 b 199 1165 206 1172 204 1172 l 140 979 l 53 979 l 46 975 z m -10 -3 b 19 -60 -10 -19 -10 -60 b 122 -37 43 -60 115 -49 b 192 -56 146 -37 132 -61 b 206 -53 197 -54 206 -51 b 224 -60 206 -50 217 -57 b 276 -62 243 -60 260 -62 b 297 -32 288 -62 294 -49 b 178 -11 260 -29 283 -35 b 75 -32 147 -24 94 -32 b 18 53 18 -32 18 28 l 18 924 l -3 924 l -10 919 z m 279 796 b 288 807 283 799 285 806 l 288 824 l 199 824 b 196 796 197 814 196 806 z m 138 1110 l 108 1007 l 121 1007 l 154 1118 b 138 1110 147 1115 142 1115 z m 238 399 b 244 410 242 401 244 406 l 244 426 b 240 428 243 426 242 428 b 201 429 226 428 214 429 l 201 399 z "},"":{"ha":418,"x_min":0,"x_max":0,"o":"m 67 53 b 96 -4 67 36 67 -4 b 199 18 119 -4 192 7 b 268 0 222 18 208 -6 b 282 3 274 1 282 4 b 300 -4 282 6 293 -1 b 353 -7 319 -4 336 -7 b 375 85 382 -7 375 75 l 375 110 l 367 113 b 208 115 313 113 224 115 b 194 149 194 119 194 142 l 194 443 b 215 457 194 454 208 457 b 314 454 247 457 281 454 b 321 465 318 457 321 461 l 321 560 b 303 569 321 569 311 569 l 206 569 b 190 746 189 569 190 700 b 199 851 190 767 185 814 l 356 851 b 364 863 360 854 361 861 l 364 964 l 356 971 b 74 979 301 978 161 979 l 67 975 z m 63 1026 l 140 1029 l 150 1039 l 188 1088 l 208 1131 l 233 1088 l 267 1039 l 276 1029 l 354 1026 l 361 1035 l 264 1185 b 250 1193 258 1192 257 1192 l 167 1193 b 153 1185 160 1192 158 1192 l 56 1035 z m 11 -3 b 40 -60 11 -19 11 -60 b 143 -37 64 -60 136 -49 b 213 -56 167 -37 153 -61 b 226 -53 218 -54 226 -51 b 244 -60 226 -50 238 -57 b 297 -62 264 -60 281 -62 b 318 -32 308 -62 315 -49 b 199 -11 281 -29 304 -35 b 96 -32 168 -24 115 -32 b 39 53 39 -32 39 28 l 39 924 l 18 924 l 11 919 z m 261 1004 l 244 1022 l 213 1068 l 210 1071 l 178 1031 l 196 1006 z m 300 796 b 308 807 304 799 306 806 l 308 824 l 219 824 b 217 796 218 814 217 806 z m 7 971 l 39 972 l 39 986 l 53 999 l 50 999 l 31 1026 l 0 979 z m 258 399 b 265 410 263 401 265 406 l 265 426 b 261 428 264 426 263 428 b 222 429 247 428 235 429 l 222 399 z "},"":{"ha":418,"x_min":0,"x_max":0,"o":"m 67 53 b 96 -4 67 36 67 -4 b 199 18 119 -4 192 7 b 268 0 222 18 208 -6 b 282 3 274 1 282 4 b 300 -4 282 6 293 -1 b 353 -7 319 -4 336 -7 b 375 85 382 -7 375 75 l 375 110 l 367 113 b 208 115 313 113 224 115 b 194 149 194 119 194 142 l 194 443 b 215 457 194 454 208 457 b 314 454 247 457 281 454 b 321 465 318 457 321 461 l 321 560 b 303 569 321 569 311 569 l 206 569 b 190 746 189 569 190 700 b 199 851 190 767 185 814 l 356 851 b 364 863 360 854 361 861 l 364 964 l 356 971 b 74 979 301 978 161 979 l 67 975 z m 240 1031 l 356 1031 l 364 1039 b 367 1168 364 1039 364 1094 l 354 1176 l 232 1176 l 228 1163 l 228 1086 l 232 1039 z m 60 1028 l 178 1028 l 188 1036 l 188 1142 l 176 1174 l 54 1174 l 51 1160 l 51 1081 l 50 1036 z m 11 -3 b 40 -60 11 -19 11 -60 b 143 -37 64 -60 136 -49 b 213 -56 167 -37 153 -61 b 226 -53 218 -54 226 -51 b 244 -60 226 -50 238 -57 b 297 -62 264 -60 281 -62 b 318 -32 308 -62 315 -49 b 199 -11 290 -29 247 -24 b 96 -32 168 -24 115 -32 b 39 53 39 -32 39 28 l 39 924 l 18 924 l 11 919 z m 4 972 l 39 972 l 39 986 l 54 1000 l 50 1000 l 22 1025 l 24 1081 l 24 1118 l -1 1118 l -4 1104 l -4 1025 l -6 981 z m 300 796 b 308 807 304 799 306 806 l 308 824 l 219 824 b 217 796 218 814 217 806 z m 258 399 b 265 410 263 401 265 406 l 265 426 b 261 428 264 426 263 428 b 222 429 247 428 235 429 l 222 399 z "},"":{"ha":272,"x_min":0,"x_max":0,"o":"m 71 -1 l 78 -8 l 189 -8 l 197 -1 b 200 233 197 -1 200 163 b 208 603 200 357 208 481 l 208 951 b 193 965 204 958 200 965 l 190 965 l 126 1171 b 111 1181 121 1178 119 1178 l 29 1181 l 24 1175 l 60 1047 l 86 969 l 82 969 b 71 954 78 969 71 958 b 67 204 71 700 67 458 l 67 40 z m 39 38 l 39 204 b 40 579 39 331 39 456 b 43 954 42 703 43 826 b 54 979 43 960 46 969 b 33 1039 49 997 39 1022 l 8 1125 l -26 1125 l -32 1119 l 4 992 l 31 914 l 26 914 b 15 899 22 914 15 903 b 11 149 15 644 11 403 l 11 -15 l 15 -57 l 22 -64 l 133 -64 l 142 -57 l 142 -36 l 67 -36 l 44 -14 z "},"":{"ha":272,"x_min":0,"x_max":0,"o":"m 71 -1 l 78 -8 l 189 -8 l 197 -1 b 200 233 197 -1 200 163 b 208 603 200 357 208 481 l 208 951 b 194 965 204 957 200 964 l 222 1044 l 258 1172 l 253 1178 l 171 1178 b 156 1168 163 1175 161 1175 l 93 968 l 82 969 b 71 954 78 969 71 958 b 67 204 71 700 67 458 l 67 40 z m 39 38 l 39 204 b 40 579 39 331 39 456 b 43 932 42 696 43 813 l 38 913 l 26 914 b 15 899 22 914 15 903 b 11 149 15 644 11 403 l 11 -15 l 15 -57 l 22 -64 l 133 -64 l 142 -57 l 142 -36 l 67 -36 l 44 -14 z m 93 1113 l 56 978 b 72 993 60 983 67 989 l 111 1121 b 93 1113 104 1118 97 1118 z "},"":{"ha":272,"x_min":0,"x_max":0,"o":"m 71 -1 l 78 -8 l 189 -8 l 197 -1 b 200 233 197 -1 200 163 b 208 603 200 357 208 481 l 208 951 b 193 965 204 958 200 965 l 82 969 b 71 954 78 969 71 958 b 67 204 71 700 67 458 l 67 40 z m -10 1014 l 68 1017 l 78 1026 l 115 1075 l 136 1118 l 161 1075 l 194 1026 l 204 1017 l 282 1014 l 289 1022 l 192 1172 b 178 1181 186 1179 185 1179 l 94 1181 b 81 1172 88 1179 86 1179 l -17 1022 z m 15 -57 l 22 -64 l 133 -64 l 142 -57 l 142 -36 l 67 -36 l 44 -14 l 39 38 l 39 204 b 40 579 39 331 39 456 b 43 913 42 689 43 800 l 26 914 b 15 899 22 914 15 903 b 11 149 15 644 11 403 l 11 -15 z m -65 958 l 13 961 l 22 971 l 35 986 l -22 986 l -42 1014 l -72 967 z m 189 993 l 172 1010 l 140 1056 l 138 1058 l 106 1018 l 121 996 z "},"":{"ha":272,"x_min":0,"x_max":0,"o":"m 71 -1 l 78 -8 l 189 -8 l 197 -1 b 200 233 197 -1 200 163 b 208 603 200 357 208 481 l 208 951 b 193 965 204 958 200 965 l 82 969 b 71 954 78 969 71 958 b 67 204 71 700 67 458 l 67 40 z m 168 1013 l 283 1013 l 292 1021 b 294 1150 292 1021 292 1076 l 282 1158 l 160 1158 l 156 1144 l 156 1068 l 160 1021 z m -12 1010 l 106 1010 l 115 1018 l 115 1124 l 104 1156 l -18 1156 l -21 1142 l -21 1063 l -22 1018 z m 15 -57 l 22 -64 l 133 -64 l 142 -57 l 142 -36 l 67 -36 l 44 -14 l 39 38 l 39 204 b 40 579 39 331 39 456 b 43 913 42 689 43 800 l 26 914 b 15 899 22 914 15 903 b 11 149 15 644 11 403 l 11 -15 z m -68 954 l 43 954 b 58 982 43 960 49 972 l -22 982 l -50 1007 l -49 1063 l -49 1100 l -74 1100 l -76 1086 l -76 1007 l -78 963 z m 236 965 l 236 985 l 214 985 b 232 961 221 978 226 969 z "},"":{"ha":425,"x_min":0,"x_max":0,"o":"m 26 388 l 63 414 l 63 311 b 67 35 63 236 67 42 l 69 14 b 85 0 71 4 75 0 l 385 0 l 385 113 b 374 128 385 117 378 128 l 210 128 b 199 139 206 128 199 135 l 199 517 l 332 613 b 340 619 332 613 336 617 b 346 624 342 621 346 624 b 349 631 347 625 349 631 l 338 682 l 199 579 l 199 826 b 203 931 199 840 203 915 l 203 964 l 190 975 l 78 979 b 63 968 71 979 63 975 l 63 478 b 10 442 38 460 15 444 l 7 438 l 10 392 l 11 389 b 26 388 13 388 17 382 z m 39 67 b 35 311 38 131 35 258 l 35 361 b 7 358 22 356 14 356 l 7 256 b 11 -21 7 181 11 -14 l 14 -42 b 29 -56 15 -51 19 -56 l 329 -56 l 329 -28 l 85 -28 b 42 10 58 -28 46 -17 l 39 35 z m 7 913 l 7 472 l 35 492 l 35 922 l 22 924 b 7 913 15 924 7 919 z m -29 332 l 6 358 b -18 382 -4 363 -11 372 l -19 403 b -46 386 -32 394 -42 388 l -49 382 l -46 336 l -44 333 b -29 332 -43 332 -39 326 z "},"":{"ha":590,"x_min":0,"x_max":0,"o":"m 65 21 l 69 10 l 74 6 l 168 6 b 194 33 179 6 194 21 b 199 447 194 169 194 310 l 201 451 l 206 451 b 260 272 217 451 251 288 l 263 264 b 324 29 286 188 304 110 b 332 10 324 25 328 14 b 343 -1 335 6 343 -1 l 503 -1 l 510 6 b 521 675 510 6 517 474 b 525 921 521 758 525 838 l 525 956 b 506 971 521 963 517 971 l 400 971 l 393 963 l 393 614 b 389 447 393 599 389 463 l 389 344 b 381 340 389 340 385 340 b 369 356 374 340 369 349 b 365 379 369 360 365 375 b 354 424 365 386 358 417 b 267 747 324 529 293 640 l 232 890 b 206 975 229 899 210 975 b 93 978 164 975 135 978 b 78 947 81 978 78 956 b 65 79 74 660 74 367 z m 332 1101 b 356 1119 340 1113 346 1119 b 368 1103 361 1119 365 1118 l 368 1051 b 382 1038 368 1042 371 1038 l 429 1039 b 443 1053 438 1039 443 1042 l 443 1121 b 399 1196 440 1161 421 1185 b 368 1197 393 1196 386 1197 b 267 1129 324 1197 300 1172 b 226 1090 253 1113 239 1090 b 218 1107 219 1090 219 1097 l 217 1161 b 203 1175 217 1171 213 1175 l 161 1174 b 147 1160 150 1174 147 1168 l 147 1149 b 146 1096 147 1138 146 1110 b 222 1017 146 1042 181 1017 b 326 1093 271 1017 297 1051 z m 10 -35 l 14 -46 l 18 -50 l 113 -50 b 139 -22 124 -50 139 -35 l 63 -22 l 46 -6 l 38 14 l 38 79 b 47 657 43 271 46 464 b 50 922 47 744 49 833 l 38 922 b 22 892 25 922 22 900 b 10 24 18 604 18 311 z m 268 -26 b 276 -46 268 -31 272 -42 b 288 -57 279 -50 288 -57 l 447 -57 l 454 -50 l 454 -28 l 333 -26 b 308 -6 333 -26 311 -10 b 296 28 301 4 297 18 b 289 51 294 32 289 47 l 290 49 b 235 260 274 119 256 192 b 222 299 232 263 228 279 b 221 160 221 251 221 206 b 268 -26 238 99 253 36 z m 338 907 l 338 581 b 361 497 344 553 353 525 b 363 532 361 508 361 519 b 365 614 364 569 365 606 l 365 915 l 344 915 z m 92 1104 l 92 1093 b 90 1040 92 1082 90 1054 b 96 1006 90 1026 93 1015 b 150 1004 115 1006 133 1004 b 164 1003 154 1003 160 1003 b 118 1096 136 1018 118 1049 b 119 1118 118 1101 119 1110 l 106 1118 b 92 1104 94 1118 92 1113 z m 382 1010 b 340 1051 349 1010 340 1022 l 340 1064 b 313 1031 331 1051 322 1040 l 313 996 b 326 982 313 986 315 982 l 372 983 l 382 999 l 388 999 l 388 1010 z "},"":{"ha":514,"x_min":0,"x_max":0,"o":"m 154 10 b 190 -1 165 3 179 6 b 210 -12 194 -1 206 -12 l 283 -12 b 331 3 293 -12 319 -6 b 440 193 393 43 433 121 b 449 275 444 211 449 271 b 451 510 449 297 451 458 l 451 764 b 356 969 440 833 419 925 b 304 985 342 979 321 982 l 242 1183 b 226 1193 236 1190 235 1190 l 144 1193 l 139 1188 l 175 1060 l 201 982 b 194 981 199 982 196 981 b 99 865 146 961 114 914 l 96 851 b 78 814 96 847 78 818 b 69 771 78 814 69 782 b 67 738 69 767 67 744 b 63 693 67 726 63 693 l 63 249 b 67 211 63 246 67 219 b 117 50 74 157 81 94 b 150 14 117 50 143 24 z m 199 628 b 201 818 199 657 201 789 b 257 858 206 843 232 858 b 283 854 261 858 275 858 l 304 833 l 308 825 b 315 796 308 822 315 800 b 311 311 315 722 311 385 b 308 197 311 297 308 215 b 261 121 308 161 304 121 l 246 121 b 217 135 246 121 225 132 b 201 157 210 139 201 150 b 199 193 201 161 199 186 z m 128 -3 b 89 39 121 7 89 39 b 39 207 54 82 47 149 b 36 233 39 213 38 224 l 38 231 b 35 249 35 242 35 247 l 35 696 b 39 738 35 696 39 729 b 40 763 39 742 39 754 b 42 771 40 764 42 771 b 50 818 42 782 50 818 b 61 844 51 826 56 835 b 68 851 64 850 68 851 l 71 867 b 43 810 58 849 49 829 l 40 796 b 22 758 40 792 22 763 b 14 715 22 758 14 726 b 11 682 14 711 11 689 b 7 638 11 671 7 638 l 7 193 b 11 156 7 190 11 164 b 61 -6 18 101 25 39 b 94 -42 61 -6 88 -32 l 99 -46 b 135 -57 110 -53 124 -50 b 154 -68 139 -57 150 -68 l 228 -68 b 275 -53 238 -68 264 -61 b 293 -39 281 -49 288 -44 b 283 -40 289 -40 286 -40 l 210 -40 b 185 -31 193 -40 188 -35 b 183 -29 185 -31 182 -29 l 165 -22 l 167 -24 b 138 -12 157 -22 151 -22 z m 249 778 l 253 769 b 260 740 253 767 260 744 b 256 256 260 667 256 329 b 253 149 256 243 253 174 l 261 149 b 281 197 279 149 281 174 b 282 263 281 207 281 236 b 283 311 282 278 283 306 b 285 553 283 347 283 450 b 288 793 286 644 288 757 b 283 807 286 793 285 801 l 285 806 b 282 814 283 808 282 811 b 279 819 281 815 279 818 l 269 829 b 257 831 265 831 260 831 b 229 817 247 831 233 824 l 229 797 z m 83 1132 l 119 1004 l 131 969 b 167 997 140 981 153 989 l 149 1051 l 124 1138 l 89 1138 z "},"":{"ha":514,"x_min":0,"x_max":0,"o":"m 154 10 b 190 -1 165 3 179 6 b 210 -12 194 -1 206 -12 l 283 -12 b 331 3 293 -12 319 -6 b 440 193 393 43 433 121 b 449 275 444 211 449 271 b 451 510 449 297 451 458 l 451 764 b 356 969 440 833 419 925 b 318 982 346 976 332 981 l 344 1057 l 381 1185 l 375 1190 l 293 1190 b 278 1181 285 1188 283 1188 l 217 985 l 194 981 b 99 865 146 961 114 914 l 96 851 b 78 814 96 847 78 818 b 69 771 78 814 69 782 b 67 738 69 767 67 744 b 63 693 67 726 63 693 l 63 249 b 67 211 63 246 67 219 b 117 50 74 157 81 94 b 150 14 117 50 143 24 z m 199 628 b 201 818 199 657 201 789 b 257 858 206 843 232 858 b 283 854 261 858 275 858 l 304 833 l 308 825 b 315 796 308 822 315 800 b 311 311 315 722 311 385 b 308 197 311 297 308 215 b 261 121 308 161 304 121 l 246 121 b 217 135 246 121 225 132 b 201 157 210 139 201 150 b 199 193 201 161 199 186 z m 128 -3 b 89 39 121 7 89 39 b 39 207 54 82 47 149 b 36 233 39 213 38 224 l 38 231 b 35 249 35 242 35 247 l 35 696 b 39 738 35 696 39 729 b 40 763 39 742 39 754 b 42 771 40 764 42 771 b 50 818 42 782 50 818 b 61 844 51 826 56 835 b 68 851 64 850 68 851 l 71 867 b 43 810 58 849 49 829 l 40 796 b 22 758 40 792 22 763 b 14 715 22 758 14 726 b 11 682 14 711 11 689 b 7 638 11 671 7 638 l 7 193 b 11 156 7 190 11 164 b 61 -6 18 101 25 39 b 94 -42 61 -6 88 -32 l 99 -46 b 135 -57 110 -53 124 -50 b 154 -68 139 -57 150 -68 l 228 -68 b 275 -53 238 -68 264 -61 b 293 -39 281 -49 288 -44 b 283 -40 289 -40 286 -40 l 210 -40 b 185 -31 193 -40 188 -35 b 183 -29 185 -31 182 -29 l 165 -22 l 167 -24 b 138 -12 157 -22 151 -22 z m 249 778 l 253 769 b 260 740 253 767 260 744 b 256 256 260 667 256 329 b 253 149 256 243 253 174 l 261 149 b 281 197 279 149 281 174 b 282 263 281 207 281 236 b 283 311 282 278 283 306 b 285 553 283 347 283 450 b 288 793 286 644 288 757 b 283 807 286 793 285 801 l 285 806 b 282 814 283 808 282 811 b 279 819 281 815 279 818 l 269 829 b 257 831 265 831 260 831 b 229 817 247 831 233 824 l 229 797 z m 218 1125 l 181 1007 b 183 1008 182 1007 182 1008 l 194 1010 b 233 1133 206 1049 219 1092 b 218 1125 228 1132 222 1131 z "},"":{"ha":514,"x_min":0,"x_max":0,"o":"m 154 10 b 190 -1 165 3 179 6 b 210 -12 194 -1 206 -12 l 283 -12 b 331 3 293 -12 319 -6 b 440 193 393 43 433 121 b 449 275 444 211 449 271 b 451 510 449 297 451 458 l 451 764 b 356 969 440 833 419 925 b 286 988 338 983 304 983 b 246 990 279 988 250 990 l 232 988 b 194 981 225 988 206 983 b 99 865 146 961 114 914 l 96 851 b 78 814 96 847 78 818 b 69 771 78 814 69 782 b 67 738 69 767 67 744 b 63 693 67 726 63 693 l 63 249 b 67 211 63 246 67 219 b 117 50 74 157 81 94 b 150 14 117 50 143 24 z m 199 628 b 201 818 199 657 201 789 b 257 858 206 843 232 858 b 283 854 261 858 275 858 l 304 833 l 308 825 b 315 796 308 822 315 800 b 311 311 315 722 311 385 b 308 197 311 297 308 215 b 261 121 308 161 304 121 l 246 121 b 217 135 246 121 225 132 b 201 157 210 139 201 150 b 199 193 201 161 199 186 z m 111 1026 l 189 1029 l 199 1039 l 236 1088 l 257 1131 l 282 1088 l 315 1039 l 325 1029 l 403 1026 l 410 1035 l 313 1185 b 299 1193 307 1192 306 1192 l 215 1193 b 201 1185 208 1192 207 1192 l 104 1035 z m 99 -46 b 135 -57 110 -53 124 -50 b 154 -68 139 -57 150 -68 l 228 -68 b 275 -53 238 -68 264 -61 b 293 -39 281 -49 288 -44 b 283 -40 289 -40 286 -40 l 210 -40 b 185 -31 193 -40 188 -35 b 183 -29 185 -31 182 -29 l 165 -22 l 167 -24 b 138 -12 157 -22 151 -22 l 128 -3 b 89 39 121 7 89 39 b 39 207 54 82 47 149 b 36 233 39 213 38 224 l 38 231 b 35 249 35 242 35 247 l 35 696 b 39 738 35 696 39 729 b 40 763 39 742 39 754 b 42 771 40 764 42 771 b 50 818 42 782 50 818 b 61 844 51 826 56 835 b 68 851 64 850 68 851 l 71 867 b 43 810 58 849 49 829 l 40 796 b 22 758 40 792 22 763 b 14 715 22 758 14 726 b 11 682 14 711 11 689 b 7 638 11 671 7 638 l 7 193 b 11 156 7 190 11 164 b 61 -6 18 101 25 39 b 94 -42 61 -6 88 -32 z m 249 778 l 253 769 b 260 740 253 767 260 744 b 256 256 260 667 256 329 b 253 149 256 243 253 174 l 261 149 b 281 197 279 149 281 174 b 282 263 281 207 281 236 b 283 311 282 278 283 306 b 285 553 283 347 283 450 b 288 793 286 644 288 757 b 283 807 286 793 285 801 l 285 806 b 282 814 283 808 282 811 b 279 819 281 815 279 818 l 269 829 b 257 831 265 831 260 831 b 229 817 247 831 233 824 l 229 797 z m 56 971 l 132 974 l 139 979 l 143 983 l 156 1000 l 99 999 l 79 1026 l 49 979 z m 257 1086 b 249 1074 249 1083 249 1074 b 278 1031 249 1074 278 1031 b 303 1033 278 1031 303 1033 b 257 1086 303 1033 258 1086 z "},"":{"ha":514,"x_min":0,"x_max":0,"o":"m 154 10 b 190 -1 165 3 179 6 b 210 -12 194 -1 206 -12 l 283 -12 b 331 3 293 -12 319 -6 b 440 193 393 43 433 121 b 449 275 444 211 449 271 b 451 510 449 297 451 458 l 451 764 b 356 969 440 833 419 925 b 286 988 338 983 304 983 b 246 990 279 988 250 990 l 232 988 b 194 981 225 988 206 983 b 99 865 146 961 114 914 l 96 851 b 78 814 96 847 78 818 b 69 771 78 814 69 782 b 67 738 69 767 67 744 b 63 693 67 726 63 693 l 63 249 b 67 211 63 246 67 219 b 117 50 74 157 81 94 b 150 14 117 50 143 24 z m 199 628 b 201 818 199 657 201 789 b 257 858 206 843 232 858 b 283 854 261 858 275 858 l 304 833 l 308 825 b 315 796 308 822 315 800 b 311 311 315 722 311 385 b 308 197 311 297 308 215 b 261 121 308 161 304 121 l 246 121 b 217 135 246 121 225 132 b 201 157 210 139 201 150 b 199 193 201 161 199 186 z m 294 1107 b 318 1125 303 1118 308 1125 b 331 1108 324 1125 328 1124 l 331 1057 b 344 1043 331 1047 333 1043 l 392 1044 b 406 1058 400 1044 406 1047 l 406 1126 b 361 1201 403 1167 383 1190 b 331 1203 356 1201 349 1203 b 229 1135 286 1203 263 1178 b 189 1096 215 1118 201 1096 b 181 1113 182 1096 182 1103 l 179 1167 b 165 1181 179 1176 175 1181 l 124 1179 b 110 1165 113 1179 110 1174 l 110 1154 b 108 1101 110 1143 108 1115 b 185 1022 108 1047 143 1022 b 289 1099 233 1022 260 1057 z m 99 -46 b 135 -57 110 -53 124 -50 b 154 -68 139 -57 150 -68 l 228 -68 b 275 -53 238 -68 264 -61 b 293 -39 281 -49 288 -44 b 283 -40 289 -40 286 -40 l 210 -40 b 185 -31 193 -40 188 -35 b 183 -29 185 -31 182 -29 l 165 -22 l 167 -24 b 138 -12 157 -22 151 -22 l 128 -3 b 89 39 121 7 89 39 b 39 207 54 82 47 149 b 36 233 39 213 38 224 l 38 231 b 35 249 35 242 35 247 l 35 696 b 39 738 35 696 39 729 b 40 763 39 742 39 754 b 42 771 40 764 42 771 b 50 818 42 782 50 818 b 61 844 51 826 56 835 b 68 851 64 850 68 851 l 71 867 b 43 810 58 849 49 829 l 40 796 b 22 758 40 792 22 763 b 14 715 22 758 14 726 b 11 682 14 711 11 689 b 7 638 11 671 7 638 l 7 193 b 11 156 7 190 11 164 b 61 -6 18 101 25 39 b 94 -42 61 -6 88 -32 z m 249 778 l 253 769 b 260 740 253 767 260 744 b 256 256 260 667 256 329 b 253 149 256 243 253 174 l 261 149 b 281 197 279 149 281 174 b 282 263 281 207 281 236 b 283 311 282 278 283 306 b 285 553 283 347 283 450 b 288 793 286 644 288 757 b 283 807 286 793 285 801 l 285 806 b 282 814 283 808 282 811 b 279 819 281 815 279 818 l 269 829 b 257 831 265 831 260 831 b 229 817 247 831 233 824 l 229 797 z m 54 1110 l 54 1099 b 53 1046 54 1088 53 1060 b 125 967 53 993 85 968 b 161 996 136 978 147 988 b 81 1101 115 1004 81 1038 b 82 1124 81 1107 82 1115 l 68 1124 b 54 1110 57 1124 54 1118 z m 344 1015 b 303 1057 311 1015 303 1028 l 303 1069 b 275 1036 293 1057 285 1046 l 275 1015 l 286 1015 l 308 1013 b 350 1003 321 1010 336 1008 l 350 1015 z "},"":{"ha":514,"x_min":0,"x_max":0,"o":"m 154 10 b 190 -1 165 3 179 6 b 210 -12 194 -1 206 -12 l 283 -12 b 331 3 293 -12 319 -6 b 440 193 393 43 433 121 b 449 275 444 211 449 271 b 451 510 449 297 451 458 l 451 764 b 356 969 440 833 419 925 b 286 988 338 983 304 983 b 246 990 279 988 250 990 l 232 988 b 194 981 225 988 206 983 b 99 865 146 961 114 914 l 96 851 b 78 814 96 847 78 818 b 69 771 78 814 69 782 b 67 738 69 767 67 744 b 63 693 67 726 63 693 l 63 249 b 67 211 63 246 67 219 b 117 50 74 157 81 94 b 150 14 117 50 143 24 z m 199 628 b 201 818 199 657 201 789 b 257 858 206 843 232 858 b 283 854 261 858 275 858 l 304 833 l 308 825 b 315 796 308 822 315 800 b 311 311 315 722 311 385 b 308 197 311 297 308 215 b 261 121 308 161 304 121 l 246 121 b 217 135 246 121 225 132 b 201 157 210 139 201 150 b 199 193 201 161 199 186 z m 289 1028 l 404 1028 l 413 1036 b 415 1165 413 1036 413 1092 l 403 1174 l 281 1174 l 276 1160 l 276 1083 l 281 1036 z m 108 1025 l 226 1025 l 236 1033 l 236 1139 l 225 1171 l 103 1171 l 100 1157 l 100 1078 l 99 1033 z m 99 -46 b 135 -57 110 -53 124 -50 b 154 -68 139 -57 150 -68 l 228 -68 b 275 -53 238 -68 264 -61 b 293 -39 281 -49 288 -44 b 283 -40 289 -40 286 -40 l 210 -40 b 185 -31 193 -40 188 -35 b 183 -29 185 -31 182 -29 l 165 -22 l 167 -24 b 138 -12 157 -22 151 -22 l 128 -3 b 89 39 121 7 89 39 b 39 207 54 82 47 149 b 36 233 39 213 38 224 l 38 231 b 35 249 35 242 35 247 l 35 696 b 39 738 35 696 39 729 b 40 763 39 742 39 754 b 42 771 40 764 42 771 b 50 818 42 782 50 818 b 61 844 51 826 56 835 b 68 851 64 850 68 851 l 71 867 b 43 810 58 849 49 829 l 40 796 b 22 758 40 792 22 763 b 14 715 22 758 14 726 b 11 682 14 711 11 689 b 7 638 11 671 7 638 l 7 193 b 11 156 7 190 11 164 b 61 -6 18 101 25 39 b 94 -42 61 -6 88 -32 z m 249 778 l 253 769 b 260 740 253 767 260 744 b 256 256 260 667 256 329 b 253 149 256 243 253 174 l 261 149 b 281 197 279 149 281 174 b 282 263 281 207 281 236 b 283 311 282 278 283 306 b 285 553 283 347 283 450 b 288 793 286 644 288 757 b 283 807 286 793 285 801 l 285 806 b 282 814 283 808 282 811 b 279 819 281 815 279 818 l 269 829 b 257 831 265 831 260 831 b 229 817 247 831 233 824 l 229 797 z m 53 969 l 126 969 b 163 997 138 981 150 989 l 99 997 l 71 1022 l 72 1078 l 72 1115 l 47 1115 l 44 1101 l 44 1022 l 43 978 z "},"":{"ha":514,"x_min":0,"x_max":0,"o":"m 283 -12 b 331 3 293 -12 319 -6 b 440 193 393 43 433 121 b 449 275 444 211 449 271 b 451 510 449 297 451 458 l 451 764 b 394 931 443 817 428 882 b 415 1021 407 988 415 1022 l 410 1028 l 389 1028 b 363 1015 371 1028 369 1026 l 351 972 b 286 988 332 983 303 983 b 246 990 279 988 250 990 l 232 988 b 194 981 225 988 206 983 b 99 865 146 961 114 914 l 96 851 b 78 814 96 847 78 818 b 69 771 78 814 69 782 b 67 738 69 767 67 744 b 63 693 67 726 63 693 l 63 249 b 67 211 63 246 67 219 b 117 50 74 157 81 94 l 122 44 b 104 -32 114 11 106 -19 b 103 -44 103 -36 103 -40 b 128 -65 103 -57 108 -65 b 153 -44 143 -65 147 -57 b 167 4 154 -39 161 -19 b 190 -1 175 3 183 3 b 210 -12 194 -1 206 -12 z m 199 358 l 199 628 b 201 818 199 657 201 789 b 257 858 206 843 232 858 b 283 854 261 858 275 858 l 304 833 l 308 825 b 311 813 308 824 310 818 z m 246 121 b 217 135 246 121 225 132 b 203 150 211 138 206 144 b 314 589 236 276 278 438 b 311 311 313 475 311 351 b 308 197 311 297 308 215 b 261 121 308 161 304 121 z m 43 810 l 40 796 b 22 758 40 792 22 763 b 14 715 22 758 14 726 b 11 682 14 711 11 689 b 7 638 11 671 7 638 l 7 193 b 11 156 7 190 11 164 b 61 -6 18 101 25 39 l 67 -11 b 49 -87 58 -44 50 -75 b 47 -100 47 -92 47 -96 b 72 -121 47 -112 53 -121 b 97 -100 88 -121 92 -112 b 100 -89 97 -97 99 -94 b 75 -44 81 -82 75 -65 l 75 -31 b 90 29 74 -33 85 4 l 89 28 b 92 36 90 35 90 29 l 89 39 b 39 207 54 82 47 149 b 36 233 39 213 38 224 l 38 231 b 35 249 35 242 35 247 l 35 696 b 39 738 35 696 39 729 b 40 763 39 742 39 754 b 42 771 40 764 42 771 b 50 818 42 782 50 818 b 61 844 51 826 56 835 b 68 851 64 850 68 851 l 71 867 b 43 810 58 849 49 829 z m 282 810 b 282 814 281 811 282 813 b 279 819 281 815 279 818 l 269 829 b 257 831 265 831 260 831 b 229 817 247 831 233 824 l 229 797 l 249 778 l 253 769 b 256 757 253 768 254 763 l 226 639 l 226 628 l 226 583 z m 261 149 b 281 197 279 149 281 174 b 282 263 281 207 281 236 b 283 311 282 278 283 306 b 282 319 283 318 282 321 b 283 353 283 326 283 336 l 256 247 b 253 149 254 225 253 171 z m 210 -40 b 186 -32 194 -40 189 -36 l 185 -37 b 181 -50 182 -44 181 -50 l 172 -68 l 228 -68 b 275 -53 238 -68 264 -61 b 293 -39 281 -49 288 -44 b 283 -40 289 -40 286 -40 z "},"":{"ha":671,"x_min":0,"x_max":0,"o":"m 154 10 b 190 -1 165 3 179 6 b 210 -12 194 -1 206 -12 l 283 -12 b 326 0 292 -12 314 -6 b 342 -4 331 -1 335 -4 b 444 18 365 -4 438 7 b 514 0 468 18 454 -6 b 528 3 519 1 528 4 b 546 -4 528 6 539 -1 b 599 -7 565 -4 582 -7 b 621 85 628 -7 621 75 l 621 110 l 613 113 b 454 115 558 113 469 115 b 440 149 440 119 440 142 l 440 443 l 461 457 b 560 454 493 457 526 454 b 567 465 564 457 567 461 l 567 560 b 549 569 567 569 557 569 l 451 569 b 436 746 435 569 436 700 b 444 851 436 767 431 814 l 601 851 b 610 863 606 854 607 861 l 610 964 l 601 971 b 335 979 550 976 422 979 b 286 988 318 983 299 985 b 246 990 279 988 250 990 l 232 988 b 63 693 90 960 63 843 l 63 249 b 67 211 63 246 67 219 b 117 50 74 157 81 94 b 150 14 117 50 143 24 z m 199 628 b 201 818 199 657 201 789 b 257 858 206 843 232 858 b 283 854 261 858 275 858 l 304 833 l 308 825 b 313 810 308 824 310 817 l 313 507 b 311 311 311 421 311 342 b 308 197 311 297 308 215 b 261 121 308 161 304 121 l 246 121 b 217 135 246 121 225 132 b 201 157 210 139 201 150 b 199 193 201 161 199 186 z m 128 -3 b 89 39 121 7 89 39 b 36 233 49 89 46 168 l 38 231 b 35 249 35 242 35 247 l 35 693 b 53 856 35 753 39 808 b 7 638 17 801 7 725 l 7 193 b 61 -6 7 146 19 44 b 94 -42 61 -6 88 -32 l 99 -46 b 135 -57 110 -53 124 -50 b 154 -68 139 -57 150 -68 l 228 -68 b 271 -56 236 -68 258 -61 b 286 -60 275 -57 279 -60 b 389 -37 310 -60 382 -49 b 442 -57 410 -37 401 -57 b 472 -53 450 -57 468 -53 b 543 -62 486 -53 521 -62 b 564 -32 554 -62 561 -49 b 444 -11 526 -29 550 -35 b 342 -32 414 -24 361 -32 b 326 -31 336 -32 331 -32 b 283 -40 311 -36 292 -40 l 210 -40 b 183 -29 190 -40 183 -31 l 165 -22 l 167 -24 b 138 -12 157 -22 151 -22 z m 249 778 l 253 769 b 257 754 253 768 254 761 l 257 451 b 253 149 254 276 253 258 l 261 149 b 285 290 282 149 285 200 b 283 406 285 324 283 363 b 285 507 283 436 285 471 l 285 803 b 279 819 282 806 279 815 l 269 829 b 257 831 265 831 260 831 b 229 817 247 831 233 824 l 229 797 z m 546 796 b 554 807 550 799 551 806 l 554 824 l 465 824 b 463 796 464 814 463 806 z m 504 399 b 511 410 508 401 511 406 l 511 426 b 468 429 496 426 482 429 l 468 399 z "},"":{"ha":489,"x_min":0,"x_max":0,"o":"m 292 1 b 433 146 368 11 413 69 b 438 160 433 150 438 160 l 438 306 b 422 347 438 306 426 338 b 228 624 386 453 299 549 b 181 757 190 667 181 704 b 233 853 181 806 175 853 b 275 811 263 853 268 840 b 278 683 278 769 278 725 b 285 672 278 683 281 672 l 393 672 b 397 681 393 672 397 676 b 400 694 397 683 400 692 l 400 739 b 365 924 400 794 403 878 b 335 954 363 926 343 947 b 311 968 332 958 315 968 b 228 979 285 979 258 979 b 150 965 200 979 176 975 b 58 850 106 944 72 899 b 56 826 58 847 56 829 b 49 725 49 792 49 760 b 256 365 49 582 168 460 b 306 213 294 324 306 272 b 263 118 306 178 303 129 l 256 118 b 200 136 238 118 211 122 l 183 160 b 181 206 183 167 181 199 l 181 344 l 176 347 l 56 347 l 53 344 l 53 240 b 56 185 53 233 56 194 b 136 21 63 118 69 49 b 200 1 157 14 181 1 z m 192 1017 l 275 1017 b 289 1025 282 1018 283 1018 l 386 1175 l 379 1183 l 301 1181 l 292 1171 l 254 1122 l 233 1079 l 208 1122 l 175 1171 l 165 1181 l 88 1183 l 81 1175 l 178 1025 b 192 1017 183 1018 185 1018 z m 3 794 b 0 771 3 792 0 774 b -7 669 -7 736 -7 704 b 140 375 -7 557 67 458 l 176 375 l 208 372 l 208 300 b 250 157 240 260 250 211 l 250 146 l 256 146 l 260 146 b 278 213 275 157 278 189 b 235 346 278 265 268 310 b 21 725 144 443 21 569 b 28 832 21 761 21 799 b 29 840 28 833 28 836 b 31 851 29 846 31 850 b 32 856 31 853 31 854 b 3 794 18 836 8 815 z m 200 -26 b 144 -12 178 -26 161 -18 b 126 -6 138 -10 132 -6 b 28 182 43 29 35 107 b 26 214 28 188 28 201 b 25 240 26 225 25 238 l 26 292 l 0 292 l -3 289 l -3 185 b 0 129 -3 178 0 139 b 81 -35 7 63 14 -7 b 144 -54 101 -42 125 -54 l 236 -54 b 308 -24 264 -50 289 -40 l 296 -26 z m 25 1119 l 117 976 b 147 994 126 983 136 989 l 163 999 l 153 1011 l 79 1126 l 32 1128 z m 219 756 b 222 681 221 731 222 706 b 249 642 228 667 236 654 l 249 643 l 272 617 l 338 617 b 342 625 338 617 342 621 b 344 639 342 628 344 636 l 344 644 l 285 644 b 250 682 260 644 250 682 b 247 808 250 724 250 767 b 233 825 243 822 242 825 b 208 785 213 825 208 807 b 219 756 213 778 215 768 z "},"":{"ha":471,"x_min":0,"x_max":0,"o":"m 82 -3 l 107 -3 b 176 1 133 -3 151 -3 b 192 13 183 1 188 8 b 199 19 192 17 199 19 l 199 224 l 203 226 b 276 231 213 226 265 231 b 335 242 294 231 319 235 b 386 286 353 249 371 271 b 389 293 386 286 389 289 b 397 311 389 296 397 311 b 408 392 404 336 404 365 b 413 425 408 396 413 422 b 415 472 413 429 415 469 b 428 588 419 510 428 550 b 375 749 428 646 415 704 b 349 771 368 756 360 767 b 276 785 328 782 299 785 l 189 785 l 189 961 b 175 975 189 971 185 975 l 82 975 b 67 968 78 975 71 972 l 67 663 b 71 579 67 651 71 590 l 71 75 b 74 38 71 72 74 46 b 82 -3 74 26 71 6 z m 194 358 b 199 656 194 403 199 613 b 225 667 203 671 217 667 b 299 617 258 667 294 653 b 301 494 301 568 301 539 b 299 392 301 465 301 422 b 221 336 290 351 263 336 b 194 354 210 336 194 340 z m 65 -25 b 46 32 42 -8 46 15 l 46 38 b 44 60 46 42 46 50 b 43 75 44 65 43 74 l 43 579 b 40 618 43 585 42 600 b 39 663 39 636 39 657 l 39 919 l 26 919 b 11 913 22 919 15 917 l 11 607 b 15 524 11 596 15 535 l 15 19 b 18 -18 15 17 18 -10 b 26 -58 18 -29 15 -50 l 51 -58 b 121 -54 78 -58 96 -58 b 136 -43 128 -54 132 -47 b 143 -36 136 -39 143 -36 l 143 -31 l 107 -31 l 82 -31 z m 243 561 b 246 439 246 513 246 483 b 244 367 246 418 246 392 b 271 397 258 372 267 382 l 271 394 b 274 494 274 425 274 467 b 271 615 274 539 274 567 b 226 639 268 631 249 638 l 226 593 b 243 561 235 585 242 575 z m 279 186 b 306 206 288 189 297 197 b 276 203 296 203 285 203 b 240 200 274 203 257 201 b 226 199 236 199 231 199 l 226 175 b 279 186 243 175 265 179 z "},"":{"ha":510,"x_min":0,"x_max":0,"o":"m 436 135 l 439 146 b 443 165 439 150 443 161 b 447 326 443 189 447 304 l 447 613 b 443 676 443 638 443 650 b 451 722 443 692 451 707 b 447 919 451 792 447 851 l 443 928 b 421 954 439 931 424 950 b 394 981 408 969 417 981 b 375 974 386 981 382 981 l 329 974 l 322 969 l 318 965 l 311 135 b 303 119 311 135 307 124 b 242 97 288 101 265 97 b 207 124 226 97 215 113 b 203 135 207 124 203 131 b 196 161 200 143 196 161 l 196 976 l 185 981 l 150 976 b 135 965 146 969 142 965 b 119 976 128 965 124 969 l 67 976 l 63 974 b 60 851 63 974 60 885 l 60 563 b 63 543 60 558 63 547 b 60 517 63 540 60 521 l 60 497 b 63 451 60 482 63 467 l 63 447 b 60 390 63 444 60 394 l 60 239 b 67 108 60 219 67 128 b 261 -17 96 -6 165 -17 b 436 117 361 -17 410 40 z m 214 1015 l 300 1013 l 307 1022 l 242 1231 b 226 1240 236 1238 235 1238 l 144 1240 l 139 1235 l 175 1107 l 203 1026 z m 7 918 b 4 796 7 918 4 829 l 4 507 b 7 488 4 503 7 492 b 4 461 7 485 4 465 l 4 442 b 7 396 4 426 7 411 l 7 392 b 4 335 7 389 4 339 l 4 183 b 11 53 4 164 11 72 b 206 -72 40 -61 110 -72 b 314 -39 251 -72 288 -60 b 261 -44 299 -43 281 -44 b 39 107 153 -44 75 -31 b 35 172 39 117 36 144 b 32 239 33 197 32 231 l 32 390 b 33 426 32 393 32 414 b 35 451 33 438 35 446 b 33 468 35 458 33 460 b 32 497 32 475 32 488 l 32 517 b 33 535 32 519 31 525 b 35 543 33 539 35 542 b 33 549 35 544 33 544 b 32 563 32 553 32 558 l 32 851 b 33 921 32 865 32 892 l 11 921 z m 283 142 b 290 918 285 396 289 663 l 274 918 l 267 914 l 263 910 l 256 125 b 282 138 267 126 276 131 l 283 139 b 283 142 288 143 283 142 z m 83 1179 l 119 1051 l 136 1003 l 182 1008 l 178 1013 l 149 1099 l 124 1185 l 89 1185 z m 244 957 l 251 967 l 244 985 l 224 986 l 224 957 z "},"":{"ha":510,"x_min":0,"x_max":0,"o":"m 436 135 l 439 146 b 443 165 439 150 443 161 b 447 326 443 189 447 304 l 447 613 b 443 676 443 638 443 650 b 451 722 443 692 451 707 b 447 919 451 792 447 851 l 443 928 b 421 954 439 931 424 950 b 394 981 408 969 417 981 b 375 974 386 981 382 981 l 329 974 l 322 969 l 318 965 l 311 135 b 303 119 311 135 307 124 b 242 97 288 101 265 97 b 207 124 226 97 215 113 b 203 135 207 124 203 131 b 196 161 200 143 196 161 l 196 976 l 185 981 l 150 976 b 135 965 146 969 142 965 b 119 976 128 965 124 969 l 67 976 l 63 974 b 60 851 63 974 60 885 l 60 563 b 63 543 60 558 63 547 b 60 517 63 540 60 521 l 60 497 b 63 451 60 482 63 467 l 63 447 b 60 390 63 444 60 394 l 60 239 b 67 108 60 219 67 128 b 261 -17 96 -6 165 -17 b 436 117 361 -17 410 40 z m 217 1013 l 303 1015 l 314 1026 l 342 1107 l 378 1235 l 372 1240 l 290 1240 b 275 1231 282 1238 281 1238 l 210 1022 z m 7 918 b 4 796 7 918 4 829 l 4 507 b 7 488 4 503 7 492 b 4 461 7 485 4 465 l 4 442 b 7 396 4 426 7 411 l 7 392 b 4 335 7 389 4 339 l 4 183 b 11 53 4 164 11 72 b 206 -72 40 -61 110 -72 b 314 -39 251 -72 288 -60 b 261 -44 299 -43 281 -44 b 39 107 153 -44 75 -31 b 35 172 39 117 36 144 b 32 239 33 197 32 231 l 32 390 b 33 426 32 393 32 414 b 35 451 33 438 35 446 b 33 468 35 458 33 460 b 32 497 32 475 32 488 l 32 517 b 33 535 32 519 31 525 b 35 543 33 539 35 542 b 33 549 35 544 33 544 b 32 563 32 553 32 558 l 32 851 b 33 921 32 865 32 892 l 11 921 z m 283 142 b 290 918 285 396 289 663 l 274 918 l 267 914 l 263 910 l 256 125 b 282 138 267 126 276 131 l 283 139 b 283 142 288 143 283 142 z m 219 1175 l 167 1006 l 186 1008 l 181 1019 l 231 1183 b 219 1175 226 1182 224 1181 z m 247 960 l 258 971 l 264 986 l 224 985 l 224 958 z "},"":{"ha":510,"x_min":0,"x_max":0,"o":"m 436 135 l 439 146 b 443 165 439 150 443 161 b 447 326 443 189 447 304 l 447 613 b 443 676 443 638 443 650 b 451 722 443 692 451 707 b 447 919 451 792 447 851 l 443 928 b 421 954 439 931 424 950 b 394 981 408 969 417 981 b 375 974 386 981 382 981 l 329 974 l 322 969 l 318 965 l 311 135 b 303 119 311 135 307 124 b 242 97 288 101 265 97 b 207 124 226 97 215 113 b 203 135 207 124 203 131 b 196 161 200 143 196 161 l 196 976 l 185 981 l 150 976 b 135 965 146 969 142 965 b 119 976 128 965 124 969 l 67 976 l 63 974 b 60 851 63 974 60 885 l 60 563 b 63 543 60 558 63 547 b 60 517 63 540 60 521 l 60 497 b 63 451 60 482 63 467 l 63 447 b 60 390 63 444 60 394 l 60 239 b 67 108 60 219 67 128 b 261 -17 96 -6 165 -17 b 436 117 361 -17 410 40 z m 108 1029 l 186 1032 l 196 1042 l 233 1090 l 254 1133 l 279 1090 l 313 1042 l 322 1032 l 400 1029 l 407 1038 l 310 1188 b 296 1196 304 1194 303 1194 l 213 1196 b 199 1188 206 1194 204 1194 l 101 1038 z m 7 918 b 4 796 7 918 4 829 l 4 507 b 7 488 4 503 7 492 b 4 461 7 485 4 465 l 4 442 b 7 396 4 426 7 411 l 7 392 b 4 335 7 389 4 339 l 4 183 b 11 53 4 164 11 72 b 206 -72 40 -61 110 -72 b 314 -39 251 -72 288 -60 b 261 -44 299 -43 281 -44 b 39 107 153 -44 75 -31 b 35 172 39 117 36 144 b 32 239 33 197 32 231 l 32 390 b 33 426 32 393 32 414 b 35 451 33 438 35 446 b 33 468 35 458 33 460 b 32 497 32 475 32 488 l 32 517 b 33 535 32 519 31 525 b 35 543 33 539 35 542 b 33 549 35 544 33 544 b 32 563 32 553 32 558 l 32 851 b 33 921 32 865 32 892 l 11 921 z m 267 914 l 263 910 l 256 125 b 282 138 267 126 276 131 l 283 139 b 283 142 288 143 283 142 b 290 918 285 396 289 663 l 274 918 z m 257 986 l 267 976 l 290 975 l 290 976 l 303 989 l 318 1001 l 339 1001 l 338 1003 l 311 1004 l 290 1025 l 258 1071 l 256 1074 l 224 1033 z m 67 1004 l 93 1004 l 76 1029 l 60 1003 z "},"":{"ha":510,"x_min":0,"x_max":0,"o":"m 436 135 l 439 146 b 443 165 439 150 443 161 b 447 326 443 189 447 304 l 447 613 b 443 676 443 638 443 650 b 451 722 443 692 451 707 b 447 919 451 792 447 851 l 443 928 b 421 954 439 931 424 950 b 394 981 408 969 417 981 b 375 974 386 981 382 981 l 329 974 l 322 969 l 318 965 l 311 135 b 303 119 311 135 307 124 b 242 97 288 101 265 97 b 207 124 226 97 215 113 b 203 135 207 124 203 131 b 196 161 200 143 196 161 l 196 976 l 185 981 l 150 976 b 135 965 146 969 142 965 b 119 976 128 965 124 969 l 67 976 l 63 974 b 60 851 63 974 60 885 l 60 563 b 63 543 60 558 63 547 b 60 517 63 540 60 521 l 60 497 b 63 451 60 482 63 467 l 63 447 b 60 390 63 444 60 394 l 60 239 b 67 108 60 219 67 128 b 261 -17 96 -6 165 -17 b 436 117 361 -17 410 40 z m 285 1029 l 400 1029 l 408 1038 b 411 1167 408 1038 408 1093 l 399 1175 l 276 1175 l 272 1161 l 272 1085 l 276 1038 z m 104 1026 l 222 1026 l 232 1035 l 232 1140 l 221 1172 l 99 1172 l 96 1158 l 96 1079 l 94 1035 z m 7 918 b 4 796 7 918 4 829 l 4 507 b 7 488 4 503 7 492 b 4 461 7 485 4 465 l 4 442 b 7 396 4 426 7 411 l 7 392 b 4 335 7 389 4 339 l 4 183 b 11 53 4 164 11 72 b 206 -72 40 -61 110 -72 b 314 -39 251 -72 288 -60 b 261 -44 299 -43 281 -44 b 39 107 153 -44 75 -31 b 35 172 39 117 36 144 b 32 239 33 197 32 231 l 32 390 b 33 426 32 393 32 414 b 35 451 33 438 35 446 b 33 468 35 458 33 460 b 32 497 32 475 32 488 l 32 517 b 33 535 32 519 31 525 b 35 543 33 539 35 542 b 33 549 35 544 33 544 b 32 563 32 553 32 558 l 32 851 b 33 921 32 865 32 892 l 11 921 z m 267 914 l 263 910 l 256 125 b 282 138 267 126 276 131 l 283 139 b 283 142 288 143 283 142 b 290 918 285 396 289 663 l 274 918 z m 40 1103 l 40 1024 l 39 1001 l 67 1004 l 88 1004 l 67 1024 l 68 1079 l 68 1117 l 43 1117 z m 229 974 l 290 974 l 290 976 l 303 989 l 318 1001 l 274 1001 l 256 1019 l 233 999 l 219 999 l 219 994 l 224 993 l 224 979 z "},"":{"ha":476,"x_min":0,"x_max":0,"o":"m 188 15 b 192 1 188 13 192 1 l 199 -3 l 304 -3 l 311 4 l 311 271 b 318 324 311 271 315 308 b 332 397 322 347 329 372 b 339 432 332 401 339 429 b 378 665 353 511 364 588 b 435 960 396 765 413 863 l 435 964 b 424 975 435 968 432 975 l 315 975 l 311 971 l 307 960 b 304 922 307 957 304 925 b 272 711 293 851 282 782 b 261 631 268 688 268 656 b 254 617 261 628 258 617 b 243 635 243 617 243 631 b 240 656 243 638 240 651 b 179 950 219 754 201 851 b 176 964 179 953 176 964 b 158 975 172 971 165 975 l 49 975 l 42 971 l 42 960 b 53 886 42 936 49 911 b 89 718 64 829 78 775 l 158 381 b 179 274 165 344 176 308 l 179 221 b 183 97 179 203 183 118 b 188 24 183 90 188 31 z m 199 1011 l 285 1014 l 296 1025 l 324 1106 l 360 1233 l 354 1239 l 272 1239 b 257 1229 264 1236 263 1236 l 192 1021 z m 160 24 b 157 57 160 26 158 40 b 156 97 156 72 156 93 b 153 161 156 108 154 135 b 151 221 151 183 151 214 l 151 274 b 139 336 150 289 144 311 l 131 375 l 61 713 l 43 796 l 44 794 b 25 881 38 822 31 851 l 21 903 l 22 903 l 18 919 l -7 919 l -14 915 l -14 904 b -3 831 -14 881 -7 856 b 33 663 8 774 22 719 l 103 325 b 124 218 110 289 121 253 l 124 165 b 128 42 124 147 128 63 b 132 -32 128 35 132 -25 l 132 -40 b 136 -54 132 -43 136 -54 l 143 -58 l 249 -58 l 256 -51 l 256 -31 l 188 -31 l 167 -12 b 160 15 167 -12 160 6 z m 256 915 l 251 904 b 249 867 251 901 249 869 b 239 804 244 846 242 825 l 244 776 l 249 753 b 272 901 256 801 264 853 l 275 919 l 260 919 z m 201 1174 l 147 1003 l 158 1003 b 175 999 164 1003 169 1001 l 163 1018 l 213 1182 b 201 1174 208 1181 206 1179 z m 229 958 l 240 969 l 246 985 l 194 983 l 201 974 b 206 957 201 974 204 964 z "},"":{"ha":476,"x_min":0,"x_max":0,"o":"m 188 15 b 192 1 188 13 192 1 l 199 -3 l 304 -3 l 311 4 l 311 271 b 318 324 311 271 315 308 b 332 397 322 347 329 372 b 339 432 332 401 339 429 b 378 665 353 511 364 588 b 435 960 396 765 413 863 l 435 964 b 424 975 435 968 432 975 l 315 975 l 311 971 l 307 960 b 304 922 307 957 304 925 b 272 711 293 851 282 782 b 261 631 268 688 268 656 b 254 617 261 628 258 617 b 243 635 243 617 243 631 b 240 656 243 638 240 651 b 179 950 219 754 201 851 b 176 964 179 953 176 964 b 158 975 172 971 165 975 l 49 975 l 42 971 l 42 960 b 53 886 42 936 49 911 b 89 718 64 829 78 775 l 158 381 b 179 274 165 344 176 308 l 179 221 b 183 97 179 203 183 118 b 188 24 183 90 188 31 z m 269 1026 l 385 1026 l 393 1035 b 396 1164 393 1035 393 1090 l 383 1172 l 261 1172 l 257 1158 l 257 1082 l 261 1035 z m 89 1024 l 207 1024 l 217 1032 l 217 1138 l 206 1169 l 83 1169 l 81 1156 l 81 1076 l 79 1032 z m 160 24 b 157 57 160 26 158 40 b 156 97 156 72 156 93 b 153 161 156 108 154 135 b 151 221 151 183 151 214 l 151 274 b 139 336 150 289 144 311 l 131 375 l 61 713 l 43 796 l 44 794 b 25 881 38 822 31 851 l 21 903 l 22 903 l 18 919 l -7 919 l -14 915 l -14 904 b -3 831 -14 881 -7 856 b 33 663 8 774 22 719 l 103 325 b 124 218 110 289 121 253 l 124 165 b 128 42 124 147 128 63 b 132 -32 128 35 132 -25 l 132 -40 b 136 -54 132 -43 136 -54 l 143 -58 l 249 -58 l 256 -51 l 256 -31 l 188 -31 l 167 -12 b 160 15 167 -12 160 6 z m 25 1100 l 25 1021 l 24 990 l 38 1003 l 71 1003 l 51 1021 l 53 1076 l 53 1114 l 28 1114 z m 214 971 l 281 971 l 288 986 l 300 999 l 258 999 l 240 1017 l 218 996 l 204 996 l 206 979 z m 256 915 l 251 904 b 249 867 251 901 249 869 b 239 804 244 846 242 825 l 244 776 l 249 753 b 272 901 256 801 264 853 l 275 919 l 260 919 z "},"":{"ha":418,"x_min":0,"x_max":0,"o":"m 56 49 b 83 -8 56 32 56 -8 b 103 -4 88 -8 99 -4 l 257 -4 l 268 -1 l 275 -1 l 289 -8 l 317 -8 b 342 -11 321 -8 338 -11 b 358 18 356 -11 358 10 b 363 39 358 25 363 39 l 363 106 l 356 108 l 232 108 b 196 111 229 108 204 111 l 356 838 b 361 858 349 851 358 858 l 351 964 l 344 971 b 278 975 344 971 299 975 b 92 979 218 979 156 979 l 63 979 l 56 975 l 56 885 b 86 854 56 863 65 854 l 232 853 l 56 122 z m 167 1026 l 250 1026 b 264 1035 257 1028 258 1028 l 361 1185 l 354 1193 l 276 1190 l 267 1181 l 229 1132 l 208 1089 l 183 1132 l 150 1181 l 140 1190 l 63 1193 l 56 1185 l 153 1035 b 167 1026 158 1028 160 1028 z m 28 124 l 197 825 b 86 826 154 825 129 826 b 28 885 46 826 28 842 l 28 924 l 7 924 l 0 919 l 0 829 b 31 799 0 807 10 799 l 176 797 l 0 67 l 0 -7 b 28 -64 0 -24 0 -64 b 47 -60 32 -64 43 -60 l 201 -60 l 213 -57 l 219 -57 l 233 -64 l 261 -64 b 286 -67 265 -64 282 -67 b 303 -37 300 -67 303 -46 l 303 -36 l 285 -36 l 269 -29 l 268 -29 l 257 -32 l 104 -32 l 101 -33 b 83 -36 93 -36 86 -36 b 28 49 28 -36 28 24 z m 0 1129 l 79 1007 l 140 1007 l 128 1021 l 54 1136 l 7 1138 z "},"":{"ha":508,"x_min":0,"x_max":0,"o":"m 144 -3 b 189 161 182 -3 161 161 l 308 161 b 328 31 315 156 328 60 b 342 -7 328 18 328 -7 l 463 -7 l 467 -3 b 456 94 467 31 458 61 b 410 439 453 114 421 314 b 406 461 410 442 406 457 l 383 644 b 365 761 378 682 368 724 b 331 969 354 831 351 901 b 313 971 325 969 318 971 l 250 1174 b 235 1183 244 1181 243 1181 l 153 1183 l 147 1178 l 183 1050 l 210 971 l 185 971 b 156 806 179 963 156 840 b 136 717 151 776 139 746 b 107 506 129 644 114 576 b 51 61 83 358 71 208 b 43 19 51 57 43 24 b 47 1 43 15 40 1 b 133 -3 58 1 122 -3 z m 200 278 b 193 293 196 279 190 285 b 204 371 193 318 200 344 b 238 631 215 457 236 536 b 249 642 238 633 242 642 b 282 411 261 642 281 410 b 293 282 282 290 300 300 l 290 278 z m 89 -58 b 108 -31 99 -58 104 -47 b 88 -29 101 -31 93 -29 b 47 -26 69 -28 53 -26 b 15 19 4 -26 15 -1 b 21 47 15 21 17 33 l 19 44 b 24 64 21 53 22 64 l 44 236 b 79 510 54 324 65 422 b 93 614 82 543 88 581 b 108 719 99 649 104 683 b 119 772 110 732 114 751 l 128 806 b 146 915 129 826 138 874 l 129 915 b 100 750 124 907 100 785 b 81 661 96 721 83 690 b 51 450 74 589 58 521 b -4 6 28 303 15 153 b -12 -36 -4 1 -12 -32 b -8 -54 -12 -40 -15 -54 b 78 -58 3 -54 67 -58 z m 253 106 b 272 -25 260 100 272 4 b 286 -62 272 -37 272 -62 l 407 -62 l 411 -58 b 410 -35 411 -50 410 -42 l 342 -35 b 300 31 300 -35 300 8 b 293 133 300 53 296 115 l 196 133 l 199 106 z m 92 1122 l 128 994 l 150 928 b 169 999 158 964 165 993 l 171 999 l 157 1042 l 132 1128 l 97 1128 z m 226 342 b 228 306 226 328 226 315 l 261 306 b 254 411 257 322 254 353 b 250 446 253 415 251 428 b 247 468 249 453 247 460 l 244 450 l 232 365 z "},"":{"ha":508,"x_min":0,"x_max":0,"o":"m 144 -3 b 189 161 182 -3 161 161 l 308 161 b 328 31 315 156 328 60 b 342 -7 328 18 328 -7 l 463 -7 l 467 -3 b 456 94 467 31 458 61 b 410 439 453 114 421 314 b 406 461 410 442 406 457 l 383 644 b 365 761 378 682 368 724 b 331 969 354 831 351 901 b 311 971 324 969 317 971 l 338 1047 l 374 1175 l 368 1181 l 286 1181 b 271 1171 278 1178 276 1178 l 208 971 l 185 971 b 156 806 179 963 156 840 b 136 717 151 776 139 746 b 107 506 129 644 114 576 b 51 61 83 358 71 208 b 43 19 51 57 43 24 b 47 1 43 15 40 1 b 133 -3 58 1 122 -3 z m 200 278 b 193 293 196 279 190 285 b 204 371 193 318 200 344 b 238 631 215 457 236 536 b 249 642 238 633 242 642 b 282 411 261 642 281 410 b 293 282 282 290 300 300 l 290 278 z m 89 -58 b 108 -31 99 -58 104 -47 b 88 -29 101 -31 93 -29 b 47 -26 69 -28 53 -26 b 15 19 4 -26 15 -1 b 21 47 15 21 17 33 l 19 44 b 24 64 21 53 22 64 l 44 236 b 79 510 54 324 65 422 b 93 614 82 543 88 581 b 108 719 99 649 104 683 b 119 772 110 732 114 751 l 128 806 b 146 915 129 826 138 874 l 129 915 b 100 750 124 907 100 785 b 81 661 96 721 83 690 b 51 450 74 589 58 521 b -4 6 28 303 15 153 b -12 -36 -4 1 -12 -32 b -8 -54 -12 -40 -15 -54 b 78 -58 3 -54 67 -58 z m 253 106 b 272 -25 260 100 272 4 b 286 -62 272 -37 272 -62 l 407 -62 l 411 -58 b 410 -35 411 -50 410 -42 l 342 -35 b 300 31 300 -35 300 8 b 293 133 300 53 296 115 l 197 133 l 197 106 z m 226 342 b 228 306 226 328 226 315 l 261 306 b 254 411 257 322 254 353 b 250 446 253 415 251 428 b 247 468 249 453 247 460 l 244 450 l 232 365 z m 215 1115 l 178 999 l 189 999 l 226 1124 b 215 1115 222 1122 219 1121 z "},"":{"ha":508,"x_min":0,"x_max":0,"o":"m 144 -3 b 189 161 182 -3 161 161 l 308 161 b 328 31 315 156 328 60 b 342 -7 328 18 328 -7 l 463 -7 l 467 -3 b 456 94 467 31 458 61 b 410 439 453 114 421 314 b 406 461 410 442 406 457 l 383 644 b 365 761 378 682 368 724 b 331 969 354 831 351 901 b 185 971 281 974 231 971 b 156 806 179 963 156 840 b 136 717 151 776 139 746 b 107 506 129 644 114 576 b 51 61 83 358 71 208 b 43 19 51 57 43 24 b 47 1 43 15 40 1 b 133 -3 58 1 122 -3 z m 200 278 b 193 293 196 279 190 285 b 204 371 193 318 200 344 b 238 631 215 457 236 536 b 249 642 238 633 242 642 b 282 411 261 642 281 410 b 293 282 282 290 300 300 l 290 278 z m 108 1017 l 186 1019 l 196 1029 l 233 1078 l 254 1121 l 279 1078 l 313 1029 l 322 1019 l 400 1017 l 407 1025 l 310 1175 b 296 1183 304 1182 303 1182 l 213 1183 b 199 1175 206 1182 204 1182 l 101 1025 z m 89 -58 b 108 -31 99 -58 104 -47 b 88 -29 101 -31 93 -29 b 47 -26 69 -28 53 -26 b 15 19 4 -26 15 -1 b 21 47 15 21 17 33 l 19 44 b 24 64 21 53 22 64 l 44 236 b 79 510 54 324 65 422 b 93 614 82 543 88 581 b 108 719 99 649 104 683 b 119 772 110 732 114 751 l 128 806 b 146 915 129 828 138 874 l 129 915 b 100 750 124 907 100 785 b 81 661 96 721 83 690 b 51 450 74 589 58 521 b -4 6 28 303 15 153 b -12 -36 -4 1 -12 -32 b -8 -54 -12 -40 -15 -54 b 78 -58 3 -54 67 -58 z m 253 106 b 272 -25 260 100 272 4 b 286 -62 272 -37 272 -62 l 407 -62 l 411 -58 b 410 -35 411 -50 410 -42 l 342 -35 b 300 31 300 -35 300 8 b 293 133 300 53 296 115 l 190 133 b 199 106 197 131 199 118 z m 226 342 b 228 306 226 328 226 315 l 261 306 b 254 411 257 322 254 353 b 250 446 253 415 251 428 b 247 468 249 453 247 460 l 244 450 l 232 365 z m 53 961 l 131 964 l 140 974 l 153 990 l 96 989 l 76 1017 l 46 969 z m 290 1013 l 258 1058 l 256 1061 l 224 1021 l 239 999 l 304 999 z "},"":{"ha":508,"x_min":0,"x_max":0,"o":"m 144 -3 b 189 161 182 -3 161 161 l 308 161 b 328 31 315 156 328 60 b 342 -7 328 18 328 -7 l 463 -7 l 467 -3 b 456 94 467 31 458 61 b 410 439 453 114 421 314 b 406 461 410 442 406 457 l 383 644 b 365 761 378 682 368 724 b 331 969 354 831 351 901 b 185 971 281 974 231 971 b 156 806 179 963 156 840 b 136 717 151 776 139 746 b 107 506 129 644 114 576 b 51 61 83 358 71 208 b 43 19 51 57 43 24 b 47 1 43 15 40 1 b 133 -3 58 1 122 -3 z m 200 278 b 193 293 196 279 190 285 b 204 371 193 318 200 344 b 238 631 215 457 236 536 b 249 642 238 633 242 642 b 282 411 261 642 281 410 b 293 282 282 290 300 300 l 290 278 z m 292 1101 b 315 1119 300 1113 306 1119 b 328 1103 321 1119 325 1118 l 328 1051 b 342 1038 328 1042 331 1038 l 389 1039 b 403 1053 397 1039 403 1042 l 403 1121 b 358 1196 400 1161 381 1185 b 328 1197 353 1196 346 1197 b 226 1129 283 1197 260 1172 b 186 1090 213 1113 199 1090 b 178 1107 179 1090 179 1097 l 176 1161 b 163 1175 176 1171 172 1175 l 121 1174 b 107 1160 110 1174 107 1168 l 107 1149 b 106 1096 107 1138 106 1110 b 182 1017 106 1042 140 1017 b 286 1093 231 1017 257 1051 z m 89 -58 b 108 -31 99 -58 104 -47 b 88 -29 101 -31 93 -29 b 47 -26 69 -28 53 -26 b 15 19 4 -26 15 -1 b 21 47 15 21 17 33 l 19 44 b 24 64 21 53 22 64 l 44 236 b 79 510 54 324 65 422 b 93 614 82 543 88 581 b 108 719 99 649 104 683 b 119 772 110 732 114 751 l 128 806 b 146 915 129 826 138 874 l 129 915 b 100 750 124 907 100 785 b 81 661 96 721 83 690 b 51 450 74 589 58 521 b -4 6 28 303 15 153 b -12 -36 -4 1 -12 -32 b -8 -54 -12 -40 -15 -54 b 78 -58 3 -54 67 -58 z m 253 106 b 272 -25 260 100 272 4 b 286 -62 272 -37 272 -62 l 407 -62 l 411 -58 b 410 -35 411 -50 410 -42 l 342 -35 b 300 31 300 -35 300 8 b 293 133 300 53 296 115 l 190 133 b 199 106 197 131 199 118 z m 51 1104 l 51 1093 b 50 1040 51 1082 50 1054 b 126 961 50 986 85 961 b 158 967 139 961 149 963 b 165 989 161 976 163 983 b 78 1096 115 996 78 1029 b 79 1118 78 1101 79 1110 l 65 1118 b 51 1104 54 1118 51 1113 z m 226 342 b 228 306 226 328 226 315 l 261 306 b 254 411 257 322 254 353 b 250 446 253 415 251 428 b 247 468 249 453 247 460 l 244 450 l 232 365 z m 342 1010 b 300 1051 308 1010 300 1022 l 300 1064 b 272 1031 290 1051 282 1040 l 272 999 l 276 999 b 347 996 293 999 328 997 l 347 997 l 347 1010 z "},"":{"ha":508,"x_min":0,"x_max":0,"o":"m 144 -3 b 189 161 182 -3 161 161 l 308 161 b 328 31 315 156 328 60 b 342 -7 328 18 328 -7 l 463 -7 l 467 -3 b 456 94 467 31 458 61 b 410 439 453 114 421 314 b 406 461 410 442 406 457 l 383 644 b 365 761 378 682 368 724 b 331 969 354 831 351 901 b 185 971 281 974 231 971 b 156 806 179 963 156 840 b 136 717 151 776 139 746 b 107 506 129 644 114 576 b 51 61 83 358 71 208 b 43 19 51 57 43 24 b 47 1 43 15 40 1 b 133 -3 58 1 122 -3 z m 200 278 b 193 293 196 279 190 285 b 204 371 193 318 200 344 b 238 631 215 457 236 536 b 249 642 238 633 242 642 b 282 411 261 642 281 410 b 293 282 282 290 300 300 l 290 278 z m 286 1029 l 401 1029 l 410 1038 b 413 1167 410 1038 410 1093 l 400 1175 l 278 1175 l 274 1161 l 274 1085 l 278 1038 z m 106 1026 l 224 1026 l 233 1035 l 233 1140 l 222 1172 l 100 1172 l 97 1158 l 97 1079 l 96 1035 z m 89 -58 b 108 -31 99 -58 104 -47 b 88 -29 101 -31 93 -29 b 47 -26 69 -28 53 -26 b 15 19 4 -26 15 -1 b 21 47 15 21 17 33 l 19 44 b 24 64 21 53 22 64 l 44 236 b 79 510 54 324 65 422 b 93 614 82 543 88 581 b 108 719 99 649 104 683 b 119 772 110 732 114 751 l 128 806 b 146 915 129 826 138 874 l 129 915 b 100 750 124 907 100 785 b 81 661 96 721 83 690 b 51 450 74 589 58 521 b -4 6 28 303 15 153 b -12 -36 -4 1 -12 -32 b -8 -54 -12 -40 -15 -54 b 78 -58 3 -54 67 -58 z m 253 106 b 272 -25 260 100 272 4 b 286 -62 272 -37 272 -62 l 407 -62 l 411 -58 b 410 -35 411 -50 410 -42 l 342 -35 b 300 31 300 -35 300 8 b 293 133 300 53 296 115 l 201 133 l 200 106 z m 50 971 l 160 971 b 169 999 164 985 167 996 l 96 999 l 68 1024 l 69 1079 l 69 1117 l 44 1117 l 42 1103 l 42 1024 l 40 979 z m 226 342 b 228 306 226 328 226 315 l 261 306 b 254 411 257 322 254 353 b 250 446 253 415 251 428 b 247 468 249 453 247 460 l 244 450 l 232 365 z m 257 1019 l 235 996 l 276 996 b 351 993 294 996 333 994 l 354 986 l 354 1001 l 275 1001 z "},"":{"ha":508,"x_min":0,"x_max":0,"o":"m 144 -3 b 189 161 182 -3 161 161 l 308 161 b 328 31 315 156 328 60 b 342 -7 328 18 328 -7 l 463 -7 l 467 -3 b 456 94 467 31 458 61 b 410 439 453 114 421 314 b 406 461 410 442 406 457 l 383 644 b 365 761 378 682 368 724 b 339 936 356 819 353 878 b 399 1046 389 961 399 1003 b 283 1178 399 1060 376 1178 l 261 1178 b 132 1114 189 1178 163 1150 b 121 1093 126 1107 126 1097 l 115 1043 b 175 933 115 992 135 954 b 156 806 165 893 156 829 b 136 717 151 776 139 746 b 107 506 129 644 114 576 b 51 61 83 358 71 208 b 43 19 51 57 43 24 b 47 1 43 15 40 1 b 133 -3 58 1 122 -3 z m 200 278 b 193 293 196 279 190 285 b 204 371 193 318 200 344 b 238 631 215 457 236 536 b 249 642 238 633 242 642 b 282 411 261 642 281 410 b 293 282 282 290 300 300 l 290 278 z m 239 983 b 181 1050 193 983 181 1042 b 224 1108 181 1074 186 1097 b 239 1114 228 1113 233 1114 l 256 1114 b 282 1113 264 1114 272 1114 b 325 1051 306 1108 325 1081 l 322 1025 b 319 1014 319 1022 319 1015 b 250 983 301 996 286 983 z m 89 -58 b 108 -31 99 -58 104 -47 b 88 -29 101 -31 93 -29 b 47 -26 69 -28 53 -26 b 15 19 4 -26 15 -1 b 21 47 15 21 17 33 l 19 44 b 24 64 21 53 22 64 l 44 236 b 79 510 54 324 65 422 b 93 614 82 543 88 581 b 108 719 99 649 104 683 b 119 772 110 732 114 751 l 128 806 b 143 919 129 829 135 881 b 88 1046 104 947 88 989 l 90 1075 l 76 1058 b 65 1038 71 1051 71 1042 l 60 988 b 119 878 60 936 79 899 b 100 750 110 838 100 774 b 81 661 96 721 83 690 b 51 450 74 589 58 521 b -4 6 28 303 15 153 b -12 -36 -4 1 -12 -32 b -8 -54 -12 -40 -15 -54 b 78 -58 3 -54 67 -58 z m 253 106 b 272 -25 260 100 272 4 b 286 -62 272 -37 272 -62 l 407 -62 l 411 -58 b 410 -35 411 -50 410 -42 l 342 -35 b 300 31 300 -35 300 8 b 293 133 300 53 296 115 l 190 133 b 199 106 197 131 199 118 z m 226 1057 b 267 1013 244 1053 261 1035 b 292 1025 278 1014 283 1018 b 294 1032 292 1026 294 1031 b 297 1051 294 1036 297 1047 b 278 1085 297 1068 289 1082 b 256 1086 269 1086 260 1086 l 239 1086 b 238 1083 240 1086 239 1085 b 208 1058 218 1078 211 1068 b 226 1057 214 1058 219 1057 z m 226 342 b 228 306 226 328 226 315 l 261 306 b 254 411 257 322 254 353 b 250 446 253 415 251 428 b 247 468 249 453 247 460 l 244 450 l 232 365 z "},"":{"ha":649,"x_min":0,"x_max":0,"o":"m 113 -3 b 176 161 150 -3 149 161 l 296 161 b 299 146 297 160 299 154 b 297 33 299 108 297 71 l 297 15 b 310 -7 297 4 300 -7 b 589 -1 468 4 574 -1 l 600 -1 b 607 0 603 0 607 0 b 614 7 610 0 614 7 l 611 111 b 597 125 611 121 607 125 l 442 122 b 433 126 439 122 436 124 b 431 257 433 156 431 204 b 433 392 432 313 433 376 b 436 433 432 399 436 426 b 465 444 443 444 450 444 b 539 442 489 444 514 442 b 563 453 546 443 564 443 b 567 503 563 460 567 496 b 565 532 567 503 565 524 l 565 556 b 551 567 563 567 558 567 b 463 561 522 565 492 561 b 433 572 451 561 442 561 l 433 603 b 439 849 432 678 438 771 b 461 863 443 858 450 863 b 586 861 503 864 543 861 l 600 861 l 607 868 b 608 936 607 868 608 915 l 608 943 b 604 972 608 951 604 972 l 597 975 b 357 976 597 975 428 979 l 310 976 l 304 971 l 267 971 b 218 806 261 963 222 840 b 189 717 211 776 194 746 b 135 506 174 644 150 576 b 28 61 94 358 64 208 b 15 19 28 57 18 24 b 18 1 15 15 11 1 b 101 -3 28 1 90 -3 z m 207 278 b 201 293 203 279 197 285 b 221 371 204 318 215 344 b 286 631 243 457 274 536 b 297 642 286 633 290 642 b 304 413 311 642 303 399 b 300 282 289 290 310 300 l 297 278 z m 57 -58 b 79 -29 67 -58 74 -46 b 54 -28 71 -29 63 -28 b 18 -26 36 -26 22 -26 b -11 29 -19 -26 -15 -1 b 0 63 -8 33 0 60 b 39 233 14 118 26 178 b 108 513 60 324 85 424 l 107 511 b 135 615 114 546 125 581 b 161 722 144 651 153 685 l 178 772 b 190 811 182 782 186 796 b 221 915 194 832 207 875 l 211 915 b 163 750 206 907 167 785 b 133 661 156 721 139 690 b 79 450 118 589 94 521 b -28 6 39 303 8 153 b -40 -36 -28 1 -37 -32 b -37 -54 -40 -40 -44 -54 b 46 -58 -28 -54 35 -58 z m 240 106 b 243 90 242 104 243 99 b 242 -22 243 53 242 15 l 242 -40 b 254 -62 242 -51 244 -62 b 533 -57 413 -51 518 -57 l 544 -57 b 551 -56 547 -56 551 -56 b 558 -49 554 -56 558 -49 l 557 -29 b 499 -28 542 -28 522 -28 b 310 -35 451 -28 388 -29 b 269 15 278 -35 269 -10 l 269 89 b 271 133 269 103 269 118 l 188 133 l 182 106 z m 249 357 l 243 306 l 271 306 b 276 418 269 324 268 356 l 276 467 l 269 443 b 249 369 261 418 254 394 z m 531 806 l 544 806 l 551 813 l 551 835 l 535 835 b 467 835 511 835 489 836 l 467 807 b 531 806 488 806 508 806 z m 483 386 b 507 397 490 388 508 388 l 507 414 b 499 415 504 414 501 415 b 465 417 488 415 476 417 l 463 417 b 461 396 461 408 460 399 l 461 386 z "},"":{"ha":494,"x_min":0,"x_max":0,"o":"m 128 -135 l 124 -153 l 126 -224 l 143 -232 b 308 -78 263 -232 314 -169 l 304 -14 l 307 -14 b 378 17 329 -7 360 -3 b 450 256 443 81 450 168 l 450 308 b 435 347 447 317 439 347 b 344 350 419 347 360 350 l 336 350 b 325 347 333 350 325 350 l 325 149 b 311 126 325 149 314 133 l 307 122 b 257 104 292 115 276 104 b 204 149 235 104 208 126 b 200 201 204 157 200 194 l 200 225 b 204 794 200 415 204 604 b 250 863 204 829 211 863 b 276 858 257 863 268 863 b 299 829 288 851 299 843 b 303 765 299 821 303 776 l 303 674 l 307 669 l 417 669 l 419 674 b 424 750 428 696 424 726 b 382 931 424 810 424 885 b 311 985 360 954 340 974 b 299 989 307 985 299 989 b 154 961 247 993 207 997 b 67 753 86 913 71 832 b 63 631 67 738 63 650 l 63 206 b 169 -3 67 122 82 32 b 208 -14 178 -7 204 -14 l 210 -14 l 210 -62 b 128 -135 207 -153 128 -135 z m 11 697 b 7 575 11 682 7 594 l 7 150 b 114 -58 11 67 26 -24 b 153 -69 122 -62 149 -69 l 154 -69 l 154 -107 b 182 -61 167 -104 181 -93 b 181 -36 182 -47 181 -50 l 157 -28 b 35 204 56 13 39 113 l 35 631 b 38 700 35 640 36 672 b 39 753 39 725 39 746 b 53 858 40 789 44 825 b 11 697 22 813 14 754 z m 243 774 b 247 710 243 765 247 721 l 247 618 l 251 614 l 361 614 l 364 618 b 368 642 367 625 368 633 l 296 642 l 275 663 l 275 765 b 272 799 275 769 274 786 b 271 829 271 810 271 825 l 271 833 b 263 833 269 832 267 829 b 250 835 260 835 253 835 b 232 794 235 835 232 815 b 243 774 238 789 243 782 z m 72 -190 l 68 -208 l 71 -279 l 88 -287 b 208 -251 142 -287 182 -275 b 136 -260 188 -257 163 -260 l 99 -242 l 97 -192 b 72 -190 83 -193 72 -190 z m 281 294 b 269 292 278 294 269 294 l 269 135 l 285 142 l 283 142 l 289 143 l 297 157 l 297 294 l 289 294 z "},"":{"ha":489,"x_min":0,"x_max":0,"o":"m 78 -3 l 103 -3 b 172 1 129 -3 147 -3 l 194 -3 l 199 1 b 272 4 208 1 261 4 b 331 15 290 4 315 8 b 422 181 417 60 422 125 b 424 778 422 282 424 740 b 371 939 424 836 411 894 b 344 961 364 946 356 957 b 272 975 324 972 294 975 l 78 975 b 63 968 74 975 67 972 l 63 663 b 67 579 63 651 67 590 l 67 524 b 29 525 51 524 36 524 l 25 522 l 24 479 l 24 476 b 33 465 24 472 24 465 l 67 465 l 67 75 b 69 38 67 72 69 46 b 78 -3 69 26 67 6 z m 190 129 l 190 133 b 192 465 190 153 192 306 l 238 465 b 247 467 238 465 244 467 l 254 467 b 260 471 256 467 260 471 l 257 518 b 244 525 257 522 254 525 l 192 525 b 194 846 193 679 194 825 b 221 857 199 861 213 857 b 294 807 254 857 290 843 b 297 685 297 758 297 729 b 294 167 297 656 297 196 b 217 111 286 126 258 111 b 190 129 206 111 190 115 z m 160 150 b 153 161 153 150 153 154 b 164 169 153 165 156 169 b 171 165 168 169 171 169 b 160 150 171 158 168 150 z m 61 -25 b 42 32 38 -8 42 15 l 42 38 b 40 60 42 42 42 50 b 39 75 40 65 39 74 l 39 438 l 33 438 b -4 468 3 438 -3 451 b -26 469 -12 468 -22 468 l -31 467 l -32 424 l -32 421 b -22 410 -32 417 -32 410 l 11 410 l 11 19 b 14 -18 11 17 14 -10 b 22 -58 14 -29 11 -50 l 47 -58 b 117 -54 74 -58 92 -58 l 139 -58 l 143 -54 b 217 -51 153 -54 206 -51 b 275 -40 235 -51 260 -47 b 307 -19 288 -33 297 -26 b 272 -24 294 -22 282 -24 b 236 -25 267 -24 253 -24 b 210 -26 221 -25 214 -26 l 203 -33 l 171 -28 b 103 -31 147 -32 131 -31 l 78 -31 z m 7 913 l 7 607 b 10 550 7 600 8 572 l 32 553 b 33 551 35 551 33 551 l 39 551 l 39 579 b 36 618 39 585 38 600 b 35 663 35 636 35 657 l 35 919 l 22 919 b 7 913 18 919 11 917 z m 244 553 b 269 547 256 553 263 550 l 269 685 b 267 806 269 729 269 757 b 222 829 264 821 244 828 l 222 783 b 239 751 231 775 238 765 b 242 629 242 703 242 674 l 242 553 z m 240 142 b 267 172 253 146 263 156 l 267 169 b 269 444 268 185 269 315 b 254 439 264 440 258 439 l 247 439 b 243 438 247 438 243 438 l 242 438 b 240 142 242 321 242 203 z "},"":{"ha":421,"x_min":0,"x_max":0,"o":"m 63 26 b 74 6 63 19 63 6 b 219 4 96 6 197 4 b 354 -1 233 4 339 -1 l 365 -1 b 372 0 368 0 372 0 b 379 7 375 0 379 7 l 376 125 l 207 122 b 196 132 203 122 196 129 l 196 157 b 194 178 196 160 194 178 b 199 392 194 217 199 367 b 201 433 197 399 201 426 b 231 444 208 444 215 444 b 304 442 254 444 279 442 b 328 453 311 443 329 443 b 332 503 328 460 332 496 b 331 532 332 503 331 524 l 331 556 b 317 567 328 567 324 567 b 228 561 288 565 257 561 b 199 572 217 561 207 561 l 199 603 b 204 849 197 678 203 771 b 226 863 208 858 215 863 b 351 861 268 864 308 861 l 365 861 l 372 868 b 374 936 372 868 374 915 l 374 943 b 369 972 374 951 369 972 l 363 975 b 269 976 363 975 321 976 l 211 1165 b 196 1175 206 1172 204 1172 l 114 1175 l 108 1169 l 144 1042 l 167 976 l 122 976 l 75 976 l 68 969 l 68 944 b 67 586 69 910 67 621 b 63 33 67 403 65 218 z m 35 33 b 39 586 38 218 39 403 l 39 665 b 40 893 40 735 40 833 l 40 921 l 19 921 l 13 914 l 13 889 b 11 531 14 854 11 565 b 7 -22 11 347 10 163 l 7 -29 b 18 -50 7 -36 7 -50 b 164 -51 40 -50 142 -51 b 299 -57 178 -51 283 -57 l 310 -57 b 317 -56 313 -56 317 -56 b 324 -49 319 -56 324 -49 l 322 -28 b 283 -26 311 -28 297 -26 b 219 -24 254 -25 226 -24 l 146 -24 b 74 -22 115 -24 85 -22 b 35 26 35 -22 35 10 z m 53 1114 l 83 1004 l 128 1004 l 118 1033 l 93 1119 l 58 1119 z m 296 806 l 310 806 l 317 813 l 317 835 l 300 835 b 232 835 276 835 254 836 l 232 807 b 296 806 253 806 274 806 z m 249 386 b 272 397 256 388 274 388 b 274 414 272 400 272 406 b 264 415 269 414 267 414 b 231 417 253 415 242 417 l 228 417 b 226 396 226 408 225 399 l 226 386 z "},"":{"ha":421,"x_min":0,"x_max":0,"o":"m 63 26 b 74 6 63 19 63 6 b 219 4 96 6 197 4 b 354 -1 233 4 339 -1 l 365 -1 b 372 0 368 0 372 0 b 379 7 375 0 379 7 l 376 125 l 207 122 b 196 132 203 122 196 129 l 196 157 b 194 178 196 160 194 178 b 199 392 194 217 199 367 b 201 433 197 399 201 426 b 231 444 208 444 215 444 b 304 442 254 444 279 442 b 328 453 311 443 329 443 b 332 503 328 460 332 496 b 331 532 332 503 331 524 l 331 556 b 317 567 328 567 324 567 b 228 561 288 565 257 561 b 199 572 217 561 207 561 l 199 603 b 204 849 197 678 203 771 b 226 863 208 858 215 863 b 351 861 268 864 308 861 l 365 861 l 372 868 b 374 936 372 868 374 915 l 374 943 b 369 972 374 951 369 972 l 363 975 b 257 976 363 975 313 976 l 283 1054 l 319 1182 l 314 1188 l 232 1188 b 217 1178 224 1185 222 1185 l 153 976 l 122 976 l 75 976 l 68 969 l 68 944 b 67 586 69 910 67 621 b 63 33 67 403 65 218 z m 35 33 b 39 586 38 218 39 403 l 39 665 b 40 893 40 735 40 833 l 40 921 l 19 921 l 13 914 l 13 889 b 11 531 14 854 11 565 b 7 -22 11 347 10 163 l 7 -29 b 18 -50 7 -36 7 -50 b 164 -51 40 -50 142 -51 b 299 -57 178 -51 283 -57 l 310 -57 b 317 -56 313 -56 317 -56 b 324 -49 319 -56 324 -49 l 322 -28 b 283 -26 311 -28 297 -26 b 219 -24 254 -25 226 -24 l 146 -24 b 74 -22 115 -24 85 -22 b 35 26 35 -22 35 10 z m 296 806 l 310 806 l 317 813 l 317 835 l 300 835 b 232 835 276 835 254 836 l 232 807 b 296 806 253 806 274 806 z m 249 386 b 272 397 256 388 274 388 b 274 414 272 400 272 406 b 264 415 269 414 267 414 b 231 417 253 415 242 417 l 228 417 b 226 396 226 408 225 399 l 226 386 z m 161 1122 l 124 1004 l 132 1004 l 172 1131 b 161 1122 167 1129 165 1128 z "},"":{"ha":421,"x_min":0,"x_max":0,"o":"m 63 26 b 74 6 63 19 63 6 b 219 4 96 6 197 4 b 354 -1 233 4 339 -1 l 365 -1 b 372 0 368 0 372 0 b 379 7 375 0 379 7 l 376 125 l 207 122 b 196 132 203 122 196 129 l 196 157 b 194 178 196 160 194 178 b 199 392 194 217 199 367 b 201 433 197 399 201 426 b 231 444 208 444 215 444 b 304 442 254 444 279 442 b 328 453 311 443 329 443 b 332 503 328 460 332 496 b 331 532 332 503 331 524 l 331 556 b 317 567 328 567 324 567 b 228 561 288 565 257 561 b 199 572 217 561 207 561 l 199 603 b 204 849 197 678 203 771 b 226 863 208 858 215 863 b 351 861 268 864 308 861 l 365 861 l 372 868 b 374 936 372 868 374 915 l 374 943 b 369 972 374 951 369 972 l 363 975 b 122 976 363 975 193 979 l 75 976 l 68 969 l 68 944 b 67 586 69 910 67 621 b 63 33 67 403 65 218 z m 64 1021 l 142 1024 l 151 1033 l 189 1082 l 210 1125 l 235 1082 l 268 1033 l 278 1024 l 356 1021 l 363 1029 l 265 1179 b 251 1188 260 1186 258 1186 l 168 1188 b 154 1179 161 1186 160 1186 l 57 1029 z m 7 -29 b 18 -50 7 -36 7 -50 b 164 -51 40 -50 142 -51 b 299 -57 178 -51 283 -57 l 310 -57 b 317 -56 313 -56 317 -56 b 324 -49 319 -56 324 -49 l 322 -28 b 283 -26 311 -28 297 -26 b 219 -24 254 -25 226 -24 l 146 -24 b 74 -22 115 -24 85 -22 b 35 26 35 -22 35 10 l 35 33 b 39 586 38 218 39 403 l 39 665 b 40 893 40 735 40 833 l 40 921 l 19 921 l 13 914 l 13 889 b 11 531 14 854 11 565 b 7 -22 11 347 10 163 z m 296 806 l 310 806 l 317 813 l 317 835 l 300 835 b 232 835 276 835 254 836 l 232 807 b 296 806 253 806 274 806 z m 246 1017 l 214 1063 l 211 1065 l 179 1025 l 193 1006 l 257 1006 z m 8 965 l 40 967 l 40 981 l 53 993 l 51 993 l 32 1021 l 1 974 z m 249 386 b 272 397 256 388 274 388 b 274 414 272 400 272 406 b 264 415 269 414 267 414 b 231 417 253 415 242 417 l 228 417 b 226 396 226 408 225 399 l 226 386 z "},"":{"ha":421,"x_min":0,"x_max":0,"o":"m 63 26 b 74 6 63 19 63 6 b 219 4 96 6 197 4 b 354 -1 233 4 339 -1 l 365 -1 b 372 0 368 0 372 0 b 379 7 375 0 379 7 l 376 125 l 207 122 b 196 132 203 122 196 129 l 196 157 b 194 178 196 160 194 178 b 199 392 194 217 199 367 b 201 433 197 399 201 426 b 231 444 208 444 215 444 b 304 442 254 444 279 442 b 328 453 311 443 329 443 b 332 503 328 460 332 496 b 331 532 332 503 331 524 l 331 556 b 317 567 328 567 324 567 b 228 561 288 565 257 561 b 199 572 217 561 207 561 l 199 603 b 204 849 197 678 203 771 b 226 863 208 858 215 863 b 351 861 268 864 308 861 l 365 861 l 372 868 b 374 936 372 868 374 915 l 374 943 b 369 972 374 951 369 972 l 363 975 b 122 976 363 975 193 979 l 75 976 l 68 969 l 68 944 b 67 586 69 910 67 621 b 63 33 67 403 65 218 z m 242 1026 l 357 1026 l 365 1035 b 368 1164 365 1035 365 1090 l 356 1172 l 233 1172 l 229 1158 l 229 1082 l 233 1035 z m 61 1024 l 179 1024 l 189 1032 l 189 1138 l 178 1169 l 56 1169 l 53 1156 l 53 1076 l 51 1032 z m 7 -29 b 18 -50 7 -36 7 -50 b 164 -51 40 -50 142 -51 b 299 -57 178 -51 283 -57 l 310 -57 b 317 -56 313 -56 317 -56 b 324 -49 319 -56 324 -49 l 322 -28 b 283 -26 311 -28 297 -26 b 219 -24 254 -25 226 -24 l 146 -24 b 74 -22 115 -24 85 -22 b 35 26 35 -22 35 10 l 35 33 b 39 586 38 218 39 403 l 39 665 b 40 893 40 735 40 833 l 40 921 l 19 921 l 13 914 l 13 889 b 11 531 14 854 11 565 b 7 -22 11 347 10 163 z m 6 968 l 40 968 l 40 981 l 56 996 l 51 996 l 24 1021 l 25 1076 l 25 1114 l 0 1114 l -3 1100 l -3 1021 l -4 976 z m 296 806 l 310 806 l 317 813 l 317 835 l 300 835 b 232 835 276 835 254 836 l 232 807 b 296 806 253 806 274 806 z m 249 386 b 272 397 256 388 274 388 b 274 414 272 400 272 406 b 264 415 269 414 267 414 b 231 417 253 415 242 417 l 228 417 b 226 396 226 408 225 399 l 226 386 z "},"":{"ha":274,"x_min":0,"x_max":0,"o":"m 72 0 l 79 -7 l 190 -7 l 199 0 b 197 235 199 0 197 164 b 200 356 197 275 199 315 l 204 490 l 206 865 l 210 911 l 210 967 b 194 981 206 974 201 981 l 83 974 b 72 958 79 974 72 963 l 72 624 l 69 206 l 68 42 z m 40 39 l 42 206 l 44 624 l 44 918 l 28 918 b 17 903 24 918 17 907 l 17 568 l 14 150 l 13 -14 l 17 -56 l 24 -62 l 135 -62 l 143 -56 l 143 -35 l 68 -35 l 46 -12 z "},"":{"ha":274,"x_min":0,"x_max":0,"o":"m 72 0 l 79 -7 l 190 -7 l 199 0 b 197 235 199 0 197 164 b 200 356 197 275 199 315 l 204 490 l 206 865 l 210 911 l 210 967 b 194 981 206 974 201 981 l 189 979 l 126 1179 b 111 1189 121 1186 119 1186 l 29 1189 l 24 1183 l 60 1056 l 88 975 l 89 974 l 83 974 b 72 958 79 974 72 963 l 72 624 l 69 206 l 68 42 z m 40 39 l 42 206 l 44 624 l 44 958 b 56 982 44 963 49 972 l 33 1047 l 8 1133 l -26 1133 l -32 1128 l 4 1000 l 32 919 l 33 918 l 28 918 b 17 903 24 918 17 907 l 17 568 l 14 150 l 13 -14 l 17 -56 l 24 -62 l 135 -62 l 143 -56 l 143 -35 l 68 -35 l 46 -12 z "},"":{"ha":274,"x_min":0,"x_max":0,"o":"m 72 0 l 79 -7 l 190 -7 l 199 0 b 197 235 199 0 197 164 b 200 356 197 275 199 315 l 204 490 l 206 865 l 210 911 l 210 967 b 199 979 206 972 203 978 l 224 1053 l 260 1181 l 254 1186 l 172 1186 b 157 1176 164 1183 163 1183 l 93 974 l 83 974 b 72 958 79 974 72 963 l 72 624 l 69 206 l 68 42 z m 40 39 l 42 206 l 44 624 l 44 940 l 38 918 l 28 918 b 17 903 24 918 17 907 l 17 568 l 14 150 l 13 -14 l 17 -56 l 24 -62 l 135 -62 l 143 -56 l 143 -35 l 68 -35 l 46 -12 z m 99 1121 l 56 985 l 71 996 l 113 1129 b 99 1121 107 1128 103 1126 z "}}}
